<svg width="134" height="67" viewBox="0 0 134 67" fill="none" xmlns="http://www.w3.org/2000/svg">
<path d="M24.0503 20.4828C22.9973 21.6214 21.9535 22.9181 20.919 24.373C19.9065 25.7862 18.9317 27.2786 17.9947 28.8501C17.0885 30.4132 16.2422 32.0139 15.4555 33.6521C14.6689 35.2904 13.977 36.8496 13.3799 38.33C12.1947 41.324 11.5206 43.7529 11.3574 45.6166C11.1854 47.447 11.4111 48.4749 12.0347 48.7004C12.6671 48.9591 13.6418 48.2697 14.9586 46.6322C16.2843 45.028 17.8479 42.2716 19.6493 38.3631C20.405 36.7331 21.0282 35.103 21.5189 33.4727C22.0404 31.8342 22.4628 30.2579 22.7858 28.7439C23.1 27.1966 23.3547 25.7366 23.55 24.3639C23.7364 22.9579 23.9031 21.6642 24.0503 20.4828ZM12.4259 28.094C12.1181 28.6761 11.6579 29.2454 11.0452 29.8022C10.4236 30.3256 9.73333 30.7782 8.9744 31.16C8.21546 31.5418 7.41431 31.8278 6.57094 32.0181C5.74956 32.1668 4.9543 32.1658 4.18516 32.015C3.44693 31.856 2.77672 31.5181 2.17454 31.0014C1.56343 30.4514 1.1196 29.6604 0.843031 28.6282C0.455266 27.3047 0.347402 25.7277 0.519438 23.8973C0.713458 22.0254 1.13927 20.0913 1.79687 18.0951C2.45447 16.0989 3.3308 14.1155 4.42586 12.1448C5.54291 10.1326 6.83057 8.32445 8.28885 6.72039C9.76912 5.07474 11.4069 3.70806 13.2023 2.62033C14.9888 1.4993 16.9067 0.806973 18.956 0.543344C20.9744 0.287998 22.647 0.410811 23.9737 0.91178C25.3224 1.37117 26.4001 2.11729 27.2068 3.15013C28.0445 4.17469 28.6596 5.41947 29.0521 6.88447C29.4756 8.34119 29.7668 9.92255 29.9258 11.6286C30.954 11.1389 31.8835 10.9612 32.7145 11.0954C33.5454 11.2297 34.2685 11.5177 34.8838 11.9595C33.8336 12.4907 32.8566 13.1093 31.9527 13.8154C31.0399 14.4882 30.3788 15.1115 29.9693 15.6851C29.969 17.291 29.8698 19.0841 29.6716 21.0642C29.5044 23.0361 29.2114 25.0951 28.7928 27.2414C28.3742 29.3877 27.8363 31.5837 27.1794 33.8295C26.5135 36.042 25.6972 38.1878 24.7306 40.2668C23.7289 42.4622 22.5961 44.3538 21.3321 45.9415C20.108 47.5542 18.8345 48.8589 17.5117 49.8557C16.2197 50.8443 14.9601 51.5208 13.7328 51.8853C12.5055 52.2499 11.4187 52.2734 10.4724 51.956C9.52609 51.6386 8.77113 50.9844 8.2075 49.9935C7.67477 48.9943 7.41269 47.5836 7.42128 45.7613C7.48818 44.2802 7.76217 42.5831 8.24326 40.6699C8.75526 38.7484 9.54923 36.5194 10.6252 33.9829C11.2531 32.4943 12.0356 30.9642 12.9727 29.3928C13.9097 27.8213 14.9638 26.2542 16.135 24.6913C17.2973 23.0952 18.5702 21.5408 19.9536 20.0282C21.3281 18.4823 22.7911 17.0197 24.3428 15.6404C24.3552 15.3159 24.3471 14.7292 24.3184 13.8805C24.2808 12.9984 24.2054 12.0372 24.0923 10.997C24.0012 9.91511 23.8393 8.81653 23.6067 7.70122C23.3652 6.55262 23.0158 5.55781 22.5586 4.7168C22.1323 3.86751 21.5806 3.23025 20.9035 2.805C20.2485 2.33818 19.4419 2.23313 18.4838 2.48985C17.442 2.8047 16.3392 3.51056 15.1757 4.60742C14.0032 5.671 12.8667 6.99256 11.7662 8.57213C10.6877 10.1101 9.7002 11.8022 8.80363 13.6483C7.89815 15.4611 7.19148 17.2741 6.68362 19.0874C6.16684 20.8675 5.89285 22.5646 5.86164 24.1788C5.82151 25.7598 6.143 27.0832 6.82612 28.1492C7.07464 28.5822 7.40903 28.903 7.82928 29.1115C8.24954 29.3201 8.72475 29.4247 9.25492 29.4254C9.7851 29.4261 10.3194 29.3186 10.8579 29.103C11.4272 28.879 11.9499 28.5427 12.4259 28.094Z" fill="black"/>
<path d="M43.0113 18.1857C43.0993 18.0194 43.2404 17.928 43.4348 17.9117C43.66 17.887 43.8832 17.9164 44.1043 17.9999C44.3254 18.0834 44.5136 18.2292 44.6688 18.4375C44.815 18.6124 44.8575 18.833 44.7964 19.0992C44.7425 20.5053 44.5187 21.957 44.1249 23.4543C43.7531 24.91 43.2553 26.3281 42.6315 27.7086C42.0077 29.089 41.3107 30.382 40.5406 31.5876C39.7705 32.7931 38.9713 33.8281 38.1429 34.6924C37.7507 35.083 37.283 35.3153 36.7397 35.3895C36.1965 35.4637 35.631 35.4547 35.0431 35.3624C34.4464 35.2368 33.887 35.0655 33.3651 34.8485C32.8432 34.6315 32.4031 34.4104 32.0446 34.1853C31.279 33.6767 30.7181 32.8813 30.3619 31.7991C29.9967 30.6836 29.7947 29.4352 29.7558 28.0539C29.686 26.6809 29.7574 25.2165 29.9699 23.6607C30.1824 22.105 30.479 20.6159 30.8597 19.1935C31.2714 17.7628 31.7541 16.4737 32.3078 15.3261C32.8615 14.1785 33.4358 13.2931 34.0307 12.6698C34.4009 12.3208 34.7715 12.0966 35.1423 11.9972C35.5043 11.8646 35.9084 11.8276 36.3548 11.8865C36.7923 11.912 37.252 12.0207 37.7341 12.2128C38.2381 12.3632 38.7975 12.5345 39.4121 12.7267C40.2876 13.0273 40.7971 13.5689 40.9405 14.3512C41.0386 14.7175 41.0735 15.404 41.0452 16.4108C41.0477 17.4093 40.94 18.4909 40.7221 19.6556C40.5262 20.7786 40.1932 21.8849 39.7233 22.9743C39.2753 24.0222 38.6588 24.8119 37.8738 25.3434C37.3003 25.6755 36.7728 25.8704 36.2914 25.928C35.8099 25.9856 35.2554 25.9558 34.6277 25.8385C34.5624 26.2129 34.5263 26.7578 34.5192 27.4734C34.5033 28.1557 34.5382 28.8422 34.6239 29.533C34.7096 30.2238 34.8393 30.8314 35.013 31.3558C35.1777 31.8469 35.439 32.0803 35.7968 32.0558C36.318 32.0232 36.9376 31.5538 37.6554 30.6478C38.4041 29.7334 39.1302 28.611 39.8337 27.2806C40.5283 25.9168 41.1717 24.4241 41.764 22.8022C42.3563 21.1804 42.7721 19.6416 43.0113 18.1857ZM37.3852 15.7321C37.1386 16.048 36.8573 16.6051 36.5413 17.4035C36.2472 18.1603 35.9665 18.9671 35.6992 19.8238C35.4628 20.6722 35.2593 21.4583 35.0889 22.182C34.9493 22.8974 34.9019 23.3384 34.9465 23.5049C35.5295 23.4557 35.9904 23.1359 36.3291 22.5456C36.6987 21.947 36.9752 21.2483 37.1587 20.4498C37.3642 19.6096 37.4681 18.761 37.4703 17.904C37.5035 17.0386 37.4751 16.3147 37.3852 15.7321Z" fill="black"/>
<path d="M49.9906 45.4888C50.1321 45.5223 50.2536 45.5433 50.3553 45.5517C50.4569 45.5602 50.563 45.5853 50.6736 45.627C50.7931 45.7021 50.8926 45.7646 50.9723 45.8146C51.0828 45.8564 51.1779 45.9023 51.2576 45.9523C51.3949 46.0939 51.4571 46.2022 51.444 46.277C51.2742 47.2504 51.0693 48.3402 50.8294 49.5464C50.6204 50.7443 50.3455 52.067 50.0046 53.5144C49.2919 56.4175 48.3606 58.5049 47.2107 59.7765C46.7876 60.1754 46.1454 60.4367 45.2842 60.5604C44.8866 60.5598 44.5 60.5385 44.1243 60.4965C43.7796 60.4461 43.406 60.3499 43.0036 60.2079C42.2873 60.0073 41.8159 59.6697 41.5894 59.1951C41.1988 58.479 40.9638 57.293 40.8844 55.637C40.8338 54.8298 40.803 54.0351 40.7922 53.2529C40.8033 52.4291 40.8145 51.6054 40.8256 50.7816C40.8677 49.9496 40.9166 49.2049 40.9723 48.5476C41.0501 47.8488 41.1192 47.2414 41.1797 46.7256C40.74 47.5571 40.3117 48.4927 39.8946 49.5323C39.4995 50.5303 39.1446 51.6781 38.8298 52.9758C38.4752 54.2484 38.1804 55.5586 37.9452 56.9063C37.741 58.2457 37.5921 59.606 37.4984 60.9872C37.486 61.3117 37.2236 61.5069 36.7113 61.5728C36.2786 61.6887 35.755 61.6506 35.1404 61.4584C34.6274 61.2747 34.2731 60.9414 34.0774 60.4585C33.899 59.7926 33.7749 58.7731 33.7051 57.4001C33.6723 56.6595 33.6285 55.9397 33.5737 55.2406C33.5498 54.5333 33.5303 53.8426 33.5153 53.1686C33.4914 52.4613 33.4878 51.8913 33.5043 51.4587C33.5209 51.026 33.5333 50.7015 33.5416 50.4851C32.935 51.6826 32.2622 53.8077 31.5234 56.8606C31.0856 58.441 30.6898 59.9923 30.3358 61.5146C30.0038 62.9953 29.6918 64.4885 29.3996 65.9943C29.3034 66.3769 28.9572 66.6302 28.3611 66.7543C28.0342 66.7705 27.7382 66.7784 27.4731 66.7781C27.1682 66.7528 26.8698 66.69 26.578 66.5897C26.0121 66.4559 25.6403 66.1808 25.4625 65.7645C25.0234 63.3841 24.874 60.2303 25.0141 56.303C25.1106 54.3144 25.2432 52.5838 25.4117 51.1112C25.6111 49.6303 25.873 48.3825 26.1974 47.3678C26.2805 47.06 26.5628 46.8773 27.0442 46.8197C27.2475 46.8366 27.4663 46.8494 27.7004 46.858C27.9346 46.8666 28.1777 46.9085 28.4297 46.9837C28.6907 47.0922 28.9163 47.1924 29.1065 47.2842C29.3276 47.3677 29.5223 47.4761 29.6905 47.6094C30.0579 47.8679 30.2264 48.126 30.1961 48.3839C30.0381 48.7832 29.8979 49.2489 29.7756 49.7813C29.6532 50.3137 29.5113 50.9584 29.3498 51.7154C29.0528 53.0797 28.8338 54.6728 28.6927 56.495C28.8459 55.9543 29.0232 55.318 29.2246 54.586C29.4479 53.8124 29.6998 52.9598 29.9802 52.0283C30.2605 51.0967 30.5454 50.1817 30.8347 49.2834C31.115 48.3519 31.4242 47.4661 31.7623 46.6261C32.288 44.8794 32.804 43.6527 33.3102 42.946C33.6008 42.547 34.0356 42.377 34.6145 42.436C34.9105 42.4281 35.2044 42.4742 35.4962 42.5744C35.8101 42.6331 36.0909 42.7541 36.3388 42.9375C36.9802 43.2295 37.3125 43.6044 37.3358 44.0621C37.3227 44.137 37.3186 44.2451 37.3234 44.3866C37.359 44.5198 37.3727 44.6945 37.3645 44.9109C37.3473 45.0939 37.3235 45.3144 37.2933 45.5723C37.285 45.7886 37.2657 46.0258 37.2354 46.2837C37.2408 46.6748 37.2264 47.0533 37.1919 47.4194C37.1884 47.7772 37.1959 48.1142 37.2144 48.4305C37.1587 49.0877 37.1641 49.4788 37.2307 49.6037C37.2746 49.5206 37.3097 49.4041 37.3358 49.2544C37.3929 49.0964 37.4719 48.8968 37.5729 48.6556C37.7612 47.9985 38.0023 47.2915 38.2964 46.5347C38.6125 45.7363 38.9636 44.8214 39.3497 43.7901C40.1488 41.8274 40.9072 40.393 41.6251 39.4869C42.3388 38.689 43.2267 38.6652 44.289 39.4155C44.6076 39.6156 44.8799 39.8281 45.1058 40.0531C45.3537 40.2365 45.5397 40.4364 45.664 40.6529C45.9743 41.0694 46.0532 41.6727 45.9006 42.463C45.7872 43.0287 45.6895 43.7151 45.6076 44.5221C45.5168 45.2958 45.4154 46.2152 45.3032 47.2801C45.222 48.3368 45.1363 49.3768 45.0461 50.4001C44.978 51.3819 44.9297 52.3762 44.9013 53.383C44.8137 55.4049 44.8615 56.8195 45.0448 57.6269C46.1596 56.4717 47.0211 54.7421 47.6293 52.4379C47.9798 51.2735 48.2773 50.1588 48.522 49.0941C48.7976 48.021 49.0467 46.9729 49.2694 45.9497L49.2427 45.8498L49.9906 45.4888Z" fill="black"/>
<path d="M49.3203 25.2204C49.2738 24.305 49.641 23.6357 50.4219 23.2123C51.141 22.8055 51.9449 22.715 52.8335 22.9408C53.7352 23.0918 54.2666 23.5917 54.4279 24.4407C54.5849 25.3978 54.5174 26.6292 54.2252 28.1349C54.0946 28.8836 53.9486 29.6365 53.787 30.3935C53.6255 31.1505 53.4485 31.9116 53.2561 32.6769C53.0547 33.4089 52.8664 34.066 52.6912 34.6483C52.507 35.1972 52.3469 35.6505 52.2109 36.0081C52.022 36.4156 51.7596 36.6108 51.4238 36.5937C50.9952 36.6015 50.6326 36.4845 50.336 36.2429C50.0215 35.9346 49.9014 35.6099 49.9756 35.2688C50.1372 34.5118 50.2544 33.7132 50.3274 32.8728C50.3914 31.9992 50.44 31.1297 50.4731 30.2644C50.4377 28.5253 50.0535 26.8439 49.3203 25.2204Z" fill="black"/>
<path d="M67.8008 39.7531C67.8888 39.5868 68.0299 39.4954 68.2243 39.479C68.4495 39.4544 68.6727 39.4838 68.8939 39.5673C69.115 39.6508 69.3031 39.7966 69.4583 40.0048C69.6045 40.1798 69.6471 40.4003 69.5859 40.6665C69.5321 42.0727 69.3082 43.5244 68.9145 45.0217C68.5426 46.4774 68.0448 47.8955 67.421 49.2759C66.7971 50.6564 66.1002 51.9494 65.3301 53.155C64.56 54.3605 63.7608 55.3955 62.9324 56.2598C62.5402 56.6503 62.0725 56.8827 61.5292 56.9569C60.986 57.0311 60.4205 57.0221 59.8326 56.9298C59.2358 56.8042 58.6765 56.6329 58.1546 56.4159C57.6327 56.1988 57.1926 55.9778 56.8341 55.7526C56.0685 55.2441 55.5076 54.4487 55.1513 53.3665C54.7862 52.251 54.5842 51.0026 54.5453 49.6213C54.4755 48.2482 54.5469 46.7838 54.7594 45.2281C54.9719 43.6723 55.2685 42.1833 55.6492 40.7609C56.0609 39.3302 56.5436 38.0411 57.0973 36.8935C57.651 35.7459 58.2253 34.8605 58.8202 34.2372C59.1904 33.8882 59.561 33.664 59.9318 33.5646C60.2938 33.4319 60.6979 33.395 61.1443 33.4538C61.5818 33.4794 62.0415 33.5881 62.5236 33.7801C63.0276 33.9306 63.587 34.1019 64.2016 34.294C65.0771 34.5947 65.5866 35.1362 65.73 35.9186C65.8281 36.2848 65.863 36.9714 65.8347 37.9782C65.8372 38.9767 65.7295 40.0583 65.5116 41.2229C65.3157 42.346 64.9827 43.4523 64.5128 44.5417C64.0648 45.5896 63.4483 46.3793 62.6633 46.9108C62.0898 47.2429 61.5623 47.4378 61.0809 47.4954C60.5994 47.553 60.0449 47.5232 59.4172 47.4059C59.3519 47.7802 59.3158 48.3252 59.3087 49.0408C59.2928 49.7231 59.3277 50.4096 59.4134 51.1004C59.4991 51.7911 59.6288 52.3987 59.8025 52.9232C59.9672 53.4143 60.2285 53.6477 60.5863 53.6232C61.1075 53.5905 61.7271 53.1212 62.4449 52.2151C63.1936 51.3008 63.9197 50.1784 64.6232 48.848C65.3178 47.4842 65.9612 45.9914 66.5535 44.3696C67.1458 42.7478 67.5616 41.2089 67.8008 39.7531ZM62.1747 37.2995C61.9281 37.6153 61.6468 38.1725 61.3307 38.9709C61.0367 39.7277 60.756 40.5345 60.4887 41.3912C60.2523 42.2396 60.0488 43.0257 59.8784 43.7494C59.7388 44.4648 59.6914 44.9058 59.736 45.0723C60.319 45.0231 60.7799 44.7033 61.1186 44.113C61.4882 43.5143 61.7647 42.8157 61.9482 42.0172C62.1537 41.177 62.2576 40.3284 62.2598 39.4713C62.293 38.606 62.2646 37.882 62.1747 37.2995Z" fill="black"/>
<path d="M84.0904 36.1377C84.1207 35.8798 84.2485 35.7385 84.4737 35.7138C84.7299 35.6809 84.984 35.702 85.236 35.7772C85.5189 35.8441 85.7644 35.9568 85.9725 36.1152C86.1716 36.2402 86.2691 36.3569 86.265 36.465C86.091 37.5465 85.8357 38.7569 85.4989 40.0961C85.193 41.4271 84.8165 42.7413 84.3691 44.0388C83.9438 45.2947 83.4608 46.4591 82.9201 47.5318C82.4103 48.5962 81.88 49.3985 81.3291 49.9386C80.9589 50.2876 80.4912 50.52 79.926 50.6358C79.3518 50.7182 78.7753 50.73 78.1964 50.671C77.6174 50.612 77.0825 50.4699 76.5915 50.2446C76.1005 50.0193 75.7795 49.7484 75.6285 49.432C75.3532 48.8991 75.148 48.1333 75.0129 47.1346C74.8778 46.1359 74.7891 45.1248 74.7467 44.1013C74.7352 43.0695 74.735 42.1417 74.7462 41.3179C74.7793 40.4526 74.811 39.891 74.8413 39.6331C74.3748 40.3647 73.898 41.3668 73.4109 42.6392C72.9237 43.9117 72.4544 45.2508 72.003 46.6565C71.5824 48.0538 71.2037 49.4222 70.867 50.7614C70.5611 52.0924 70.3408 53.1863 70.206 54.0432C70.1318 54.3842 69.8673 54.6335 69.4127 54.791C68.9491 54.9152 68.4632 54.9562 67.955 54.914C67.4468 54.8717 66.9826 54.7463 66.5624 54.5377C66.1112 54.3374 65.8918 54.075 65.9043 53.7505C65.8756 52.9018 65.8727 51.7784 65.8956 50.3805C65.9096 48.9493 65.9587 47.4017 66.0428 45.7376C66.118 44.0402 66.246 42.293 66.427 40.4959C66.6079 38.6988 66.8819 37.0017 67.249 35.4045C67.3404 34.8804 67.6179 34.5563 68.0815 34.432C68.576 34.2996 69.0862 34.2877 69.6123 34.3966C70.1383 34.5054 70.5895 34.7057 70.9658 34.9974C71.373 35.2809 71.5659 35.5682 71.5445 35.8594C71.4228 36.6414 71.2747 37.4484 71.1001 38.2802C70.9475 39.0705 70.7859 39.8275 70.6155 40.5512C70.467 41.2334 70.3316 41.8406 70.2093 42.373C70.1178 42.8971 70.079 43.2465 70.0927 43.4213C70.382 42.523 70.7022 41.6164 71.0533 40.7016C71.4353 39.7784 71.8152 38.9094 72.1931 38.0944C72.6019 37.2712 73.0285 36.5145 73.4729 35.8244C73.9174 35.1344 74.3687 34.5317 74.8269 34.0164C75.1353 33.6839 75.5656 33.4973 76.1177 33.4564C76.7008 33.4072 77.2643 33.4703 77.8081 33.6458C78.352 33.8212 78.8056 34.0922 79.1688 34.4588C79.554 34.7838 79.7229 35.1668 79.6754 35.6078C79.6066 36.3399 79.5051 37.2593 79.371 38.3658C79.2279 39.439 79.1182 40.5747 79.0417 41.7728C78.9563 42.9376 78.9084 44.0567 78.8979 45.1301C78.8874 46.2035 78.9758 47.0898 79.1632 47.789C79.6522 47.2654 80.1475 46.5796 80.649 45.7315C81.1505 44.8834 81.6098 43.9396 82.0268 42.9C82.4748 41.8521 82.874 40.746 83.2245 39.5815C83.5749 38.417 83.8636 37.2691 84.0904 36.1377Z" fill="black"/>
<path d="M87.4309 26.3568C87.9158 25.9414 88.5429 25.8091 89.312 25.9598C90.1032 26.069 90.8596 26.4195 91.5812 27.0112C92.3029 27.6029 92.9301 28.3984 93.4628 29.3976C93.9866 30.3635 94.2457 31.4539 94.24 32.6687C94.2212 33.9585 94.088 35.4394 93.8405 37.1116C93.584 38.7505 93.2458 40.3935 92.8259 42.0405C92.4279 43.6459 91.9678 45.1431 91.4456 46.5321C90.9543 47.9127 90.4401 48.9605 89.9029 49.6754C89.6123 50.0744 89.1669 50.39 88.5666 50.6223C87.9575 50.8212 87.326 50.9369 86.6722 50.9693C86.0404 50.9602 85.4436 50.8346 84.8819 50.5925C84.3202 50.3505 83.9216 49.9756 83.6861 49.4677C83.4328 48.8932 83.2122 48.1315 83.0242 47.1827C82.8362 46.2339 82.6921 45.2019 82.5921 44.0867C82.4522 42.9466 82.3742 41.7899 82.3579 40.6166C82.3107 39.4516 82.3013 38.3657 82.3297 37.3589C82.3182 36.3271 82.3513 35.4617 82.429 34.7629C82.4979 34.0307 82.5982 33.5399 82.7301 33.2905C82.884 32.9994 83.1862 32.8292 83.6367 32.7799C84.0783 32.6972 84.5268 32.702 84.9821 32.7941C85.4374 32.8862 85.8442 33.0449 86.2027 33.27C86.5522 33.4618 86.7118 33.6867 86.6816 33.9446C86.5901 34.4687 86.5306 35.359 86.5029 36.6154C86.4662 37.8385 86.4519 39.1449 86.4599 40.5345C86.4988 41.9159 86.5552 43.239 86.6291 44.5038C86.7339 45.7604 86.8776 46.6676 87.0602 47.2254C87.2058 47.1507 87.4696 46.6517 87.8516 45.7286C88.2336 44.8055 88.6239 43.666 89.0225 42.3102C89.4122 40.9211 89.7507 39.403 90.0381 37.7558C90.3563 36.1003 90.4937 34.5112 90.45 32.9884C90.4373 31.4573 90.204 30.0924 89.7503 28.8936C89.2966 27.6947 88.5234 26.8492 87.4309 26.3568Z" fill="black"/>
<path d="M109.82 35.6134C110.058 35.5139 110.255 35.5682 110.41 35.7764C110.587 35.9431 110.716 36.1762 110.796 36.4759C110.868 36.7422 110.873 37.0085 110.812 37.2747C110.781 37.5326 110.689 37.6823 110.535 37.7237C109.85 38.014 109.195 38.2254 108.568 38.3577C107.941 38.49 107.17 38.5182 106.255 38.4421C106.19 38.8165 106.114 39.3364 106.027 40.002C105.932 40.6343 105.783 41.3164 105.582 42.0484C105.403 42.7388 105.146 43.4499 104.812 44.1817C104.5 44.8719 104.095 45.4622 103.597 45.9525C103.183 46.3847 102.576 46.6543 101.777 46.7614C100.999 46.827 100.175 46.7802 99.3045 46.621C98.4646 46.4535 97.6752 46.1654 96.9363 45.7567C96.1975 45.348 95.6616 44.8314 95.3286 44.2069C94.8405 43.3742 94.5309 42.4044 94.4 41.2975C94.269 40.1907 94.2397 39.0923 94.312 38.0023C94.3754 36.8791 94.5428 35.835 94.8143 34.8701C95.0459 33.8802 95.3201 33.1109 95.6368 32.5621C95.7467 32.3542 95.8765 32.1589 96.0263 31.976C96.176 31.7931 96.3058 31.5977 96.4158 31.3899C96.1048 30.7238 95.8402 30.0453 95.6219 29.3544C95.3947 28.6301 95.3619 27.8895 95.5234 27.1325C95.6589 26.5253 96.1414 26.0391 96.9711 25.6741C97.8227 25.2674 98.7677 25.0856 99.8061 25.1285C100.875 25.1632 101.919 25.4724 102.936 26.0562C103.954 26.64 104.719 27.5771 105.23 28.8675C105.715 30.058 106.016 31.2441 106.134 32.4259C106.283 33.5993 106.394 34.8185 106.468 36.0834C106.8 36.2086 107.288 36.2384 107.933 36.1726C108.609 36.0986 109.238 35.9122 109.82 35.6134ZM99.584 44.512C100.584 43.4232 101.224 42.2882 101.504 41.107C101.814 39.9175 102.03 38.6821 102.15 37.4008C100.855 36.8916 99.748 36.0997 98.8307 35.0251C98.7208 35.233 98.6404 35.7363 98.5894 36.535C98.5384 37.3338 98.5187 38.2491 98.5302 39.2809C98.5636 40.2711 98.6633 41.2614 98.8294 42.2518C98.9864 43.209 99.238 43.9623 99.584 44.512ZM102.083 34.3678C102.144 33.8519 102.12 33.2694 102.012 32.6203C101.896 31.9378 101.722 31.2885 101.49 30.6725C101.281 30.0149 101.048 29.4529 100.79 28.9866C100.555 28.4787 100.344 28.1248 100.158 27.9248C99.8418 28.7232 99.8553 29.701 100.199 30.858C100.573 32.0068 101.201 33.1767 102.083 34.3678Z" fill="black"/>
<path d="M116.643 48.345C116.528 48.4114 116.358 48.457 116.133 48.4816C115.948 48.5313 115.696 48.5809 115.378 48.6304C114.791 48.7878 113.907 48.5786 112.726 48.003C111.553 47.4606 110.535 46.3775 109.669 44.7538C109.593 44.5956 109.529 44.4167 109.475 44.2169C109.391 44.0254 109.322 43.8298 109.268 43.63C108.876 42.4146 108.596 40.9373 108.429 39.198C108.23 37.467 108.158 35.4698 108.214 33.2066C108.24 30.9517 108.373 28.6677 108.614 26.3548C108.847 24.0086 109.172 21.6375 109.59 19.2416C110.017 16.879 110.487 14.8618 111 13.1899C111.534 11.4765 112.096 10.1126 112.686 9.09819C112.888 8.86547 113.098 8.72012 113.314 8.66215C113.561 8.5959 113.873 8.58382 114.248 8.62592C114.655 8.65972 115.124 8.80178 115.654 9.0521L115.973 9.1274C116.95 9.43653 117.541 9.84918 117.745 10.3654C117.821 10.5235 117.782 10.7482 117.628 11.0392C116.418 13.0763 115.415 15.7002 114.619 18.9111C113.863 22.147 113.37 25.4373 113.14 28.782C112.848 32.1433 112.854 35.3178 113.158 38.3054C113.331 40.4358 113.659 42.2752 114.14 43.8235C114.242 44.0816 114.367 44.4229 114.514 44.8475C114.682 45.2304 114.889 45.6925 115.133 46.2337C115.684 47.2995 116.644 47.6668 118.012 47.3358C117.687 47.8513 117.23 48.1877 116.643 48.345Z" fill="black"/>
<path d="M126.853 23.93C126.941 23.7637 127.082 23.6724 127.277 23.656C127.502 23.6313 127.725 23.6607 127.946 23.7442C128.167 23.8277 128.356 23.9736 128.511 24.1818C128.657 24.3567 128.7 24.5773 128.638 24.8435C128.585 26.2496 128.361 27.7014 127.967 29.1986C127.595 30.6543 127.097 32.0724 126.473 33.4529C125.85 34.8334 125.153 36.1264 124.383 37.3319C123.613 38.5375 122.813 39.5724 121.985 40.4367C121.593 40.8273 121.125 41.0597 120.582 41.1338C120.038 41.208 119.473 41.199 118.885 41.1067C118.288 40.9811 117.729 40.8098 117.207 40.5928C116.685 40.3758 116.245 40.1547 115.887 39.9296C115.121 39.421 114.56 38.6256 114.204 37.5434C113.839 36.428 113.637 35.1796 113.598 33.7982C113.528 32.4252 113.599 30.9608 113.812 29.405C114.024 27.8493 114.321 26.3602 114.702 24.9378C115.113 23.5071 115.596 22.218 116.15 21.0704C116.704 19.9229 117.278 19.0374 117.873 18.4141C118.243 18.0651 118.613 17.8409 118.984 17.7415C119.346 17.6089 119.75 17.5719 120.197 17.6308C120.634 17.6563 121.094 17.7651 121.576 17.9571C122.08 18.1075 122.639 18.2788 123.254 18.471C124.13 18.7717 124.639 19.3132 124.782 20.0955C124.881 20.4618 124.915 21.1483 124.887 22.1551C124.89 23.1536 124.782 24.2352 124.564 25.3999C124.368 26.523 124.035 27.6292 123.565 28.7187C123.117 29.7665 122.501 30.5562 121.716 31.0877C121.142 31.4198 120.615 31.6147 120.133 31.6723C119.652 31.73 119.097 31.7001 118.47 31.5828C118.404 31.9572 118.368 32.5022 118.361 33.2177C118.345 33.9 118.38 34.5866 118.466 35.2773C118.552 35.9681 118.681 36.5757 118.855 37.1001C119.02 37.5913 119.281 37.8246 119.639 37.8001C120.16 37.7675 120.78 37.2981 121.497 36.3921C122.246 35.4777 122.972 34.3553 123.676 33.0249C124.37 31.6612 125.014 30.1684 125.606 28.5465C126.198 26.9247 126.614 25.3859 126.853 23.93ZM121.227 21.4764C120.981 21.7923 120.699 22.3494 120.383 23.1478C120.089 23.9046 119.808 24.7114 119.541 25.5681C119.305 26.4166 119.101 27.2026 118.931 27.9263C118.791 28.6418 118.744 29.0827 118.788 29.2492C119.372 29.2 119.832 28.8803 120.171 28.2899C120.541 27.6913 120.817 26.9927 121.001 26.1941C121.206 25.3539 121.31 24.5053 121.312 23.6483C121.345 22.7829 121.317 22.059 121.227 21.4764Z" fill="black"/>
<path d="M128.645 34.2627C129.093 32.9652 129.685 32.1463 130.422 31.8061C131.128 31.4742 131.813 31.5583 132.477 32.0584C133.123 32.4919 133.52 33.2954 133.669 34.4689C133.738 35.3427 133.645 36.0457 133.39 36.5779C133.157 37.0685 132.806 37.43 132.339 37.6624C131.346 38.0356 130.402 37.9137 129.508 37.2968C128.565 36.6216 128.278 35.6102 128.645 34.2627Z" fill="black"/>
</svg>
