<svg width="1280" height="1544" viewBox="0 0 1280 1544" fill="none" xmlns="http://www.w3.org/2000/svg">
<rect x="0.5" y="0.5" width="1279" height="1543" fill="white"/>
<g filter="url(#filter0_d_3_6)">
<path d="M288 325C288 322.239 290.239 320 293 320H628C630.761 320 633 322.239 633 325V735H288V325Z" fill="#968E8E"/>
<path d="M288.5 325C288.5 322.515 290.515 320.5 293 320.5H628C630.485 320.5 632.5 322.515 632.5 325V734.5H288.5V325Z" stroke="black"/>
</g>
<g filter="url(#filter1_d_3_6)">
<path d="M648 325C648 322.239 650.239 320 653 320H988C990.761 320 993 322.239 993 325V735H648V325Z" fill="#968E8E"/>
<path d="M648.5 325C648.5 322.515 650.515 320.5 653 320.5H988C990.485 320.5 992.5 322.515 992.5 325V734.5H648.5V325Z" stroke="black"/>
</g>
<g filter="url(#filter2_d_3_6)">
<path d="M287 755C287 752.239 289.239 750 292 750H627C629.761 750 632 752.239 632 755V1165H287V755Z" fill="#968E8E"/>
<path d="M287.5 755C287.5 752.515 289.515 750.5 292 750.5H627C629.485 750.5 631.5 752.515 631.5 755V1164.5H287.5V755Z" stroke="black"/>
</g>
<g filter="url(#filter3_d_3_6)">
<path d="M647 755C647 752.239 649.239 750 652 750H987C989.761 750 992 752.239 992 755V1165H647V755Z" fill="#968E8E"/>
<path d="M647.5 755C647.5 752.515 649.515 750.5 652 750.5H987C989.485 750.5 991.5 752.515 991.5 755V1164.5H647.5V755Z" stroke="black"/>
</g>
<g style="mix-blend-mode:hue">
<rect x="287" y="320" width="706" height="845" fill="#D9D9D9"/>
</g>
<rect x="537" y="241" width="206" height="24" fill="#D9D9D9"/>
<path d="M557.057 258V249.273H560.108C560.716 249.273 561.217 249.378 561.612 249.588C562.007 249.795 562.301 250.075 562.494 250.428C562.688 250.777 562.784 251.165 562.784 251.591C562.784 251.966 562.717 252.276 562.584 252.52C562.453 252.764 562.28 252.957 562.064 253.099C561.851 253.241 561.619 253.347 561.369 253.415V253.5C561.636 253.517 561.905 253.611 562.175 253.781C562.445 253.952 562.67 254.196 562.852 254.514C563.034 254.832 563.125 255.222 563.125 255.682C563.125 256.119 563.026 256.513 562.827 256.862C562.628 257.212 562.314 257.489 561.885 257.693C561.456 257.898 560.898 258 560.21 258H557.057ZM558.114 257.062H560.21C560.901 257.062 561.391 256.929 561.68 256.662C561.973 256.392 562.119 256.065 562.119 255.682C562.119 255.386 562.044 255.114 561.893 254.864C561.743 254.611 561.528 254.409 561.25 254.259C560.972 254.105 560.642 254.028 560.261 254.028H558.114V257.062ZM558.114 253.108H560.074C560.392 253.108 560.679 253.045 560.935 252.92C561.193 252.795 561.398 252.619 561.548 252.392C561.702 252.165 561.778 251.898 561.778 251.591C561.778 251.207 561.645 250.882 561.378 250.615C561.111 250.345 560.688 250.21 560.108 250.21H558.114V253.108ZM565.731 249.273V258H564.725V249.273H565.731ZM570.232 258.136C569.641 258.136 569.123 257.996 568.676 257.714C568.233 257.433 567.887 257.04 567.637 256.534C567.39 256.028 567.266 255.437 567.266 254.761C567.266 254.08 567.39 253.484 567.637 252.976C567.887 252.467 568.233 252.072 568.676 251.791C569.123 251.51 569.641 251.369 570.232 251.369C570.823 251.369 571.34 251.51 571.783 251.791C572.229 252.072 572.576 252.467 572.823 252.976C573.073 253.484 573.198 254.08 573.198 254.761C573.198 255.437 573.073 256.028 572.823 256.534C572.576 257.04 572.229 257.433 571.783 257.714C571.34 257.996 570.823 258.136 570.232 258.136ZM570.232 257.233C570.681 257.233 571.05 257.118 571.34 256.888C571.63 256.658 571.844 256.355 571.983 255.98C572.123 255.605 572.192 255.199 572.192 254.761C572.192 254.324 572.123 253.916 571.983 253.538C571.844 253.161 571.63 252.855 571.34 252.622C571.05 252.389 570.681 252.273 570.232 252.273C569.783 252.273 569.414 252.389 569.124 252.622C568.834 252.855 568.62 253.161 568.48 253.538C568.341 253.916 568.272 254.324 568.272 254.761C568.272 255.199 568.341 255.605 568.48 255.98C568.62 256.355 568.834 256.658 569.124 256.888C569.414 257.118 569.783 257.233 570.232 257.233ZM577.375 260.591C576.889 260.591 576.472 260.528 576.122 260.403C575.773 260.281 575.482 260.119 575.249 259.918C575.018 259.719 574.835 259.506 574.699 259.278L575.5 258.716C575.591 258.835 575.706 258.972 575.845 259.125C575.984 259.281 576.175 259.416 576.416 259.53C576.661 259.646 576.98 259.705 577.375 259.705C577.903 259.705 578.339 259.577 578.683 259.321C579.027 259.065 579.199 258.665 579.199 258.119V256.79H579.114C579.04 256.909 578.935 257.057 578.798 257.233C578.665 257.406 578.472 257.561 578.219 257.697C577.969 257.831 577.631 257.898 577.205 257.898C576.676 257.898 576.202 257.773 575.781 257.523C575.364 257.273 575.033 256.909 574.788 256.432C574.547 255.955 574.426 255.375 574.426 254.693C574.426 254.023 574.544 253.439 574.78 252.942C575.016 252.442 575.344 252.055 575.764 251.783C576.185 251.507 576.67 251.369 577.222 251.369C577.648 251.369 577.986 251.44 578.236 251.582C578.489 251.722 578.682 251.881 578.815 252.06C578.952 252.236 579.057 252.381 579.131 252.494H579.233V251.455H580.205V258.188C580.205 258.75 580.077 259.207 579.821 259.56C579.568 259.915 579.227 260.175 578.798 260.339C578.372 260.507 577.898 260.591 577.375 260.591ZM577.341 256.994C577.744 256.994 578.085 256.902 578.364 256.717C578.642 256.533 578.854 256.267 578.999 255.92C579.143 255.574 579.216 255.159 579.216 254.676C579.216 254.205 579.145 253.788 579.003 253.428C578.861 253.067 578.651 252.784 578.372 252.58C578.094 252.375 577.75 252.273 577.341 252.273C576.915 252.273 576.56 252.381 576.276 252.597C575.994 252.812 575.783 253.102 575.641 253.466C575.501 253.83 575.432 254.233 575.432 254.676C575.432 255.131 575.503 255.533 575.645 255.882C575.79 256.229 576.003 256.501 576.284 256.7C576.568 256.896 576.92 256.994 577.341 256.994ZM592.665 258H591.557L594.761 249.273H595.852L599.057 258H597.949L595.341 250.653H595.273L592.665 258ZM593.074 254.591H597.54V255.528H593.074V254.591ZM603.655 260.455V251.455H604.626V252.494H604.746C604.82 252.381 604.922 252.236 605.053 252.06C605.186 251.881 605.376 251.722 605.624 251.582C605.874 251.44 606.212 251.369 606.638 251.369C607.189 251.369 607.675 251.507 608.095 251.783C608.516 252.058 608.844 252.449 609.08 252.955C609.315 253.46 609.433 254.057 609.433 254.744C609.433 255.438 609.315 256.038 609.08 256.547C608.844 257.053 608.517 257.445 608.099 257.723C607.682 257.999 607.2 258.136 606.655 258.136C606.234 258.136 605.898 258.067 605.645 257.928C605.392 257.786 605.197 257.625 605.061 257.446C604.925 257.264 604.82 257.114 604.746 256.994H604.661V260.455H603.655ZM604.643 254.727C604.643 255.222 604.716 255.658 604.861 256.036C605.006 256.411 605.217 256.705 605.496 256.918C605.774 257.128 606.115 257.233 606.518 257.233C606.939 257.233 607.29 257.122 607.571 256.901C607.855 256.676 608.068 256.375 608.21 255.997C608.355 255.616 608.428 255.193 608.428 254.727C608.428 254.267 608.357 253.852 608.214 253.483C608.075 253.111 607.864 252.817 607.58 252.601C607.298 252.382 606.945 252.273 606.518 252.273C606.109 252.273 605.766 252.376 605.487 252.584C605.209 252.788 604.999 253.075 604.857 253.445C604.714 253.811 604.643 254.239 604.643 254.727ZM610.967 258V251.455H611.939V252.443H612.007C612.126 252.119 612.342 251.857 612.655 251.655C612.967 251.453 613.32 251.352 613.712 251.352C613.786 251.352 613.878 251.354 613.989 251.357C614.099 251.359 614.183 251.364 614.24 251.369V252.392C614.206 252.384 614.128 252.371 614.006 252.354C613.886 252.334 613.76 252.324 613.626 252.324C613.308 252.324 613.024 252.391 612.774 252.524C612.527 252.655 612.331 252.837 612.186 253.07C612.044 253.3 611.973 253.562 611.973 253.858V258H610.967ZM617.892 258.136C617.301 258.136 616.783 257.996 616.337 257.714C615.893 257.433 615.547 257.04 615.297 256.534C615.05 256.028 614.926 255.437 614.926 254.761C614.926 254.08 615.05 253.484 615.297 252.976C615.547 252.467 615.893 252.072 616.337 251.791C616.783 251.51 617.301 251.369 617.892 251.369C618.483 251.369 619 251.51 619.443 251.791C619.889 252.072 620.236 252.467 620.483 252.976C620.733 253.484 620.858 254.08 620.858 254.761C620.858 255.437 620.733 256.028 620.483 256.534C620.236 257.04 619.889 257.433 619.443 257.714C619 257.996 618.483 258.136 617.892 258.136ZM617.892 257.233C618.341 257.233 618.71 257.118 619 256.888C619.29 256.658 619.504 256.355 619.643 255.98C619.783 255.605 619.852 255.199 619.852 254.761C619.852 254.324 619.783 253.916 619.643 253.538C619.504 253.161 619.29 252.855 619 252.622C618.71 252.389 618.341 252.273 617.892 252.273C617.443 252.273 617.074 252.389 616.784 252.622C616.494 252.855 616.28 253.161 616.141 253.538C616.001 253.916 615.932 254.324 615.932 254.761C615.932 255.199 616.001 255.605 616.141 255.98C616.28 256.355 616.494 256.658 616.784 256.888C617.074 257.118 617.443 257.233 617.892 257.233ZM622.393 260.455V251.455H623.365V252.494H623.484C623.558 252.381 623.66 252.236 623.791 252.06C623.924 251.881 624.115 251.722 624.362 251.582C624.612 251.44 624.95 251.369 625.376 251.369C625.927 251.369 626.413 251.507 626.833 251.783C627.254 252.058 627.582 252.449 627.818 252.955C628.054 253.46 628.172 254.057 628.172 254.744C628.172 255.438 628.054 256.038 627.818 256.547C627.582 257.053 627.255 257.445 626.838 257.723C626.42 257.999 625.939 258.136 625.393 258.136C624.973 258.136 624.636 258.067 624.383 257.928C624.13 257.786 623.936 257.625 623.799 257.446C623.663 257.264 623.558 257.114 623.484 256.994H623.399V260.455H622.393ZM623.382 254.727C623.382 255.222 623.454 255.658 623.599 256.036C623.744 256.411 623.956 256.705 624.234 256.918C624.512 257.128 624.853 257.233 625.257 257.233C625.677 257.233 626.028 257.122 626.309 256.901C626.593 256.676 626.806 256.375 626.949 255.997C627.093 255.616 627.166 255.193 627.166 254.727C627.166 254.267 627.095 253.852 626.953 253.483C626.814 253.111 626.602 252.817 626.318 252.601C626.037 252.382 625.683 252.273 625.257 252.273C624.848 252.273 624.504 252.376 624.225 252.584C623.947 252.788 623.737 253.075 623.595 253.445C623.453 253.811 623.382 254.239 623.382 254.727ZM632.365 258.136C631.774 258.136 631.255 257.996 630.809 257.714C630.366 257.433 630.02 257.04 629.77 256.534C629.522 256.028 629.399 255.437 629.399 254.761C629.399 254.08 629.522 253.484 629.77 252.976C630.02 252.467 630.366 252.072 630.809 251.791C631.255 251.51 631.774 251.369 632.365 251.369C632.956 251.369 633.473 251.51 633.916 251.791C634.362 252.072 634.708 252.467 634.956 252.976C635.206 253.484 635.331 254.08 635.331 254.761C635.331 255.437 635.206 256.028 634.956 256.534C634.708 257.04 634.362 257.433 633.916 257.714C633.473 257.996 632.956 258.136 632.365 258.136ZM632.365 257.233C632.814 257.233 633.183 257.118 633.473 256.888C633.762 256.658 633.977 256.355 634.116 255.98C634.255 255.605 634.325 255.199 634.325 254.761C634.325 254.324 634.255 253.916 634.116 253.538C633.977 253.161 633.762 252.855 633.473 252.622C633.183 252.389 632.814 252.273 632.365 252.273C631.916 252.273 631.547 252.389 631.257 252.622C630.967 252.855 630.752 253.161 630.613 253.538C630.474 253.916 630.404 254.324 630.404 254.761C630.404 255.199 630.474 255.605 630.613 255.98C630.752 256.355 630.967 256.658 631.257 256.888C631.547 257.118 631.916 257.233 632.365 257.233ZM641.502 252.92L640.599 253.176C640.542 253.026 640.458 252.879 640.347 252.737C640.239 252.592 640.092 252.473 639.904 252.379C639.717 252.286 639.477 252.239 639.184 252.239C638.783 252.239 638.45 252.331 638.183 252.516C637.918 252.697 637.786 252.929 637.786 253.21C637.786 253.46 637.877 253.658 638.059 253.803C638.241 253.947 638.525 254.068 638.911 254.165L639.883 254.403C640.468 254.545 640.904 254.763 641.191 255.055C641.478 255.345 641.621 255.719 641.621 256.176C641.621 256.551 641.513 256.886 641.298 257.182C641.085 257.477 640.786 257.71 640.403 257.881C640.019 258.051 639.573 258.136 639.065 258.136C638.397 258.136 637.844 257.991 637.407 257.702C636.969 257.412 636.692 256.989 636.576 256.432L637.531 256.193C637.621 256.545 637.793 256.81 638.046 256.986C638.302 257.162 638.636 257.25 639.048 257.25C639.516 257.25 639.888 257.151 640.164 256.952C640.442 256.75 640.582 256.509 640.582 256.227C640.582 256 640.502 255.81 640.343 255.656C640.184 255.5 639.94 255.384 639.61 255.307L638.519 255.051C637.92 254.909 637.479 254.689 637.198 254.391C636.92 254.089 636.781 253.713 636.781 253.261C636.781 252.892 636.884 252.565 637.092 252.281C637.302 251.997 637.587 251.774 637.948 251.612C638.312 251.45 638.724 251.369 639.184 251.369C639.832 251.369 640.34 251.511 640.71 251.795C641.082 252.08 641.346 252.455 641.502 252.92ZM660.419 252H659.363C659.3 251.696 659.191 251.429 659.034 251.199C658.881 250.969 658.694 250.776 658.472 250.619C658.253 250.46 658.01 250.341 657.743 250.261C657.476 250.182 657.198 250.142 656.908 250.142C656.38 250.142 655.901 250.276 655.472 250.543C655.046 250.81 654.706 251.203 654.453 251.723C654.203 252.243 654.078 252.881 654.078 253.636C654.078 254.392 654.203 255.03 654.453 255.55C654.706 256.07 655.046 256.463 655.472 256.73C655.901 256.997 656.38 257.131 656.908 257.131C657.198 257.131 657.476 257.091 657.743 257.011C658.01 256.932 658.253 256.814 658.472 256.658C658.694 256.499 658.881 256.304 659.034 256.074C659.191 255.841 659.3 255.574 659.363 255.273H660.419C660.34 255.719 660.195 256.118 659.985 256.47C659.775 256.822 659.513 257.122 659.201 257.369C658.888 257.614 658.537 257.8 658.148 257.928C657.762 258.055 657.348 258.119 656.908 258.119C656.164 258.119 655.502 257.938 654.922 257.574C654.343 257.21 653.887 256.693 653.554 256.023C653.222 255.352 653.056 254.557 653.056 253.636C653.056 252.716 653.222 251.92 653.554 251.25C653.887 250.58 654.343 250.062 654.922 249.699C655.502 249.335 656.164 249.153 656.908 249.153C657.348 249.153 657.762 249.217 658.148 249.345C658.537 249.473 658.888 249.661 659.201 249.908C659.513 250.152 659.775 250.45 659.985 250.803C660.195 251.152 660.34 251.551 660.419 252ZM664.65 258.136C664.059 258.136 663.54 257.996 663.094 257.714C662.651 257.433 662.305 257.04 662.055 256.534C661.808 256.028 661.684 255.437 661.684 254.761C661.684 254.08 661.808 253.484 662.055 252.976C662.305 252.467 662.651 252.072 663.094 251.791C663.54 251.51 664.059 251.369 664.65 251.369C665.241 251.369 665.758 251.51 666.201 251.791C666.647 252.072 666.994 252.467 667.241 252.976C667.491 253.484 667.616 254.08 667.616 254.761C667.616 255.437 667.491 256.028 667.241 256.534C666.994 257.04 666.647 257.433 666.201 257.714C665.758 257.996 665.241 258.136 664.65 258.136ZM664.65 257.233C665.099 257.233 665.468 257.118 665.758 256.888C666.048 256.658 666.262 256.355 666.401 255.98C666.54 255.605 666.61 255.199 666.61 254.761C666.61 254.324 666.54 253.916 666.401 253.538C666.262 253.161 666.048 252.855 665.758 252.622C665.468 252.389 665.099 252.273 664.65 252.273C664.201 252.273 663.832 252.389 663.542 252.622C663.252 252.855 663.038 253.161 662.898 253.538C662.759 253.916 662.69 254.324 662.69 254.761C662.69 255.199 662.759 255.605 662.898 255.98C663.038 256.355 663.252 256.658 663.542 256.888C663.832 257.118 664.201 257.233 664.65 257.233ZM670.157 254.062V258H669.151V251.455H670.123V252.477H670.208C670.361 252.145 670.594 251.878 670.907 251.676C671.219 251.472 671.623 251.369 672.117 251.369C672.56 251.369 672.948 251.46 673.28 251.642C673.613 251.821 673.871 252.094 674.056 252.46C674.24 252.824 674.333 253.284 674.333 253.841V258H673.327V253.909C673.327 253.395 673.194 252.994 672.926 252.707C672.659 252.418 672.293 252.273 671.827 252.273C671.506 252.273 671.219 252.342 670.966 252.482C670.716 252.621 670.519 252.824 670.374 253.091C670.229 253.358 670.157 253.682 670.157 254.062ZM679.017 251.455V252.307H675.625V251.455H679.017ZM676.614 249.886H677.619V256.125C677.619 256.409 677.661 256.622 677.743 256.764C677.828 256.903 677.936 256.997 678.067 257.045C678.2 257.091 678.341 257.114 678.489 257.114C678.599 257.114 678.69 257.108 678.761 257.097C678.832 257.082 678.889 257.071 678.932 257.062L679.136 257.966C679.068 257.991 678.973 258.017 678.851 258.043C678.729 258.071 678.574 258.085 678.386 258.085C678.102 258.085 677.824 258.024 677.551 257.902C677.281 257.78 677.057 257.594 676.878 257.344C676.702 257.094 676.614 256.778 676.614 256.398V249.886ZM682.456 258.153C682.041 258.153 681.665 258.075 681.327 257.919C680.989 257.76 680.72 257.531 680.521 257.233C680.322 256.932 680.223 256.568 680.223 256.142C680.223 255.767 680.297 255.463 680.445 255.23C680.592 254.994 680.79 254.81 681.037 254.676C681.284 254.543 681.557 254.443 681.855 254.378C682.156 254.31 682.459 254.256 682.763 254.216C683.161 254.165 683.483 254.126 683.73 254.101C683.98 254.072 684.162 254.026 684.276 253.96C684.392 253.895 684.45 253.781 684.45 253.619V253.585C684.45 253.165 684.335 252.838 684.105 252.605C683.878 252.372 683.533 252.256 683.07 252.256C682.589 252.256 682.213 252.361 681.94 252.571C681.668 252.781 681.476 253.006 681.365 253.244L680.411 252.903C680.581 252.506 680.808 252.196 681.092 251.974C681.379 251.75 681.692 251.594 682.03 251.506C682.371 251.415 682.706 251.369 683.036 251.369C683.246 251.369 683.487 251.395 683.76 251.446C684.036 251.494 684.301 251.595 684.557 251.749C684.815 251.902 685.03 252.134 685.2 252.443C685.371 252.753 685.456 253.168 685.456 253.688V258H684.45V257.114H684.399C684.331 257.256 684.217 257.408 684.058 257.57C683.899 257.732 683.688 257.869 683.423 257.983C683.159 258.097 682.837 258.153 682.456 258.153ZM682.609 257.25C683.007 257.25 683.342 257.172 683.615 257.016C683.891 256.859 684.098 256.658 684.237 256.411C684.379 256.163 684.45 255.903 684.45 255.631V254.71C684.408 254.761 684.314 254.808 684.169 254.851C684.027 254.891 683.862 254.926 683.675 254.957C683.49 254.986 683.31 255.011 683.134 255.034C682.96 255.054 682.82 255.071 682.712 255.085C682.45 255.119 682.206 255.175 681.979 255.251C681.754 255.325 681.572 255.437 681.433 255.588C681.297 255.736 681.229 255.937 681.229 256.193C681.229 256.543 681.358 256.807 681.616 256.986C681.878 257.162 682.209 257.25 682.609 257.25ZM689.951 258.136C689.337 258.136 688.809 257.991 688.365 257.702C687.922 257.412 687.581 257.013 687.343 256.504C687.104 255.996 686.985 255.415 686.985 254.761C686.985 254.097 687.107 253.51 687.351 253.001C687.598 252.49 687.942 252.091 688.382 251.804C688.826 251.514 689.343 251.369 689.934 251.369C690.394 251.369 690.809 251.455 691.178 251.625C691.547 251.795 691.85 252.034 692.086 252.341C692.321 252.648 692.468 253.006 692.525 253.415H691.519C691.442 253.116 691.272 252.852 691.007 252.622C690.746 252.389 690.394 252.273 689.951 252.273C689.559 252.273 689.215 252.375 688.919 252.58C688.627 252.781 688.398 253.067 688.233 253.436C688.071 253.803 687.99 254.233 687.99 254.727C687.99 255.233 688.07 255.673 688.229 256.048C688.391 256.423 688.618 256.714 688.911 256.922C689.206 257.129 689.553 257.233 689.951 257.233C690.212 257.233 690.449 257.188 690.662 257.097C690.875 257.006 691.056 256.875 691.203 256.705C691.351 256.534 691.456 256.33 691.519 256.091H692.525C692.468 256.477 692.327 256.825 692.103 257.135C691.881 257.442 691.587 257.686 691.221 257.868C690.857 258.047 690.434 258.136 689.951 258.136ZM696.841 251.455V252.307H693.449V251.455H696.841ZM694.438 249.886H695.444V256.125C695.444 256.409 695.485 256.622 695.567 256.764C695.652 256.903 695.76 256.997 695.891 257.045C696.025 257.091 696.165 257.114 696.313 257.114C696.424 257.114 696.515 257.108 696.586 257.097C696.657 257.082 696.713 257.071 696.756 257.062L696.961 257.966C696.892 257.991 696.797 258.017 696.675 258.043C696.553 258.071 696.398 258.085 696.211 258.085C695.926 258.085 695.648 258.024 695.375 257.902C695.105 257.78 694.881 257.594 694.702 257.344C694.526 257.094 694.438 256.778 694.438 256.398V249.886Z" fill="black"/>
<ellipse cx="630.15" cy="140.11" rx="95.15" ry="49.86" transform="rotate(-15 630.15 140.11)" fill="#D9D9D9"/>
<path d="M605.057 152V143.273H606.114V151.062H610.17V152H605.057ZM618.831 147.636C618.831 148.557 618.664 149.352 618.332 150.023C618 150.693 617.544 151.21 616.964 151.574C616.385 151.938 615.723 152.119 614.978 152.119C614.234 152.119 613.572 151.938 612.993 151.574C612.413 151.21 611.957 150.693 611.625 150.023C611.292 149.352 611.126 148.557 611.126 147.636C611.126 146.716 611.292 145.92 611.625 145.25C611.957 144.58 612.413 144.062 612.993 143.699C613.572 143.335 614.234 143.153 614.978 143.153C615.723 143.153 616.385 143.335 616.964 143.699C617.544 144.062 618 144.58 618.332 145.25C618.664 145.92 618.831 146.716 618.831 147.636ZM617.808 147.636C617.808 146.881 617.681 146.243 617.429 145.723C617.179 145.203 616.839 144.81 616.41 144.543C615.984 144.276 615.507 144.142 614.978 144.142C614.45 144.142 613.971 144.276 613.542 144.543C613.116 144.81 612.777 145.203 612.524 145.723C612.274 146.243 612.149 146.881 612.149 147.636C612.149 148.392 612.274 149.03 612.524 149.55C612.777 150.07 613.116 150.463 613.542 150.73C613.971 150.997 614.45 151.131 614.978 151.131C615.507 151.131 615.984 150.997 616.41 150.73C616.839 150.463 617.179 150.07 617.429 149.55C617.681 149.03 617.808 148.392 617.808 147.636ZM626.574 146C626.48 145.713 626.356 145.456 626.203 145.229C626.052 144.999 625.872 144.803 625.662 144.641C625.454 144.479 625.218 144.355 624.954 144.27C624.69 144.185 624.4 144.142 624.085 144.142C623.568 144.142 623.098 144.276 622.674 144.543C622.251 144.81 621.914 145.203 621.664 145.723C621.414 146.243 621.289 146.881 621.289 147.636C621.289 148.392 621.416 149.03 621.669 149.55C621.922 150.07 622.264 150.463 622.696 150.73C623.127 150.997 623.613 151.131 624.153 151.131C624.653 151.131 625.093 151.024 625.474 150.811C625.858 150.595 626.156 150.291 626.369 149.899C626.585 149.504 626.693 149.04 626.693 148.506L627.017 148.574H624.392V147.636H627.716V148.574C627.716 149.293 627.562 149.918 627.255 150.449C626.951 150.98 626.531 151.392 625.994 151.685C625.46 151.974 624.846 152.119 624.153 152.119C623.38 152.119 622.701 151.938 622.116 151.574C621.534 151.21 621.079 150.693 620.752 150.023C620.429 149.352 620.267 148.557 620.267 147.636C620.267 146.946 620.359 146.325 620.544 145.774C620.731 145.22 620.995 144.749 621.336 144.359C621.677 143.97 622.081 143.672 622.547 143.464C623.012 143.257 623.525 143.153 624.085 143.153C624.545 143.153 624.974 143.223 625.372 143.362C625.772 143.499 626.129 143.693 626.441 143.946C626.757 144.196 627.02 144.496 627.23 144.845C627.44 145.192 627.585 145.577 627.664 146H626.574ZM636.889 147.636C636.889 148.557 636.723 149.352 636.391 150.023C636.058 150.693 635.602 151.21 635.023 151.574C634.443 151.938 633.781 152.119 633.037 152.119C632.293 152.119 631.631 151.938 631.051 151.574C630.472 151.21 630.016 150.693 629.683 150.023C629.351 149.352 629.185 148.557 629.185 147.636C629.185 146.716 629.351 145.92 629.683 145.25C630.016 144.58 630.472 144.062 631.051 143.699C631.631 143.335 632.293 143.153 633.037 143.153C633.781 143.153 634.443 143.335 635.023 143.699C635.602 144.062 636.058 144.58 636.391 145.25C636.723 145.92 636.889 146.716 636.889 147.636ZM635.866 147.636C635.866 146.881 635.74 146.243 635.487 145.723C635.237 145.203 634.898 144.81 634.469 144.543C634.043 144.276 633.565 144.142 633.037 144.142C632.509 144.142 632.03 144.276 631.601 144.543C631.175 144.81 630.835 145.203 630.582 145.723C630.332 146.243 630.207 146.881 630.207 147.636C630.207 148.392 630.332 149.03 630.582 149.55C630.835 150.07 631.175 150.463 631.601 150.73C632.03 150.997 632.509 151.131 633.037 151.131C633.565 151.131 634.043 150.997 634.469 150.73C634.898 150.463 635.237 150.07 635.487 149.55C635.74 149.03 635.866 148.392 635.866 147.636Z" fill="black"/>
<rect y="1244" width="1280" height="300" fill="#D9D9D9"/>
<ellipse cx="44.2879" cy="18.2509" rx="44.2879" ry="18.2509" transform="matrix(0.895272 -0.44552 0.566514 0.824052 281.554 1325.62)" fill="#5B5252"/>
<path d="M316.057 1325V1316.27H317.114V1324.06H321.17V1325H316.057ZM329.831 1320.64C329.831 1321.56 329.664 1322.35 329.332 1323.02C329 1323.69 328.544 1324.21 327.964 1324.57C327.385 1324.94 326.723 1325.12 325.978 1325.12C325.234 1325.12 324.572 1324.94 323.993 1324.57C323.413 1324.21 322.957 1323.69 322.625 1323.02C322.292 1322.35 322.126 1321.56 322.126 1320.64C322.126 1319.72 322.292 1318.92 322.625 1318.25C322.957 1317.58 323.413 1317.06 323.993 1316.7C324.572 1316.34 325.234 1316.15 325.978 1316.15C326.723 1316.15 327.385 1316.34 327.964 1316.7C328.544 1317.06 329 1317.58 329.332 1318.25C329.664 1318.92 329.831 1319.72 329.831 1320.64ZM328.808 1320.64C328.808 1319.88 328.681 1319.24 328.429 1318.72C328.179 1318.2 327.839 1317.81 327.41 1317.54C326.984 1317.28 326.507 1317.14 325.978 1317.14C325.45 1317.14 324.971 1317.28 324.542 1317.54C324.116 1317.81 323.777 1318.2 323.524 1318.72C323.274 1319.24 323.149 1319.88 323.149 1320.64C323.149 1321.39 323.274 1322.03 323.524 1322.55C323.777 1323.07 324.116 1323.46 324.542 1323.73C324.971 1324 325.45 1324.13 325.978 1324.13C326.507 1324.13 326.984 1324 327.41 1323.73C327.839 1323.46 328.179 1323.07 328.429 1322.55C328.681 1322.03 328.808 1321.39 328.808 1320.64ZM337.574 1319C337.48 1318.71 337.356 1318.46 337.203 1318.23C337.052 1318 336.872 1317.8 336.662 1317.64C336.454 1317.48 336.218 1317.36 335.954 1317.27C335.69 1317.18 335.4 1317.14 335.085 1317.14C334.568 1317.14 334.098 1317.28 333.674 1317.54C333.251 1317.81 332.914 1318.2 332.664 1318.72C332.414 1319.24 332.289 1319.88 332.289 1320.64C332.289 1321.39 332.416 1322.03 332.669 1322.55C332.922 1323.07 333.264 1323.46 333.696 1323.73C334.127 1324 334.613 1324.13 335.153 1324.13C335.653 1324.13 336.093 1324.02 336.474 1323.81C336.858 1323.6 337.156 1323.29 337.369 1322.9C337.585 1322.5 337.693 1322.04 337.693 1321.51L338.017 1321.57H335.392V1320.64H338.716V1321.57C338.716 1322.29 338.562 1322.92 338.255 1323.45C337.951 1323.98 337.531 1324.39 336.994 1324.68C336.46 1324.97 335.846 1325.12 335.153 1325.12C334.38 1325.12 333.701 1324.94 333.116 1324.57C332.534 1324.21 332.079 1323.69 331.752 1323.02C331.429 1322.35 331.267 1321.56 331.267 1320.64C331.267 1319.95 331.359 1319.33 331.544 1318.77C331.731 1318.22 331.995 1317.75 332.336 1317.36C332.677 1316.97 333.081 1316.67 333.547 1316.46C334.012 1316.26 334.525 1316.15 335.085 1316.15C335.545 1316.15 335.974 1316.22 336.372 1316.36C336.772 1316.5 337.129 1316.69 337.441 1316.95C337.757 1317.2 338.02 1317.5 338.23 1317.85C338.44 1318.19 338.585 1318.58 338.664 1319H337.574ZM347.889 1320.64C347.889 1321.56 347.723 1322.35 347.391 1323.02C347.058 1323.69 346.602 1324.21 346.023 1324.57C345.443 1324.94 344.781 1325.12 344.037 1325.12C343.293 1325.12 342.631 1324.94 342.051 1324.57C341.472 1324.21 341.016 1323.69 340.683 1323.02C340.351 1322.35 340.185 1321.56 340.185 1320.64C340.185 1319.72 340.351 1318.92 340.683 1318.25C341.016 1317.58 341.472 1317.06 342.051 1316.7C342.631 1316.34 343.293 1316.15 344.037 1316.15C344.781 1316.15 345.443 1316.34 346.023 1316.7C346.602 1317.06 347.058 1317.58 347.391 1318.25C347.723 1318.92 347.889 1319.72 347.889 1320.64ZM346.866 1320.64C346.866 1319.88 346.74 1319.24 346.487 1318.72C346.237 1318.2 345.898 1317.81 345.469 1317.54C345.043 1317.28 344.565 1317.14 344.037 1317.14C343.509 1317.14 343.03 1317.28 342.601 1317.54C342.175 1317.81 341.835 1318.2 341.582 1318.72C341.332 1319.24 341.207 1319.88 341.207 1320.64C341.207 1321.39 341.332 1322.03 341.582 1322.55C341.835 1323.07 342.175 1323.46 342.601 1323.73C343.03 1324 343.509 1324.13 344.037 1324.13C344.565 1324.13 345.043 1324 345.469 1323.73C345.898 1323.46 346.237 1323.07 346.487 1322.55C346.74 1322.03 346.866 1321.39 346.866 1320.64Z" fill="white"/>
<rect x="453" y="1301" width="120" height="196" fill="#5B5252"/>
<path d="M482.977 1347.27V1356H481.955L477.199 1349.15H477.114V1356H476.057V1347.27H477.08L481.852 1354.14H481.938V1347.27H482.977ZM486.882 1356.15C486.467 1356.15 486.091 1356.08 485.752 1355.92C485.414 1355.76 485.146 1355.53 484.947 1355.23C484.748 1354.93 484.649 1354.57 484.649 1354.14C484.649 1353.77 484.723 1353.46 484.87 1353.23C485.018 1352.99 485.216 1352.81 485.463 1352.68C485.71 1352.54 485.983 1352.44 486.281 1352.38C486.582 1352.31 486.885 1352.26 487.189 1352.22C487.586 1352.16 487.909 1352.13 488.156 1352.1C488.406 1352.07 488.588 1352.03 488.701 1351.96C488.818 1351.89 488.876 1351.78 488.876 1351.62V1351.59C488.876 1351.16 488.761 1350.84 488.531 1350.61C488.304 1350.37 487.958 1350.26 487.495 1350.26C487.015 1350.26 486.639 1350.36 486.366 1350.57C486.093 1350.78 485.902 1351.01 485.791 1351.24L484.836 1350.9C485.007 1350.51 485.234 1350.2 485.518 1349.97C485.805 1349.75 486.118 1349.59 486.456 1349.51C486.797 1349.41 487.132 1349.37 487.461 1349.37C487.672 1349.37 487.913 1349.39 488.186 1349.45C488.461 1349.49 488.727 1349.6 488.983 1349.75C489.241 1349.9 489.456 1350.13 489.626 1350.44C489.797 1350.75 489.882 1351.17 489.882 1351.69V1356H488.876V1355.11H488.825C488.757 1355.26 488.643 1355.41 488.484 1355.57C488.325 1355.73 488.113 1355.87 487.849 1355.98C487.585 1356.1 487.262 1356.15 486.882 1356.15ZM487.035 1355.25C487.433 1355.25 487.768 1355.17 488.041 1355.02C488.316 1354.86 488.524 1354.66 488.663 1354.41C488.805 1354.16 488.876 1353.9 488.876 1353.63V1352.71C488.833 1352.76 488.74 1352.81 488.595 1352.85C488.453 1352.89 488.288 1352.93 488.1 1352.96C487.916 1352.99 487.735 1353.01 487.559 1353.03C487.386 1353.05 487.245 1353.07 487.137 1353.09C486.876 1353.12 486.632 1353.17 486.404 1353.25C486.18 1353.33 485.998 1353.44 485.859 1353.59C485.723 1353.74 485.654 1353.94 485.654 1354.19C485.654 1354.54 485.784 1354.81 486.042 1354.99C486.304 1355.16 486.635 1355.25 487.035 1355.25ZM496.835 1349.45L494.415 1356H493.392L490.972 1349.45H492.062L493.869 1354.67H493.938L495.744 1349.45H496.835ZM498.163 1356V1349.45H499.168V1356H498.163ZM498.674 1348.36C498.478 1348.36 498.309 1348.3 498.167 1348.16C498.028 1348.03 497.958 1347.87 497.958 1347.68C497.958 1347.49 498.028 1347.33 498.167 1347.2C498.309 1347.07 498.478 1347 498.674 1347C498.87 1347 499.038 1347.07 499.177 1347.2C499.319 1347.33 499.39 1347.49 499.39 1347.68C499.39 1347.87 499.319 1348.03 499.177 1348.16C499.038 1348.3 498.87 1348.36 498.674 1348.36ZM503.652 1358.59C503.167 1358.59 502.749 1358.53 502.4 1358.4C502.05 1358.28 501.759 1358.12 501.526 1357.92C501.296 1357.72 501.113 1357.51 500.976 1357.28L501.777 1356.72C501.868 1356.84 501.983 1356.97 502.123 1357.12C502.262 1357.28 502.452 1357.42 502.694 1357.53C502.938 1357.65 503.257 1357.7 503.652 1357.7C504.181 1357.7 504.617 1357.58 504.961 1357.32C505.304 1357.07 505.476 1356.66 505.476 1356.12V1354.79H505.391C505.317 1354.91 505.212 1355.06 505.076 1355.23C504.942 1355.41 504.749 1355.56 504.496 1355.7C504.246 1355.83 503.908 1355.9 503.482 1355.9C502.953 1355.9 502.479 1355.77 502.059 1355.52C501.641 1355.27 501.31 1354.91 501.066 1354.43C500.824 1353.95 500.703 1353.37 500.703 1352.69C500.703 1352.02 500.821 1351.44 501.057 1350.94C501.293 1350.44 501.621 1350.06 502.042 1349.78C502.462 1349.51 502.948 1349.37 503.499 1349.37C503.925 1349.37 504.263 1349.44 504.513 1349.58C504.766 1349.72 504.959 1349.88 505.093 1350.06C505.229 1350.24 505.334 1350.38 505.408 1350.49H505.51V1349.45H506.482V1356.19C506.482 1356.75 506.354 1357.21 506.098 1357.56C505.846 1357.91 505.505 1358.17 505.076 1358.34C504.65 1358.51 504.175 1358.59 503.652 1358.59ZM503.618 1354.99C504.022 1354.99 504.363 1354.9 504.641 1354.72C504.919 1354.53 505.131 1354.27 505.276 1353.92C505.421 1353.57 505.493 1353.16 505.493 1352.68C505.493 1352.2 505.422 1351.79 505.28 1351.43C505.138 1351.07 504.928 1350.78 504.65 1350.58C504.371 1350.37 504.027 1350.27 503.618 1350.27C503.192 1350.27 502.837 1350.38 502.553 1350.6C502.272 1350.81 502.06 1351.1 501.918 1351.47C501.779 1351.83 501.709 1352.23 501.709 1352.68C501.709 1353.13 501.78 1353.53 501.922 1353.88C502.067 1354.23 502.28 1354.5 502.561 1354.7C502.846 1354.9 503.198 1354.99 503.618 1354.99ZM510.249 1356.15C509.834 1356.15 509.458 1356.08 509.12 1355.92C508.782 1355.76 508.513 1355.53 508.314 1355.23C508.115 1354.93 508.016 1354.57 508.016 1354.14C508.016 1353.77 508.09 1353.46 508.238 1353.23C508.385 1352.99 508.583 1352.81 508.83 1352.68C509.077 1352.54 509.35 1352.44 509.648 1352.38C509.949 1352.31 510.252 1352.26 510.556 1352.22C510.953 1352.16 511.276 1352.13 511.523 1352.1C511.773 1352.07 511.955 1352.03 512.069 1351.96C512.185 1351.89 512.243 1351.78 512.243 1351.62V1351.59C512.243 1351.16 512.128 1350.84 511.898 1350.61C511.671 1350.37 511.326 1350.26 510.863 1350.26C510.382 1350.26 510.006 1350.36 509.733 1350.57C509.461 1350.78 509.269 1351.01 509.158 1351.24L508.203 1350.9C508.374 1350.51 508.601 1350.2 508.885 1349.97C509.172 1349.75 509.485 1349.59 509.823 1349.51C510.164 1349.41 510.499 1349.37 510.828 1349.37C511.039 1349.37 511.28 1349.39 511.553 1349.45C511.828 1349.49 512.094 1349.6 512.35 1349.75C512.608 1349.9 512.823 1350.13 512.993 1350.44C513.164 1350.75 513.249 1351.17 513.249 1351.69V1356H512.243V1355.11H512.192C512.124 1355.26 512.01 1355.41 511.851 1355.57C511.692 1355.73 511.48 1355.87 511.216 1355.98C510.952 1356.1 510.63 1356.15 510.249 1356.15ZM510.402 1355.25C510.8 1355.25 511.135 1355.17 511.408 1355.02C511.684 1354.86 511.891 1354.66 512.03 1354.41C512.172 1354.16 512.243 1353.9 512.243 1353.63V1352.71C512.201 1352.76 512.107 1352.81 511.962 1352.85C511.82 1352.89 511.655 1352.93 511.468 1352.96C511.283 1352.99 511.103 1353.01 510.926 1353.03C510.753 1353.05 510.613 1353.07 510.505 1353.09C510.243 1353.12 509.999 1353.17 509.772 1353.25C509.547 1353.33 509.365 1353.44 509.226 1353.59C509.09 1353.74 509.022 1353.94 509.022 1354.19C509.022 1354.54 509.151 1354.81 509.409 1354.99C509.671 1355.16 510.002 1355.25 510.402 1355.25ZM517.931 1349.45V1350.31H514.539V1349.45H517.931ZM515.528 1347.89H516.533V1354.12C516.533 1354.41 516.575 1354.62 516.657 1354.76C516.742 1354.9 516.85 1355 516.981 1355.05C517.114 1355.09 517.255 1355.11 517.403 1355.11C517.513 1355.11 517.604 1355.11 517.675 1355.1C517.746 1355.08 517.803 1355.07 517.846 1355.06L518.05 1355.97C517.982 1355.99 517.887 1356.02 517.765 1356.04C517.643 1356.07 517.488 1356.09 517.3 1356.09C517.016 1356.09 516.738 1356.02 516.465 1355.9C516.195 1355.78 515.971 1355.59 515.792 1355.34C515.616 1355.09 515.528 1354.78 515.528 1354.4V1347.89ZM519.444 1356V1349.45H520.45V1356H519.444ZM519.955 1348.36C519.759 1348.36 519.59 1348.3 519.448 1348.16C519.309 1348.03 519.239 1347.87 519.239 1347.68C519.239 1347.49 519.309 1347.33 519.448 1347.2C519.59 1347.07 519.759 1347 519.955 1347C520.151 1347 520.319 1347.07 520.458 1347.2C520.6 1347.33 520.671 1347.49 520.671 1347.68C520.671 1347.87 520.6 1348.03 520.458 1348.16C520.319 1348.3 520.151 1348.36 519.955 1348.36ZM524.951 1356.14C524.36 1356.14 523.841 1356 523.395 1355.71C522.952 1355.43 522.605 1355.04 522.355 1354.53C522.108 1354.03 521.985 1353.44 521.985 1352.76C521.985 1352.08 522.108 1351.48 522.355 1350.98C522.605 1350.47 522.952 1350.07 523.395 1349.79C523.841 1349.51 524.36 1349.37 524.951 1349.37C525.542 1349.37 526.059 1349.51 526.502 1349.79C526.948 1350.07 527.294 1350.47 527.542 1350.98C527.792 1351.48 527.917 1352.08 527.917 1352.76C527.917 1353.44 527.792 1354.03 527.542 1354.53C527.294 1355.04 526.948 1355.43 526.502 1355.71C526.059 1356 525.542 1356.14 524.951 1356.14ZM524.951 1355.23C525.4 1355.23 525.769 1355.12 526.059 1354.89C526.348 1354.66 526.563 1354.36 526.702 1353.98C526.841 1353.61 526.911 1353.2 526.911 1352.76C526.911 1352.32 526.841 1351.92 526.702 1351.54C526.563 1351.16 526.348 1350.86 526.059 1350.62C525.769 1350.39 525.4 1350.27 524.951 1350.27C524.502 1350.27 524.132 1350.39 523.843 1350.62C523.553 1350.86 523.338 1351.16 523.199 1351.54C523.06 1351.92 522.99 1352.32 522.99 1352.76C522.99 1353.2 523.06 1353.61 523.199 1353.98C523.338 1354.36 523.553 1354.66 523.843 1354.89C524.132 1355.12 524.502 1355.23 524.951 1355.23ZM530.457 1352.06V1356H529.452V1349.45H530.423V1350.48H530.509C530.662 1350.14 530.895 1349.88 531.207 1349.68C531.52 1349.47 531.923 1349.37 532.418 1349.37C532.861 1349.37 533.249 1349.46 533.581 1349.64C533.913 1349.82 534.172 1350.09 534.357 1350.46C534.541 1350.82 534.634 1351.28 534.634 1351.84V1356H533.628V1351.91C533.628 1351.39 533.494 1350.99 533.227 1350.71C532.96 1350.42 532.594 1350.27 532.128 1350.27C531.807 1350.27 531.52 1350.34 531.267 1350.48C531.017 1350.62 530.82 1350.82 530.675 1351.09C530.53 1351.36 530.457 1351.68 530.457 1352.06Z" fill="white"/>
<rect x="632" y="1301" width="120" height="196" fill="#5B5252"/>
<path d="M660.114 1350.27V1359H659.057V1350.27H660.114ZM663.102 1355.06V1359H662.096V1352.45H663.068V1353.48H663.153C663.306 1353.14 663.539 1352.88 663.852 1352.68C664.164 1352.47 664.568 1352.37 665.062 1352.37C665.505 1352.37 665.893 1352.46 666.225 1352.64C666.558 1352.82 666.816 1353.09 667.001 1353.46C667.186 1353.82 667.278 1354.28 667.278 1354.84V1359H666.272V1354.91C666.272 1354.39 666.139 1353.99 665.872 1353.71C665.605 1353.42 665.238 1353.27 664.772 1353.27C664.451 1353.27 664.164 1353.34 663.912 1353.48C663.662 1353.62 663.464 1353.82 663.319 1354.09C663.174 1354.36 663.102 1354.68 663.102 1355.06ZM672.031 1352.45V1353.31H668.502V1352.45H672.031ZM669.559 1359V1351.55C669.559 1351.18 669.647 1350.86 669.823 1350.61C669.999 1350.36 670.228 1350.18 670.509 1350.05C670.79 1349.93 671.087 1349.86 671.4 1349.86C671.647 1349.86 671.849 1349.88 672.005 1349.92C672.161 1349.96 672.278 1350 672.354 1350.03L672.065 1350.9C672.013 1350.89 671.942 1350.87 671.852 1350.84C671.763 1350.81 671.647 1350.8 671.502 1350.8C671.17 1350.8 670.93 1350.88 670.782 1351.05C670.637 1351.22 670.565 1351.47 670.565 1351.79V1359H669.559ZM675.83 1359.14C675.239 1359.14 674.72 1359 674.274 1358.71C673.831 1358.43 673.484 1358.04 673.234 1357.53C672.987 1357.03 672.864 1356.44 672.864 1355.76C672.864 1355.08 672.987 1354.48 673.234 1353.98C673.484 1353.47 673.831 1353.07 674.274 1352.79C674.72 1352.51 675.239 1352.37 675.83 1352.37C676.42 1352.37 676.938 1352.51 677.381 1352.79C677.827 1353.07 678.173 1353.47 678.42 1353.98C678.67 1354.48 678.795 1355.08 678.795 1355.76C678.795 1356.44 678.67 1357.03 678.42 1357.53C678.173 1358.04 677.827 1358.43 677.381 1358.71C676.938 1359 676.42 1359.14 675.83 1359.14ZM675.83 1358.23C676.278 1358.23 676.648 1358.12 676.938 1357.89C677.227 1357.66 677.442 1357.36 677.581 1356.98C677.72 1356.61 677.79 1356.2 677.79 1355.76C677.79 1355.32 677.72 1354.92 677.581 1354.54C677.442 1354.16 677.227 1353.86 676.938 1353.62C676.648 1353.39 676.278 1353.27 675.83 1353.27C675.381 1353.27 675.011 1353.39 674.722 1353.62C674.432 1353.86 674.217 1354.16 674.078 1354.54C673.939 1354.92 673.869 1355.32 673.869 1355.76C673.869 1356.2 673.939 1356.61 674.078 1356.98C674.217 1357.36 674.432 1357.66 674.722 1357.89C675.011 1358.12 675.381 1358.23 675.83 1358.23ZM680.331 1359V1352.45H681.302V1353.44H681.37C681.49 1353.12 681.706 1352.86 682.018 1352.65C682.331 1352.45 682.683 1352.35 683.075 1352.35C683.149 1352.35 683.241 1352.35 683.352 1352.36C683.463 1352.36 683.547 1352.36 683.603 1352.37V1353.39C683.569 1353.38 683.491 1353.37 683.369 1353.35C683.25 1353.33 683.123 1353.32 682.99 1353.32C682.672 1353.32 682.387 1353.39 682.137 1353.52C681.89 1353.65 681.694 1353.84 681.549 1354.07C681.407 1354.3 681.336 1354.56 681.336 1354.86V1359H680.331ZM684.795 1359V1352.45H685.767V1353.48H685.852C685.989 1353.13 686.209 1352.86 686.513 1352.66C686.817 1352.47 687.182 1352.37 687.608 1352.37C688.04 1352.37 688.399 1352.47 688.686 1352.66C688.976 1352.86 689.202 1353.13 689.364 1353.48H689.432C689.599 1353.14 689.851 1352.87 690.186 1352.67C690.521 1352.47 690.923 1352.37 691.392 1352.37C691.977 1352.37 692.456 1352.55 692.828 1352.92C693.2 1353.28 693.386 1353.85 693.386 1354.62V1359H692.381V1354.62C692.381 1354.14 692.249 1353.79 691.984 1353.58C691.72 1353.38 691.409 1353.27 691.051 1353.27C690.591 1353.27 690.234 1353.41 689.982 1353.69C689.729 1353.97 689.602 1354.32 689.602 1354.74V1359H688.58V1354.52C688.58 1354.14 688.459 1353.85 688.217 1353.62C687.976 1353.39 687.665 1353.27 687.284 1353.27C687.023 1353.27 686.778 1353.34 686.551 1353.48C686.327 1353.62 686.145 1353.81 686.006 1354.06C685.869 1354.31 685.801 1354.59 685.801 1354.91V1359H684.795ZM697.151 1359.15C696.737 1359.15 696.36 1359.08 696.022 1358.92C695.684 1358.76 695.415 1358.53 695.217 1358.23C695.018 1357.93 694.918 1357.57 694.918 1357.14C694.918 1356.77 694.992 1356.46 695.14 1356.23C695.288 1355.99 695.485 1355.81 695.732 1355.68C695.979 1355.54 696.252 1355.44 696.55 1355.38C696.852 1355.31 697.154 1355.26 697.458 1355.22C697.856 1355.16 698.178 1355.13 698.425 1355.1C698.675 1355.07 698.857 1355.03 698.971 1354.96C699.087 1354.89 699.146 1354.78 699.146 1354.62V1354.59C699.146 1354.16 699.031 1353.84 698.8 1353.61C698.573 1353.37 698.228 1353.26 697.765 1353.26C697.285 1353.26 696.908 1353.36 696.636 1353.57C696.363 1353.78 696.171 1354.01 696.06 1354.24L695.106 1353.9C695.276 1353.51 695.504 1353.2 695.788 1352.97C696.075 1352.75 696.387 1352.59 696.725 1352.51C697.066 1352.41 697.401 1352.37 697.731 1352.37C697.941 1352.37 698.183 1352.39 698.455 1352.45C698.731 1352.49 698.996 1352.6 699.252 1352.75C699.511 1352.9 699.725 1353.13 699.896 1353.44C700.066 1353.75 700.151 1354.17 700.151 1354.69V1359H699.146V1358.11H699.094C699.026 1358.26 698.913 1358.41 698.754 1358.57C698.594 1358.73 698.383 1358.87 698.119 1358.98C697.854 1359.1 697.532 1359.15 697.151 1359.15ZM697.305 1358.25C697.702 1358.25 698.038 1358.17 698.31 1358.02C698.586 1357.86 698.793 1357.66 698.933 1357.41C699.075 1357.16 699.146 1356.9 699.146 1356.63V1355.71C699.103 1355.76 699.009 1355.81 698.864 1355.85C698.722 1355.89 698.558 1355.93 698.37 1355.96C698.185 1355.99 698.005 1356.01 697.829 1356.03C697.656 1356.05 697.515 1356.07 697.407 1356.09C697.146 1356.12 696.901 1356.17 696.674 1356.25C696.45 1356.33 696.268 1356.44 696.129 1356.59C695.992 1356.74 695.924 1356.94 695.924 1357.19C695.924 1357.54 696.053 1357.81 696.312 1357.99C696.573 1358.16 696.904 1358.25 697.305 1358.25ZM704.833 1352.45V1353.31H701.441V1352.45H704.833ZM702.43 1350.89H703.436V1357.12C703.436 1357.41 703.477 1357.62 703.559 1357.76C703.645 1357.9 703.752 1358 703.883 1358.05C704.017 1358.09 704.157 1358.11 704.305 1358.11C704.416 1358.11 704.507 1358.11 704.578 1358.1C704.649 1358.08 704.706 1358.07 704.748 1358.06L704.953 1358.97C704.885 1358.99 704.789 1359.02 704.667 1359.04C704.545 1359.07 704.39 1359.09 704.203 1359.09C703.919 1359.09 703.64 1359.02 703.368 1358.9C703.098 1358.78 702.873 1358.59 702.694 1358.34C702.518 1358.09 702.43 1357.78 702.43 1357.4V1350.89ZM706.346 1359V1352.45H707.352V1359H706.346ZM706.858 1351.36C706.662 1351.36 706.493 1351.3 706.35 1351.16C706.211 1351.03 706.142 1350.87 706.142 1350.68C706.142 1350.49 706.211 1350.33 706.35 1350.2C706.493 1350.07 706.662 1350 706.858 1350C707.054 1350 707.221 1350.07 707.36 1350.2C707.502 1350.33 707.574 1350.49 707.574 1350.68C707.574 1350.87 707.502 1351.03 707.36 1351.16C707.221 1351.3 707.054 1351.36 706.858 1351.36ZM711.853 1359.14C711.262 1359.14 710.744 1359 710.298 1358.71C709.854 1358.43 709.508 1358.04 709.258 1357.53C709.011 1357.03 708.887 1356.44 708.887 1355.76C708.887 1355.08 709.011 1354.48 709.258 1353.98C709.508 1353.47 709.854 1353.07 710.298 1352.79C710.744 1352.51 711.262 1352.37 711.853 1352.37C712.444 1352.37 712.961 1352.51 713.404 1352.79C713.85 1353.07 714.197 1353.47 714.444 1353.98C714.694 1354.48 714.819 1355.08 714.819 1355.76C714.819 1356.44 714.694 1357.03 714.444 1357.53C714.197 1358.04 713.85 1358.43 713.404 1358.71C712.961 1359 712.444 1359.14 711.853 1359.14ZM711.853 1358.23C712.302 1358.23 712.671 1358.12 712.961 1357.89C713.251 1357.66 713.465 1357.36 713.604 1356.98C713.744 1356.61 713.813 1356.2 713.813 1355.76C713.813 1355.32 713.744 1354.92 713.604 1354.54C713.465 1354.16 713.251 1353.86 712.961 1353.62C712.671 1353.39 712.302 1353.27 711.853 1353.27C711.404 1353.27 711.035 1353.39 710.745 1353.62C710.455 1353.86 710.241 1354.16 710.102 1354.54C709.962 1354.92 709.893 1355.32 709.893 1355.76C709.893 1356.2 709.962 1356.61 710.102 1356.98C710.241 1357.36 710.455 1357.66 710.745 1357.89C711.035 1358.12 711.404 1358.23 711.853 1358.23ZM717.36 1355.06V1359H716.354V1352.45H717.326V1353.48H717.411C717.564 1353.14 717.797 1352.88 718.11 1352.68C718.422 1352.47 718.826 1352.37 719.32 1352.37C719.763 1352.37 720.151 1352.46 720.483 1352.64C720.816 1352.82 721.074 1353.09 721.259 1353.46C721.444 1353.82 721.536 1354.28 721.536 1354.84V1359H720.53V1354.91C720.53 1354.39 720.397 1353.99 720.13 1353.71C719.863 1353.42 719.496 1353.27 719.03 1353.27C718.709 1353.27 718.422 1353.34 718.169 1353.48C717.919 1353.62 717.722 1353.82 717.577 1354.09C717.432 1354.36 717.36 1354.68 717.36 1355.06ZM728.01 1353.92L727.107 1354.18C727.05 1354.03 726.966 1353.88 726.855 1353.74C726.747 1353.59 726.599 1353.47 726.412 1353.38C726.224 1353.29 725.984 1353.24 725.692 1353.24C725.291 1353.24 724.957 1353.33 724.69 1353.52C724.426 1353.7 724.294 1353.93 724.294 1354.21C724.294 1354.46 724.385 1354.66 724.567 1354.8C724.749 1354.95 725.033 1355.07 725.419 1355.16L726.391 1355.4C726.976 1355.55 727.412 1355.76 727.699 1356.06C727.986 1356.35 728.129 1356.72 728.129 1357.18C728.129 1357.55 728.021 1357.89 727.805 1358.18C727.592 1358.48 727.294 1358.71 726.911 1358.88C726.527 1359.05 726.081 1359.14 725.572 1359.14C724.905 1359.14 724.352 1358.99 723.915 1358.7C723.477 1358.41 723.2 1357.99 723.084 1357.43L724.038 1357.19C724.129 1357.55 724.301 1357.81 724.554 1357.99C724.81 1358.16 725.143 1358.25 725.555 1358.25C726.024 1358.25 726.396 1358.15 726.672 1357.95C726.95 1357.75 727.089 1357.51 727.089 1357.23C727.089 1357 727.01 1356.81 726.851 1356.66C726.692 1356.5 726.447 1356.38 726.118 1356.31L725.027 1356.05C724.428 1355.91 723.987 1355.69 723.706 1355.39C723.428 1355.09 723.288 1354.71 723.288 1354.26C723.288 1353.89 723.392 1353.57 723.599 1353.28C723.81 1353 724.095 1352.77 724.456 1352.61C724.82 1352.45 725.232 1352.37 725.692 1352.37C726.339 1352.37 726.848 1352.51 727.217 1352.8C727.589 1353.08 727.854 1353.45 728.01 1353.92Z" fill="white"/>
<rect x="813" y="1301" width="120" height="196" fill="#5B5252"/>
<path d="M846.83 1352.45C846.778 1352.02 846.571 1351.69 846.207 1351.45C845.844 1351.21 845.398 1351.09 844.869 1351.09C844.483 1351.09 844.145 1351.15 843.855 1351.28C843.568 1351.4 843.344 1351.58 843.182 1351.79C843.023 1352.01 842.943 1352.26 842.943 1352.54C842.943 1352.77 842.999 1352.97 843.109 1353.14C843.223 1353.31 843.368 1353.44 843.544 1353.55C843.72 1353.66 843.905 1353.75 844.098 1353.82C844.291 1353.89 844.469 1353.95 844.631 1353.99L845.517 1354.23C845.744 1354.29 845.997 1354.37 846.276 1354.47C846.557 1354.58 846.825 1354.72 847.081 1354.9C847.339 1355.08 847.553 1355.31 847.72 1355.6C847.888 1355.88 847.972 1356.22 847.972 1356.63C847.972 1357.1 847.848 1357.53 847.601 1357.91C847.357 1358.29 846.999 1358.59 846.527 1358.82C846.058 1359.04 845.489 1359.15 844.818 1359.15C844.193 1359.15 843.652 1359.05 843.195 1358.85C842.74 1358.65 842.382 1358.37 842.121 1358.01C841.862 1357.65 841.716 1357.23 841.682 1356.75H842.773C842.801 1357.08 842.912 1357.35 843.105 1357.57C843.301 1357.78 843.548 1357.94 843.847 1358.05C844.148 1358.15 844.472 1358.2 844.818 1358.2C845.222 1358.2 845.584 1358.13 845.905 1358C846.226 1357.87 846.48 1357.68 846.668 1357.45C846.855 1357.21 846.949 1356.93 846.949 1356.61C846.949 1356.32 846.868 1356.09 846.706 1355.91C846.544 1355.72 846.331 1355.58 846.067 1355.46C845.803 1355.35 845.517 1355.25 845.21 1355.16L844.136 1354.86C843.455 1354.66 842.915 1354.38 842.517 1354.02C842.119 1353.65 841.92 1353.18 841.92 1352.59C841.92 1352.1 842.053 1351.68 842.317 1351.31C842.584 1350.95 842.942 1350.66 843.391 1350.46C843.842 1350.26 844.347 1350.15 844.903 1350.15C845.466 1350.15 845.966 1350.25 846.403 1350.46C846.841 1350.65 847.188 1350.93 847.443 1351.27C847.702 1351.62 847.838 1352.01 847.852 1352.45H846.83ZM853.698 1356.32V1352.45H854.703V1359H853.698V1357.89H853.63C853.476 1358.22 853.238 1358.51 852.914 1358.74C852.59 1358.97 852.181 1359.09 851.686 1359.09C851.277 1359.09 850.914 1359 850.596 1358.82C850.277 1358.63 850.027 1358.36 849.846 1358C849.664 1357.63 849.573 1357.17 849.573 1356.61V1352.45H850.578V1356.55C850.578 1357.02 850.712 1357.4 850.979 1357.69C851.249 1357.97 851.593 1358.11 852.01 1358.11C852.26 1358.11 852.515 1358.05 852.773 1357.92C853.034 1357.79 853.253 1357.6 853.429 1357.33C853.608 1357.07 853.698 1356.73 853.698 1356.32ZM856.545 1359V1352.45H857.551V1359H856.545ZM857.057 1351.36C856.861 1351.36 856.692 1351.3 856.55 1351.16C856.411 1351.03 856.341 1350.87 856.341 1350.68C856.341 1350.49 856.411 1350.33 856.55 1350.2C856.692 1350.07 856.861 1350 857.057 1350C857.253 1350 857.42 1350.07 857.56 1350.2C857.702 1350.33 857.773 1350.49 857.773 1350.68C857.773 1350.87 857.702 1351.03 857.56 1351.16C857.42 1351.3 857.253 1351.36 857.057 1351.36ZM864.745 1352.45L862.325 1359H861.302L858.882 1352.45H859.973L861.779 1357.67H861.848L863.654 1352.45H864.745ZM868.583 1359.14C867.952 1359.14 867.408 1359 866.951 1358.72C866.496 1358.44 866.145 1358.05 865.898 1357.54C865.654 1357.04 865.532 1356.45 865.532 1355.78C865.532 1355.11 865.654 1354.52 865.898 1354.01C866.145 1353.49 866.489 1353.09 866.929 1352.8C867.373 1352.51 867.89 1352.37 868.48 1352.37C868.821 1352.37 869.158 1352.43 869.49 1352.54C869.823 1352.65 870.125 1352.84 870.398 1353.09C870.671 1353.35 870.888 1353.68 871.05 1354.1C871.212 1354.52 871.293 1355.03 871.293 1355.64V1356.07H866.248V1355.2H870.27C870.27 1354.83 870.196 1354.5 870.049 1354.21C869.904 1353.92 869.696 1353.69 869.426 1353.52C869.159 1353.36 868.844 1353.27 868.48 1353.27C868.08 1353.27 867.733 1353.37 867.441 1353.57C867.151 1353.77 866.928 1354.02 866.772 1354.34C866.615 1354.65 866.537 1354.99 866.537 1355.35V1355.93C866.537 1356.43 866.623 1356.85 866.793 1357.19C866.966 1357.53 867.206 1357.79 867.513 1357.97C867.82 1358.14 868.176 1358.23 868.583 1358.23C868.847 1358.23 869.086 1358.2 869.299 1358.12C869.515 1358.05 869.701 1357.93 869.857 1357.78C870.013 1357.63 870.134 1357.44 870.219 1357.21L871.191 1357.48C871.088 1357.81 870.917 1358.1 870.675 1358.35C870.434 1358.6 870.135 1358.79 869.78 1358.93C869.425 1359.07 869.026 1359.14 868.583 1359.14ZM872.635 1359V1358.23L876.351 1353.46V1353.39H872.755V1352.45H877.647V1353.26L874.033 1357.99V1358.06H877.766V1359H872.635ZM883.065 1354.79V1355.73H879.247V1354.79H883.065ZM884.835 1359V1352.45H885.806V1353.48H885.891C886.028 1353.13 886.248 1352.86 886.552 1352.66C886.856 1352.47 887.221 1352.37 887.647 1352.37C888.079 1352.37 888.438 1352.47 888.725 1352.66C889.015 1352.86 889.241 1353.13 889.403 1353.48H889.471C889.638 1353.14 889.89 1352.87 890.225 1352.67C890.56 1352.47 890.962 1352.37 891.431 1352.37C892.016 1352.37 892.495 1352.55 892.867 1352.92C893.239 1353.28 893.425 1353.85 893.425 1354.62V1359H892.42V1354.62C892.42 1354.14 892.288 1353.79 892.023 1353.58C891.759 1353.38 891.448 1353.27 891.09 1353.27C890.63 1353.27 890.273 1353.41 890.021 1353.69C889.768 1353.97 889.641 1354.32 889.641 1354.74V1359H888.619V1354.52C888.619 1354.14 888.498 1353.85 888.256 1353.62C888.015 1353.39 887.704 1353.27 887.323 1353.27C887.062 1353.27 886.817 1353.34 886.59 1353.48C886.366 1353.62 886.184 1353.81 886.045 1354.06C885.908 1354.31 885.84 1354.59 885.84 1354.91V1359H884.835ZM897.923 1359.14C897.332 1359.14 896.814 1359 896.368 1358.71C895.925 1358.43 895.578 1358.04 895.328 1357.53C895.081 1357.03 894.957 1356.44 894.957 1355.76C894.957 1355.08 895.081 1354.48 895.328 1353.98C895.578 1353.47 895.925 1353.07 896.368 1352.79C896.814 1352.51 897.332 1352.37 897.923 1352.37C898.514 1352.37 899.031 1352.51 899.474 1352.79C899.92 1353.07 900.267 1353.47 900.514 1353.98C900.764 1354.48 900.889 1355.08 900.889 1355.76C900.889 1356.44 900.764 1357.03 900.514 1357.53C900.267 1358.04 899.92 1358.43 899.474 1358.71C899.031 1359 898.514 1359.14 897.923 1359.14ZM897.923 1358.23C898.372 1358.23 898.741 1358.12 899.031 1357.89C899.321 1357.66 899.536 1357.36 899.675 1356.98C899.814 1356.61 899.884 1356.2 899.884 1355.76C899.884 1355.32 899.814 1354.92 899.675 1354.54C899.536 1354.16 899.321 1353.86 899.031 1353.62C898.741 1353.39 898.372 1353.27 897.923 1353.27C897.474 1353.27 897.105 1353.39 896.815 1353.62C896.526 1353.86 896.311 1354.16 896.172 1354.54C896.033 1354.92 895.963 1355.32 895.963 1355.76C895.963 1356.2 896.033 1356.61 896.172 1356.98C896.311 1357.36 896.526 1357.66 896.815 1357.89C897.105 1358.12 897.474 1358.23 897.923 1358.23ZM902.424 1359V1352.45H903.43V1359H902.424ZM902.936 1351.36C902.74 1351.36 902.571 1351.3 902.429 1351.16C902.289 1351.03 902.22 1350.87 902.22 1350.68C902.22 1350.49 902.289 1350.33 902.429 1350.2C902.571 1350.07 902.74 1350 902.936 1350C903.132 1350 903.299 1350.07 903.439 1350.2C903.581 1350.33 903.652 1350.49 903.652 1350.68C903.652 1350.87 903.581 1351.03 903.439 1351.16C903.299 1351.3 903.132 1351.36 902.936 1351.36Z" fill="white"/>
<circle cx="841" cy="1402" r="13" fill="#D9D9D9"/>
<circle cx="875" cy="1402" r="13" fill="#D9D9D9"/>
<circle cx="909" cy="1402" r="13" fill="#D9D9D9"/>
<path d="M427.523 446.455V461H425.761V446.455H427.523ZM431.054 446.455H433.157L438.1 458.528H438.27L443.213 446.455H445.316V461H443.668V449.949H443.526L438.98 461H437.39L432.844 449.949H432.702V461H431.054V446.455ZM449.444 461H447.597L452.938 446.455H454.756L460.097 461H458.251L453.904 448.756H453.79L449.444 461ZM450.126 455.318H457.569V456.881H450.126V455.318ZM471.623 451C471.466 450.522 471.26 450.093 471.005 449.714C470.754 449.331 470.453 449.004 470.103 448.734C469.757 448.464 469.364 448.259 468.924 448.116C468.483 447.974 468 447.903 467.475 447.903C466.613 447.903 465.829 448.126 465.124 448.571C464.418 449.016 463.857 449.672 463.441 450.538C463.024 451.405 462.816 452.468 462.816 453.727C462.816 454.987 463.026 456.05 463.448 456.916C463.869 457.783 464.44 458.438 465.159 458.884C465.879 459.329 466.689 459.551 467.588 459.551C468.422 459.551 469.156 459.374 469.79 459.018C470.429 458.659 470.926 458.152 471.282 457.499C471.641 456.84 471.821 456.066 471.821 455.176L472.361 455.29H467.986V453.727H473.526V455.29C473.526 456.488 473.27 457.529 472.759 458.415C472.252 459.3 471.551 459.987 470.657 460.474C469.766 460.957 468.744 461.199 467.588 461.199C466.301 461.199 465.169 460.896 464.194 460.29C463.223 459.684 462.465 458.822 461.921 457.705C461.381 456.587 461.111 455.261 461.111 453.727C461.111 452.577 461.265 451.542 461.573 450.624C461.885 449.7 462.326 448.914 462.894 448.266C463.462 447.617 464.134 447.12 464.911 446.774C465.687 446.429 466.542 446.256 467.475 446.256C468.242 446.256 468.957 446.372 469.62 446.604C470.287 446.831 470.882 447.155 471.402 447.577C471.928 447.993 472.366 448.493 472.716 449.075C473.067 449.653 473.308 450.295 473.441 451H471.623ZM476.543 461V446.455H485.321V448.017H478.304V452.932H484.866V454.494H478.304V459.438H485.435V461H476.543Z" fill="white"/>
<path d="M427.523 877.455V892H425.761V877.455H427.523ZM431.054 877.455H433.157L438.1 889.528H438.27L443.213 877.455H445.316V892H443.668V880.949H443.526L438.98 892H437.39L432.844 880.949H432.702V892H431.054V877.455ZM449.444 892H447.597L452.938 877.455H454.756L460.097 892H458.251L453.904 879.756H453.79L449.444 892ZM450.126 886.318H457.569V887.881H450.126V886.318ZM471.623 882C471.466 881.522 471.26 881.093 471.005 880.714C470.754 880.331 470.453 880.004 470.103 879.734C469.757 879.464 469.364 879.259 468.924 879.116C468.483 878.974 468 878.903 467.475 878.903C466.613 878.903 465.829 879.126 465.124 879.571C464.418 880.016 463.857 880.672 463.441 881.538C463.024 882.405 462.816 883.468 462.816 884.727C462.816 885.987 463.026 887.05 463.448 887.916C463.869 888.783 464.44 889.438 465.159 889.884C465.879 890.329 466.689 890.551 467.588 890.551C468.422 890.551 469.156 890.374 469.79 890.018C470.429 889.659 470.926 889.152 471.282 888.499C471.641 887.84 471.821 887.066 471.821 886.176L472.361 886.29H467.986V884.727H473.526V886.29C473.526 887.488 473.27 888.529 472.759 889.415C472.252 890.3 471.551 890.987 470.657 891.474C469.766 891.957 468.744 892.199 467.588 892.199C466.301 892.199 465.169 891.896 464.194 891.29C463.223 890.684 462.465 889.822 461.921 888.705C461.381 887.587 461.111 886.261 461.111 884.727C461.111 883.577 461.265 882.542 461.573 881.624C461.885 880.7 462.326 879.914 462.894 879.266C463.462 878.617 464.134 878.12 464.911 877.774C465.687 877.429 466.542 877.256 467.475 877.256C468.242 877.256 468.957 877.372 469.62 877.604C470.287 877.831 470.882 878.155 471.402 878.577C471.928 878.993 472.366 879.493 472.716 880.075C473.067 880.653 473.308 881.295 473.441 882H471.623ZM476.543 892V877.455H485.321V879.017H478.304V883.932H484.866V885.494H478.304V890.438H485.435V892H476.543Z" fill="white"/>
<path d="M789.523 877.455V892H787.761V877.455H789.523ZM793.054 877.455H795.157L800.1 889.528H800.27L805.213 877.455H807.316V892H805.668V880.949H805.526L800.98 892H799.39L794.844 880.949H794.702V892H793.054V877.455ZM811.444 892H809.597L814.938 877.455H816.756L822.097 892H820.251L815.904 879.756H815.79L811.444 892ZM812.126 886.318H819.569V887.881H812.126V886.318ZM833.623 882C833.466 881.522 833.26 881.093 833.005 880.714C832.754 880.331 832.453 880.004 832.103 879.734C831.757 879.464 831.364 879.259 830.924 879.116C830.483 878.974 830 878.903 829.475 878.903C828.613 878.903 827.829 879.126 827.124 879.571C826.418 880.016 825.857 880.672 825.441 881.538C825.024 882.405 824.816 883.468 824.816 884.727C824.816 885.987 825.026 887.05 825.448 887.916C825.869 888.783 826.44 889.438 827.159 889.884C827.879 890.329 828.689 890.551 829.588 890.551C830.422 890.551 831.156 890.374 831.79 890.018C832.429 889.659 832.926 889.152 833.282 888.499C833.641 887.84 833.821 887.066 833.821 886.176L834.361 886.29H829.986V884.727H835.526V886.29C835.526 887.488 835.27 888.529 834.759 889.415C834.252 890.3 833.551 890.987 832.657 891.474C831.766 891.957 830.744 892.199 829.588 892.199C828.301 892.199 827.169 891.896 826.194 891.29C825.223 890.684 824.465 889.822 823.921 888.705C823.381 887.587 823.111 886.261 823.111 884.727C823.111 883.577 823.265 882.542 823.573 881.624C823.885 880.7 824.326 879.914 824.894 879.266C825.462 878.617 826.134 878.12 826.911 877.774C827.687 877.429 828.542 877.256 829.475 877.256C830.242 877.256 830.957 877.372 831.62 877.604C832.287 877.831 832.882 878.155 833.402 878.577C833.928 878.993 834.366 879.493 834.716 880.075C835.067 880.653 835.308 881.295 835.441 882H833.623ZM838.543 892V877.455H847.321V879.017H840.304V883.932H846.866V885.494H840.304V890.438H847.435V892H838.543Z" fill="white"/>
<path d="M789.523 446.455V461H787.761V446.455H789.523ZM793.054 446.455H795.157L800.1 458.528H800.27L805.213 446.455H807.316V461H805.668V449.949H805.526L800.98 461H799.39L794.844 449.949H794.702V461H793.054V446.455ZM811.444 461H809.597L814.938 446.455H816.756L822.097 461H820.251L815.904 448.756H815.79L811.444 461ZM812.126 455.318H819.569V456.881H812.126V455.318ZM833.623 451C833.466 450.522 833.26 450.093 833.005 449.714C832.754 449.331 832.453 449.004 832.103 448.734C831.757 448.464 831.364 448.259 830.924 448.116C830.483 447.974 830 447.903 829.475 447.903C828.613 447.903 827.829 448.126 827.124 448.571C826.418 449.016 825.857 449.672 825.441 450.538C825.024 451.405 824.816 452.468 824.816 453.727C824.816 454.987 825.026 456.05 825.448 456.916C825.869 457.783 826.44 458.438 827.159 458.884C827.879 459.329 828.689 459.551 829.588 459.551C830.422 459.551 831.156 459.374 831.79 459.018C832.429 458.659 832.926 458.152 833.282 457.499C833.641 456.84 833.821 456.066 833.821 455.176L834.361 455.29H829.986V453.727H835.526V455.29C835.526 456.488 835.27 457.529 834.759 458.415C834.252 459.3 833.551 459.987 832.657 460.474C831.766 460.957 830.744 461.199 829.588 461.199C828.301 461.199 827.169 460.896 826.194 460.29C825.223 459.684 824.465 458.822 823.921 457.705C823.381 456.587 823.111 455.261 823.111 453.727C823.111 452.577 823.265 451.542 823.573 450.624C823.885 449.7 824.326 448.914 824.894 448.266C825.462 447.617 826.134 447.12 826.911 446.774C827.687 446.429 828.542 446.256 829.475 446.256C830.242 446.256 830.957 446.372 831.62 446.604C832.287 446.831 832.882 447.155 833.402 447.577C833.928 447.993 834.366 448.493 834.716 449.075C835.067 449.653 835.308 450.295 835.441 451H833.623ZM838.543 461V446.455H847.321V448.017H840.304V452.932H846.866V454.494H840.304V459.438H847.435V461H838.543Z" fill="white"/>
<rect x="288" y="545" width="345" height="190" fill="#D9D9D9"/>
<path d="M402.966 634.017V632.455H413.875V634.017H409.301V647H407.54V634.017H402.966ZM419.358 647.227C418.307 647.227 417.4 646.995 416.638 646.531C415.88 646.062 415.295 645.409 414.884 644.571C414.476 643.728 414.273 642.748 414.273 641.631C414.273 640.513 414.476 639.528 414.884 638.676C415.295 637.819 415.868 637.152 416.602 636.673C417.341 636.19 418.203 635.949 419.188 635.949C419.756 635.949 420.317 636.044 420.871 636.233C421.425 636.422 421.929 636.73 422.384 637.156C422.838 637.578 423.2 638.136 423.47 638.832C423.74 639.528 423.875 640.385 423.875 641.403V642.114H415.466V640.665H422.17C422.17 640.049 422.047 639.5 421.801 639.017C421.56 638.534 421.214 638.153 420.764 637.874C420.319 637.594 419.794 637.455 419.188 637.455C418.52 637.455 417.942 637.62 417.455 637.952C416.972 638.278 416.6 638.705 416.339 639.23C416.079 639.756 415.949 640.319 415.949 640.92V641.886C415.949 642.71 416.091 643.409 416.375 643.982C416.664 644.55 417.064 644.983 417.575 645.281C418.087 645.575 418.681 645.722 419.358 645.722C419.798 645.722 420.196 645.66 420.551 645.537C420.911 645.409 421.221 645.22 421.482 644.969C421.742 644.713 421.943 644.396 422.085 644.017L423.705 644.472C423.534 645.021 423.248 645.504 422.845 645.92C422.443 646.332 421.946 646.654 421.354 646.886C420.762 647.114 420.097 647.227 419.358 647.227ZM427.382 636.091L429.995 640.551L432.609 636.091H434.541L431.018 641.545L434.541 647H432.609L429.995 642.767L427.382 647H425.45L428.916 641.545L425.45 636.091H427.382ZM441.677 636.091V637.511H436.023V636.091H441.677ZM437.671 633.477H439.347V643.875C439.347 644.348 439.416 644.704 439.553 644.94C439.695 645.172 439.875 645.329 440.093 645.409C440.316 645.485 440.55 645.523 440.796 645.523C440.981 645.523 441.132 645.513 441.251 645.494C441.369 645.471 441.464 645.452 441.535 645.438L441.876 646.943C441.762 646.986 441.603 647.028 441.4 647.071C441.196 647.118 440.938 647.142 440.626 647.142C440.152 647.142 439.688 647.04 439.234 646.837C438.784 646.633 438.41 646.323 438.112 645.906C437.818 645.49 437.671 644.964 437.671 644.33V633.477ZM448.655 647.227C447.604 647.227 446.697 646.995 445.935 646.531C445.177 646.062 444.592 645.409 444.18 644.571C443.773 643.728 443.57 642.748 443.57 641.631C443.57 640.513 443.773 639.528 444.18 638.676C444.592 637.819 445.165 637.152 445.899 636.673C446.638 636.19 447.5 635.949 448.484 635.949C449.053 635.949 449.614 636.044 450.168 636.233C450.722 636.422 451.226 636.73 451.68 637.156C452.135 637.578 452.497 638.136 452.767 638.832C453.037 639.528 453.172 640.385 453.172 641.403V642.114H444.763V640.665H451.467C451.467 640.049 451.344 639.5 451.098 639.017C450.857 638.534 450.511 638.153 450.061 637.874C449.616 637.594 449.09 637.455 448.484 637.455C447.817 637.455 447.239 637.62 446.751 637.952C446.268 638.278 445.897 638.705 445.636 639.23C445.376 639.756 445.246 640.319 445.246 640.92V641.886C445.246 642.71 445.388 643.409 445.672 643.982C445.961 644.55 446.361 644.983 446.872 645.281C447.384 645.575 447.978 645.722 448.655 645.722C449.095 645.722 449.493 645.66 449.848 645.537C450.208 645.409 450.518 645.22 450.778 644.969C451.039 644.713 451.24 644.396 451.382 644.017L453.001 644.472C452.831 645.021 452.545 645.504 452.142 645.92C451.74 646.332 451.242 646.654 450.651 646.886C450.059 647.114 449.393 647.227 448.655 647.227ZM464.557 647.256C463.866 647.256 463.238 647.125 462.675 646.865C462.111 646.6 461.664 646.219 461.332 645.722C461.001 645.22 460.835 644.614 460.835 643.903C460.835 643.278 460.958 642.772 461.205 642.384C461.451 641.991 461.78 641.683 462.192 641.46C462.604 641.238 463.058 641.072 463.555 640.963C464.057 640.849 464.562 640.759 465.068 640.693C465.731 640.608 466.268 640.544 466.68 640.501C467.097 640.454 467.4 640.376 467.589 640.267C467.784 640.158 467.881 639.969 467.881 639.699V639.642C467.881 638.941 467.689 638.397 467.305 638.009C466.927 637.62 466.351 637.426 465.58 637.426C464.779 637.426 464.152 637.601 463.697 637.952C463.243 638.302 462.923 638.676 462.739 639.074L461.148 638.506C461.432 637.843 461.811 637.327 462.284 636.957C462.762 636.583 463.283 636.323 463.847 636.176C464.415 636.025 464.973 635.949 465.523 635.949C465.873 635.949 466.276 635.991 466.73 636.077C467.189 636.157 467.632 636.325 468.058 636.581C468.489 636.837 468.847 637.223 469.131 637.739C469.415 638.255 469.557 638.946 469.557 639.812V647H467.881V645.523H467.795C467.682 645.759 467.492 646.013 467.227 646.283C466.962 646.553 466.609 646.782 466.169 646.972C465.729 647.161 465.191 647.256 464.557 647.256ZM464.812 645.75C465.475 645.75 466.034 645.62 466.489 645.359C466.948 645.099 467.294 644.763 467.526 644.351C467.762 643.939 467.881 643.506 467.881 643.051V641.517C467.81 641.602 467.653 641.68 467.412 641.751C467.175 641.818 466.901 641.877 466.588 641.929C466.28 641.976 465.98 642.019 465.686 642.057C465.397 642.09 465.163 642.118 464.983 642.142C464.547 642.199 464.14 642.291 463.761 642.419C463.387 642.542 463.084 642.729 462.852 642.98C462.625 643.226 462.511 643.562 462.511 643.989C462.511 644.571 462.727 645.011 463.158 645.31C463.593 645.603 464.145 645.75 464.812 645.75ZM472.616 647V636.091H474.235V637.739H474.349C474.548 637.199 474.908 636.761 475.429 636.425C475.949 636.089 476.537 635.92 477.19 635.92C477.313 635.92 477.467 635.923 477.652 635.928C477.836 635.932 477.976 635.939 478.071 635.949V637.653C478.014 637.639 477.884 637.618 477.68 637.589C477.481 637.556 477.27 637.54 477.048 637.54C476.518 637.54 476.044 637.651 475.627 637.874C475.216 638.091 474.889 638.394 474.647 638.783C474.411 639.166 474.292 639.604 474.292 640.097V647H472.616ZM485.485 636.091V637.511H479.832V636.091H485.485ZM481.48 633.477H483.156V643.875C483.156 644.348 483.225 644.704 483.362 644.94C483.504 645.172 483.684 645.329 483.902 645.409C484.124 645.485 484.359 645.523 484.605 645.523C484.789 645.523 484.941 645.513 485.059 645.494C485.178 645.471 485.272 645.452 485.343 645.438L485.684 646.943C485.571 646.986 485.412 647.028 485.208 647.071C485.005 647.118 484.747 647.142 484.434 647.142C483.961 647.142 483.497 647.04 483.042 646.837C482.592 646.633 482.218 646.323 481.92 645.906C481.627 645.49 481.48 644.964 481.48 644.33V633.477ZM488.007 647V636.091H489.683V647H488.007ZM488.859 634.273C488.532 634.273 488.251 634.161 488.014 633.939C487.782 633.716 487.666 633.449 487.666 633.136C487.666 632.824 487.782 632.556 488.014 632.334C488.251 632.111 488.532 632 488.859 632C489.186 632 489.465 632.111 489.697 632.334C489.934 632.556 490.052 632.824 490.052 633.136C490.052 633.449 489.934 633.716 489.697 633.939C489.465 634.161 489.186 634.273 488.859 634.273ZM497.185 647.227C496.162 647.227 495.281 646.986 494.543 646.503C493.804 646.02 493.236 645.355 492.838 644.507C492.44 643.66 492.241 642.691 492.241 641.602C492.241 640.494 492.445 639.517 492.852 638.669C493.264 637.817 493.837 637.152 494.571 636.673C495.31 636.19 496.171 635.949 497.156 635.949C497.923 635.949 498.615 636.091 499.23 636.375C499.846 636.659 500.35 637.057 500.743 637.568C501.136 638.08 501.38 638.676 501.474 639.358H499.798C499.67 638.861 499.386 638.42 498.946 638.037C498.51 637.649 497.923 637.455 497.185 637.455C496.531 637.455 495.958 637.625 495.466 637.966C494.978 638.302 494.597 638.778 494.322 639.393C494.053 640.004 493.918 640.722 493.918 641.545C493.918 642.388 494.05 643.122 494.315 643.747C494.585 644.372 494.964 644.857 495.452 645.203C495.944 645.549 496.522 645.722 497.185 645.722C497.62 645.722 498.016 645.646 498.371 645.494C498.726 645.343 499.027 645.125 499.273 644.841C499.519 644.557 499.694 644.216 499.798 643.818H501.474C501.38 644.462 501.145 645.042 500.771 645.558C500.402 646.07 499.912 646.477 499.301 646.78C498.695 647.078 497.99 647.227 497.185 647.227ZM505.601 632.455V647H503.925V632.455H505.601ZM513.245 647.227C512.194 647.227 511.287 646.995 510.525 646.531C509.767 646.062 509.182 645.409 508.77 644.571C508.363 643.728 508.159 642.748 508.159 641.631C508.159 640.513 508.363 639.528 508.77 638.676C509.182 637.819 509.755 637.152 510.489 636.673C511.228 636.19 512.089 635.949 513.074 635.949C513.642 635.949 514.203 636.044 514.757 636.233C515.311 636.422 515.816 636.73 516.27 637.156C516.725 637.578 517.087 638.136 517.357 638.832C517.627 639.528 517.762 640.385 517.762 641.403V642.114H509.353V640.665H516.057C516.057 640.049 515.934 639.5 515.688 639.017C515.446 638.534 515.101 638.153 514.651 637.874C514.206 637.594 513.68 637.455 513.074 637.455C512.407 637.455 511.829 637.62 511.341 637.952C510.858 638.278 510.487 638.705 510.226 639.23C509.966 639.756 509.836 640.319 509.836 640.92V641.886C509.836 642.71 509.978 643.409 510.262 643.982C510.551 644.55 510.951 644.983 511.462 645.281C511.973 645.575 512.568 645.722 513.245 645.722C513.685 645.722 514.083 645.66 514.438 645.537C514.798 645.409 515.108 645.22 515.368 644.969C515.629 644.713 515.83 644.396 515.972 644.017L517.591 644.472C517.421 645.021 517.134 645.504 516.732 645.92C516.329 646.332 515.832 646.654 515.24 646.886C514.649 647.114 513.983 647.227 513.245 647.227Z" fill="black"/>
<rect x="287" y="976" width="345" height="190" fill="#D9D9D9"/>
<path d="M401.966 1065.02V1063.45H412.875V1065.02H408.301V1078H406.54V1065.02H401.966ZM418.358 1078.23C417.307 1078.23 416.4 1078 415.638 1077.53C414.88 1077.06 414.295 1076.41 413.884 1075.57C413.476 1074.73 413.273 1073.75 413.273 1072.63C413.273 1071.51 413.476 1070.53 413.884 1069.68C414.295 1068.82 414.868 1068.15 415.602 1067.67C416.341 1067.19 417.203 1066.95 418.188 1066.95C418.756 1066.95 419.317 1067.04 419.871 1067.23C420.425 1067.42 420.929 1067.73 421.384 1068.16C421.838 1068.58 422.2 1069.14 422.47 1069.83C422.74 1070.53 422.875 1071.39 422.875 1072.4V1073.11H414.466V1071.66H421.17C421.17 1071.05 421.047 1070.5 420.801 1070.02C420.56 1069.53 420.214 1069.15 419.764 1068.87C419.319 1068.59 418.794 1068.45 418.188 1068.45C417.52 1068.45 416.942 1068.62 416.455 1068.95C415.972 1069.28 415.6 1069.7 415.339 1070.23C415.079 1070.76 414.949 1071.32 414.949 1071.92V1072.89C414.949 1073.71 415.091 1074.41 415.375 1074.98C415.664 1075.55 416.064 1075.98 416.575 1076.28C417.087 1076.57 417.681 1076.72 418.358 1076.72C418.798 1076.72 419.196 1076.66 419.551 1076.54C419.911 1076.41 420.221 1076.22 420.482 1075.97C420.742 1075.71 420.943 1075.4 421.085 1075.02L422.705 1075.47C422.534 1076.02 422.248 1076.5 421.845 1076.92C421.443 1077.33 420.946 1077.65 420.354 1077.89C419.762 1078.11 419.097 1078.23 418.358 1078.23ZM426.382 1067.09L428.995 1071.55L431.609 1067.09H433.541L430.018 1072.55L433.541 1078H431.609L428.995 1073.77L426.382 1078H424.45L427.916 1072.55L424.45 1067.09H426.382ZM440.677 1067.09V1068.51H435.023V1067.09H440.677ZM436.671 1064.48H438.347V1074.88C438.347 1075.35 438.416 1075.7 438.553 1075.94C438.695 1076.17 438.875 1076.33 439.093 1076.41C439.316 1076.48 439.55 1076.52 439.796 1076.52C439.981 1076.52 440.132 1076.51 440.251 1076.49C440.369 1076.47 440.464 1076.45 440.535 1076.44L440.876 1077.94C440.762 1077.99 440.603 1078.03 440.4 1078.07C440.196 1078.12 439.938 1078.14 439.626 1078.14C439.152 1078.14 438.688 1078.04 438.234 1077.84C437.784 1077.63 437.41 1077.32 437.112 1076.91C436.818 1076.49 436.671 1075.96 436.671 1075.33V1064.48ZM447.655 1078.23C446.604 1078.23 445.697 1078 444.935 1077.53C444.177 1077.06 443.592 1076.41 443.18 1075.57C442.773 1074.73 442.57 1073.75 442.57 1072.63C442.57 1071.51 442.773 1070.53 443.18 1069.68C443.592 1068.82 444.165 1068.15 444.899 1067.67C445.638 1067.19 446.5 1066.95 447.484 1066.95C448.053 1066.95 448.614 1067.04 449.168 1067.23C449.722 1067.42 450.226 1067.73 450.68 1068.16C451.135 1068.58 451.497 1069.14 451.767 1069.83C452.037 1070.53 452.172 1071.39 452.172 1072.4V1073.11H443.763V1071.66H450.467C450.467 1071.05 450.344 1070.5 450.098 1070.02C449.857 1069.53 449.511 1069.15 449.061 1068.87C448.616 1068.59 448.09 1068.45 447.484 1068.45C446.817 1068.45 446.239 1068.62 445.751 1068.95C445.268 1069.28 444.897 1069.7 444.636 1070.23C444.376 1070.76 444.246 1071.32 444.246 1071.92V1072.89C444.246 1073.71 444.388 1074.41 444.672 1074.98C444.961 1075.55 445.361 1075.98 445.872 1076.28C446.384 1076.57 446.978 1076.72 447.655 1076.72C448.095 1076.72 448.493 1076.66 448.848 1076.54C449.208 1076.41 449.518 1076.22 449.778 1075.97C450.039 1075.71 450.24 1075.4 450.382 1075.02L452.001 1075.47C451.831 1076.02 451.545 1076.5 451.142 1076.92C450.74 1077.33 450.242 1077.65 449.651 1077.89C449.059 1078.11 448.393 1078.23 447.655 1078.23ZM463.557 1078.26C462.866 1078.26 462.238 1078.13 461.675 1077.87C461.111 1077.6 460.664 1077.22 460.332 1076.72C460.001 1076.22 459.835 1075.61 459.835 1074.9C459.835 1074.28 459.958 1073.77 460.205 1073.38C460.451 1072.99 460.78 1072.68 461.192 1072.46C461.604 1072.24 462.058 1072.07 462.555 1071.96C463.057 1071.85 463.562 1071.76 464.068 1071.69C464.731 1071.61 465.268 1071.54 465.68 1071.5C466.097 1071.45 466.4 1071.38 466.589 1071.27C466.784 1071.16 466.881 1070.97 466.881 1070.7V1070.64C466.881 1069.94 466.689 1069.4 466.305 1069.01C465.927 1068.62 465.351 1068.43 464.58 1068.43C463.779 1068.43 463.152 1068.6 462.697 1068.95C462.243 1069.3 461.923 1069.68 461.739 1070.07L460.148 1069.51C460.432 1068.84 460.811 1068.33 461.284 1067.96C461.762 1067.58 462.283 1067.32 462.847 1067.18C463.415 1067.02 463.973 1066.95 464.523 1066.95C464.873 1066.95 465.276 1066.99 465.73 1067.08C466.189 1067.16 466.632 1067.33 467.058 1067.58C467.489 1067.84 467.847 1068.22 468.131 1068.74C468.415 1069.25 468.557 1069.95 468.557 1070.81V1078H466.881V1076.52H466.795C466.682 1076.76 466.492 1077.01 466.227 1077.28C465.962 1077.55 465.609 1077.78 465.169 1077.97C464.729 1078.16 464.191 1078.26 463.557 1078.26ZM463.812 1076.75C464.475 1076.75 465.034 1076.62 465.489 1076.36C465.948 1076.1 466.294 1075.76 466.526 1075.35C466.762 1074.94 466.881 1074.51 466.881 1074.05V1072.52C466.81 1072.6 466.653 1072.68 466.412 1072.75C466.175 1072.82 465.901 1072.88 465.588 1072.93C465.28 1072.98 464.98 1073.02 464.686 1073.06C464.397 1073.09 464.163 1073.12 463.983 1073.14C463.547 1073.2 463.14 1073.29 462.761 1073.42C462.387 1073.54 462.084 1073.73 461.852 1073.98C461.625 1074.23 461.511 1074.56 461.511 1074.99C461.511 1075.57 461.727 1076.01 462.158 1076.31C462.593 1076.6 463.145 1076.75 463.812 1076.75ZM471.616 1078V1067.09H473.235V1068.74H473.349C473.548 1068.2 473.908 1067.76 474.429 1067.42C474.949 1067.09 475.537 1066.92 476.19 1066.92C476.313 1066.92 476.467 1066.92 476.652 1066.93C476.836 1066.93 476.976 1066.94 477.071 1066.95V1068.65C477.014 1068.64 476.884 1068.62 476.68 1068.59C476.481 1068.56 476.27 1068.54 476.048 1068.54C475.518 1068.54 475.044 1068.65 474.627 1068.87C474.216 1069.09 473.889 1069.39 473.647 1069.78C473.411 1070.17 473.292 1070.6 473.292 1071.1V1078H471.616ZM484.485 1067.09V1068.51H478.832V1067.09H484.485ZM480.48 1064.48H482.156V1074.88C482.156 1075.35 482.225 1075.7 482.362 1075.94C482.504 1076.17 482.684 1076.33 482.902 1076.41C483.124 1076.48 483.359 1076.52 483.605 1076.52C483.789 1076.52 483.941 1076.51 484.059 1076.49C484.178 1076.47 484.272 1076.45 484.343 1076.44L484.684 1077.94C484.571 1077.99 484.412 1078.03 484.208 1078.07C484.005 1078.12 483.747 1078.14 483.434 1078.14C482.961 1078.14 482.497 1078.04 482.042 1077.84C481.592 1077.63 481.218 1077.32 480.92 1076.91C480.627 1076.49 480.48 1075.96 480.48 1075.33V1064.48ZM487.007 1078V1067.09H488.683V1078H487.007ZM487.859 1065.27C487.532 1065.27 487.251 1065.16 487.014 1064.94C486.782 1064.72 486.666 1064.45 486.666 1064.14C486.666 1063.82 486.782 1063.56 487.014 1063.33C487.251 1063.11 487.532 1063 487.859 1063C488.186 1063 488.465 1063.11 488.697 1063.33C488.934 1063.56 489.052 1063.82 489.052 1064.14C489.052 1064.45 488.934 1064.72 488.697 1064.94C488.465 1065.16 488.186 1065.27 487.859 1065.27ZM496.185 1078.23C495.162 1078.23 494.281 1077.99 493.543 1077.5C492.804 1077.02 492.236 1076.35 491.838 1075.51C491.44 1074.66 491.241 1073.69 491.241 1072.6C491.241 1071.49 491.445 1070.52 491.852 1069.67C492.264 1068.82 492.837 1068.15 493.571 1067.67C494.31 1067.19 495.171 1066.95 496.156 1066.95C496.923 1066.95 497.615 1067.09 498.23 1067.38C498.846 1067.66 499.35 1068.06 499.743 1068.57C500.136 1069.08 500.38 1069.68 500.474 1070.36H498.798C498.67 1069.86 498.386 1069.42 497.946 1069.04C497.51 1068.65 496.923 1068.45 496.185 1068.45C495.531 1068.45 494.958 1068.62 494.466 1068.97C493.978 1069.3 493.597 1069.78 493.322 1070.39C493.053 1071 492.918 1071.72 492.918 1072.55C492.918 1073.39 493.05 1074.12 493.315 1074.75C493.585 1075.37 493.964 1075.86 494.452 1076.2C494.944 1076.55 495.522 1076.72 496.185 1076.72C496.62 1076.72 497.016 1076.65 497.371 1076.49C497.726 1076.34 498.027 1076.12 498.273 1075.84C498.519 1075.56 498.694 1075.22 498.798 1074.82H500.474C500.38 1075.46 500.145 1076.04 499.771 1076.56C499.402 1077.07 498.912 1077.48 498.301 1077.78C497.695 1078.08 496.99 1078.23 496.185 1078.23ZM504.601 1063.45V1078H502.925V1063.45H504.601ZM512.245 1078.23C511.194 1078.23 510.287 1078 509.525 1077.53C508.767 1077.06 508.182 1076.41 507.77 1075.57C507.363 1074.73 507.159 1073.75 507.159 1072.63C507.159 1071.51 507.363 1070.53 507.77 1069.68C508.182 1068.82 508.755 1068.15 509.489 1067.67C510.228 1067.19 511.089 1066.95 512.074 1066.95C512.642 1066.95 513.203 1067.04 513.757 1067.23C514.311 1067.42 514.816 1067.73 515.27 1068.16C515.725 1068.58 516.087 1069.14 516.357 1069.83C516.627 1070.53 516.762 1071.39 516.762 1072.4V1073.11H508.353V1071.66H515.057C515.057 1071.05 514.934 1070.5 514.688 1070.02C514.446 1069.53 514.101 1069.15 513.651 1068.87C513.206 1068.59 512.68 1068.45 512.074 1068.45C511.407 1068.45 510.829 1068.62 510.341 1068.95C509.858 1069.28 509.487 1069.7 509.226 1070.23C508.966 1070.76 508.836 1071.32 508.836 1071.92V1072.89C508.836 1073.71 508.978 1074.41 509.262 1074.98C509.551 1075.55 509.951 1075.98 510.462 1076.28C510.973 1076.57 511.568 1076.72 512.245 1076.72C512.685 1076.72 513.083 1076.66 513.438 1076.54C513.798 1076.41 514.108 1076.22 514.368 1075.97C514.629 1075.71 514.83 1075.4 514.972 1075.02L516.591 1075.47C516.421 1076.02 516.134 1076.5 515.732 1076.92C515.329 1077.33 514.832 1077.65 514.24 1077.89C513.649 1078.11 512.983 1078.23 512.245 1078.23Z" fill="black"/>
<rect x="647" y="975" width="345" height="190" fill="#D9D9D9"/>
<path d="M761.966 1064.02V1062.45H772.875V1064.02H768.301V1077H766.54V1064.02H761.966ZM778.358 1077.23C777.307 1077.23 776.4 1077 775.638 1076.53C774.88 1076.06 774.295 1075.41 773.884 1074.57C773.476 1073.73 773.273 1072.75 773.273 1071.63C773.273 1070.51 773.476 1069.53 773.884 1068.68C774.295 1067.82 774.868 1067.15 775.602 1066.67C776.341 1066.19 777.203 1065.95 778.188 1065.95C778.756 1065.95 779.317 1066.04 779.871 1066.23C780.425 1066.42 780.929 1066.73 781.384 1067.16C781.838 1067.58 782.2 1068.14 782.47 1068.83C782.74 1069.53 782.875 1070.39 782.875 1071.4V1072.11H774.466V1070.66H781.17C781.17 1070.05 781.047 1069.5 780.801 1069.02C780.56 1068.53 780.214 1068.15 779.764 1067.87C779.319 1067.59 778.794 1067.45 778.188 1067.45C777.52 1067.45 776.942 1067.62 776.455 1067.95C775.972 1068.28 775.6 1068.7 775.339 1069.23C775.079 1069.76 774.949 1070.32 774.949 1070.92V1071.89C774.949 1072.71 775.091 1073.41 775.375 1073.98C775.664 1074.55 776.064 1074.98 776.575 1075.28C777.087 1075.57 777.681 1075.72 778.358 1075.72C778.798 1075.72 779.196 1075.66 779.551 1075.54C779.911 1075.41 780.221 1075.22 780.482 1074.97C780.742 1074.71 780.943 1074.4 781.085 1074.02L782.705 1074.47C782.534 1075.02 782.248 1075.5 781.845 1075.92C781.443 1076.33 780.946 1076.65 780.354 1076.89C779.762 1077.11 779.097 1077.23 778.358 1077.23ZM786.382 1066.09L788.995 1070.55L791.609 1066.09H793.541L790.018 1071.55L793.541 1077H791.609L788.995 1072.77L786.382 1077H784.45L787.916 1071.55L784.45 1066.09H786.382ZM800.677 1066.09V1067.51H795.023V1066.09H800.677ZM796.671 1063.48H798.347V1073.88C798.347 1074.35 798.416 1074.7 798.553 1074.94C798.695 1075.17 798.875 1075.33 799.093 1075.41C799.316 1075.48 799.55 1075.52 799.796 1075.52C799.981 1075.52 800.132 1075.51 800.251 1075.49C800.369 1075.47 800.464 1075.45 800.535 1075.44L800.876 1076.94C800.762 1076.99 800.603 1077.03 800.4 1077.07C800.196 1077.12 799.938 1077.14 799.626 1077.14C799.152 1077.14 798.688 1077.04 798.234 1076.84C797.784 1076.63 797.41 1076.32 797.112 1075.91C796.818 1075.49 796.671 1074.96 796.671 1074.33V1063.48ZM807.655 1077.23C806.604 1077.23 805.697 1077 804.935 1076.53C804.177 1076.06 803.592 1075.41 803.18 1074.57C802.773 1073.73 802.57 1072.75 802.57 1071.63C802.57 1070.51 802.773 1069.53 803.18 1068.68C803.592 1067.82 804.165 1067.15 804.899 1066.67C805.638 1066.19 806.5 1065.95 807.484 1065.95C808.053 1065.95 808.614 1066.04 809.168 1066.23C809.722 1066.42 810.226 1066.73 810.68 1067.16C811.135 1067.58 811.497 1068.14 811.767 1068.83C812.037 1069.53 812.172 1070.39 812.172 1071.4V1072.11H803.763V1070.66H810.467C810.467 1070.05 810.344 1069.5 810.098 1069.02C809.857 1068.53 809.511 1068.15 809.061 1067.87C808.616 1067.59 808.09 1067.45 807.484 1067.45C806.817 1067.45 806.239 1067.62 805.751 1067.95C805.268 1068.28 804.897 1068.7 804.636 1069.23C804.376 1069.76 804.246 1070.32 804.246 1070.92V1071.89C804.246 1072.71 804.388 1073.41 804.672 1073.98C804.961 1074.55 805.361 1074.98 805.872 1075.28C806.384 1075.57 806.978 1075.72 807.655 1075.72C808.095 1075.72 808.493 1075.66 808.848 1075.54C809.208 1075.41 809.518 1075.22 809.778 1074.97C810.039 1074.71 810.24 1074.4 810.382 1074.02L812.001 1074.47C811.831 1075.02 811.545 1075.5 811.142 1075.92C810.74 1076.33 810.242 1076.65 809.651 1076.89C809.059 1077.11 808.393 1077.23 807.655 1077.23ZM823.557 1077.26C822.866 1077.26 822.238 1077.13 821.675 1076.87C821.111 1076.6 820.664 1076.22 820.332 1075.72C820.001 1075.22 819.835 1074.61 819.835 1073.9C819.835 1073.28 819.958 1072.77 820.205 1072.38C820.451 1071.99 820.78 1071.68 821.192 1071.46C821.604 1071.24 822.058 1071.07 822.555 1070.96C823.057 1070.85 823.562 1070.76 824.068 1070.69C824.731 1070.61 825.268 1070.54 825.68 1070.5C826.097 1070.45 826.4 1070.38 826.589 1070.27C826.784 1070.16 826.881 1069.97 826.881 1069.7V1069.64C826.881 1068.94 826.689 1068.4 826.305 1068.01C825.927 1067.62 825.351 1067.43 824.58 1067.43C823.779 1067.43 823.152 1067.6 822.697 1067.95C822.243 1068.3 821.923 1068.68 821.739 1069.07L820.148 1068.51C820.432 1067.84 820.811 1067.33 821.284 1066.96C821.762 1066.58 822.283 1066.32 822.847 1066.18C823.415 1066.02 823.973 1065.95 824.523 1065.95C824.873 1065.95 825.276 1065.99 825.73 1066.08C826.189 1066.16 826.632 1066.33 827.058 1066.58C827.489 1066.84 827.847 1067.22 828.131 1067.74C828.415 1068.25 828.557 1068.95 828.557 1069.81V1077H826.881V1075.52H826.795C826.682 1075.76 826.492 1076.01 826.227 1076.28C825.962 1076.55 825.609 1076.78 825.169 1076.97C824.729 1077.16 824.191 1077.26 823.557 1077.26ZM823.812 1075.75C824.475 1075.75 825.034 1075.62 825.489 1075.36C825.948 1075.1 826.294 1074.76 826.526 1074.35C826.762 1073.94 826.881 1073.51 826.881 1073.05V1071.52C826.81 1071.6 826.653 1071.68 826.412 1071.75C826.175 1071.82 825.901 1071.88 825.588 1071.93C825.28 1071.98 824.98 1072.02 824.686 1072.06C824.397 1072.09 824.163 1072.12 823.983 1072.14C823.547 1072.2 823.14 1072.29 822.761 1072.42C822.387 1072.54 822.084 1072.73 821.852 1072.98C821.625 1073.23 821.511 1073.56 821.511 1073.99C821.511 1074.57 821.727 1075.01 822.158 1075.31C822.593 1075.6 823.145 1075.75 823.812 1075.75ZM831.616 1077V1066.09H833.235V1067.74H833.349C833.548 1067.2 833.908 1066.76 834.429 1066.42C834.949 1066.09 835.537 1065.92 836.19 1065.92C836.313 1065.92 836.467 1065.92 836.652 1065.93C836.836 1065.93 836.976 1065.94 837.071 1065.95V1067.65C837.014 1067.64 836.884 1067.62 836.68 1067.59C836.481 1067.56 836.27 1067.54 836.048 1067.54C835.518 1067.54 835.044 1067.65 834.627 1067.87C834.216 1068.09 833.889 1068.39 833.647 1068.78C833.411 1069.17 833.292 1069.6 833.292 1070.1V1077H831.616ZM844.485 1066.09V1067.51H838.832V1066.09H844.485ZM840.48 1063.48H842.156V1073.88C842.156 1074.35 842.225 1074.7 842.362 1074.94C842.504 1075.17 842.684 1075.33 842.902 1075.41C843.124 1075.48 843.359 1075.52 843.605 1075.52C843.789 1075.52 843.941 1075.51 844.059 1075.49C844.178 1075.47 844.272 1075.45 844.343 1075.44L844.684 1076.94C844.571 1076.99 844.412 1077.03 844.208 1077.07C844.005 1077.12 843.747 1077.14 843.434 1077.14C842.961 1077.14 842.497 1077.04 842.042 1076.84C841.592 1076.63 841.218 1076.32 840.92 1075.91C840.627 1075.49 840.48 1074.96 840.48 1074.33V1063.48ZM847.007 1077V1066.09H848.683V1077H847.007ZM847.859 1064.27C847.532 1064.27 847.251 1064.16 847.014 1063.94C846.782 1063.72 846.666 1063.45 846.666 1063.14C846.666 1062.82 846.782 1062.56 847.014 1062.33C847.251 1062.11 847.532 1062 847.859 1062C848.186 1062 848.465 1062.11 848.697 1062.33C848.934 1062.56 849.052 1062.82 849.052 1063.14C849.052 1063.45 848.934 1063.72 848.697 1063.94C848.465 1064.16 848.186 1064.27 847.859 1064.27ZM856.185 1077.23C855.162 1077.23 854.281 1076.99 853.543 1076.5C852.804 1076.02 852.236 1075.35 851.838 1074.51C851.44 1073.66 851.241 1072.69 851.241 1071.6C851.241 1070.49 851.445 1069.52 851.852 1068.67C852.264 1067.82 852.837 1067.15 853.571 1066.67C854.31 1066.19 855.171 1065.95 856.156 1065.95C856.923 1065.95 857.615 1066.09 858.23 1066.38C858.846 1066.66 859.35 1067.06 859.743 1067.57C860.136 1068.08 860.38 1068.68 860.474 1069.36H858.798C858.67 1068.86 858.386 1068.42 857.946 1068.04C857.51 1067.65 856.923 1067.45 856.185 1067.45C855.531 1067.45 854.958 1067.62 854.466 1067.97C853.978 1068.3 853.597 1068.78 853.322 1069.39C853.053 1070 852.918 1070.72 852.918 1071.55C852.918 1072.39 853.05 1073.12 853.315 1073.75C853.585 1074.37 853.964 1074.86 854.452 1075.2C854.944 1075.55 855.522 1075.72 856.185 1075.72C856.62 1075.72 857.016 1075.65 857.371 1075.49C857.726 1075.34 858.027 1075.12 858.273 1074.84C858.519 1074.56 858.694 1074.22 858.798 1073.82H860.474C860.38 1074.46 860.145 1075.04 859.771 1075.56C859.402 1076.07 858.912 1076.48 858.301 1076.78C857.695 1077.08 856.99 1077.23 856.185 1077.23ZM864.601 1062.45V1077H862.925V1062.45H864.601ZM872.245 1077.23C871.194 1077.23 870.287 1077 869.525 1076.53C868.767 1076.06 868.182 1075.41 867.77 1074.57C867.363 1073.73 867.159 1072.75 867.159 1071.63C867.159 1070.51 867.363 1069.53 867.77 1068.68C868.182 1067.82 868.755 1067.15 869.489 1066.67C870.228 1066.19 871.089 1065.95 872.074 1065.95C872.642 1065.95 873.203 1066.04 873.757 1066.23C874.311 1066.42 874.816 1066.73 875.27 1067.16C875.725 1067.58 876.087 1068.14 876.357 1068.83C876.627 1069.53 876.762 1070.39 876.762 1071.4V1072.11H868.353V1070.66H875.057C875.057 1070.05 874.934 1069.5 874.688 1069.02C874.446 1068.53 874.101 1068.15 873.651 1067.87C873.206 1067.59 872.68 1067.45 872.074 1067.45C871.407 1067.45 870.829 1067.62 870.341 1067.95C869.858 1068.28 869.487 1068.7 869.226 1069.23C868.966 1069.76 868.836 1070.32 868.836 1070.92V1071.89C868.836 1072.71 868.978 1073.41 869.262 1073.98C869.551 1074.55 869.951 1074.98 870.462 1075.28C870.973 1075.57 871.568 1075.72 872.245 1075.72C872.685 1075.72 873.083 1075.66 873.438 1075.54C873.798 1075.41 874.108 1075.22 874.368 1074.97C874.629 1074.71 874.83 1074.4 874.972 1074.02L876.591 1074.47C876.421 1075.02 876.134 1075.5 875.732 1075.92C875.329 1076.33 874.832 1076.65 874.24 1076.89C873.649 1077.11 872.983 1077.23 872.245 1077.23Z" fill="black"/>
<rect x="648" y="545" width="345" height="190" fill="#D9D9D9"/>
<path d="M762.966 634.017V632.455H773.875V634.017H769.301V647H767.54V634.017H762.966ZM779.358 647.227C778.307 647.227 777.4 646.995 776.638 646.531C775.88 646.062 775.295 645.409 774.884 644.571C774.476 643.728 774.273 642.748 774.273 641.631C774.273 640.513 774.476 639.528 774.884 638.676C775.295 637.819 775.868 637.152 776.602 636.673C777.341 636.19 778.203 635.949 779.188 635.949C779.756 635.949 780.317 636.044 780.871 636.233C781.425 636.422 781.929 636.73 782.384 637.156C782.838 637.578 783.2 638.136 783.47 638.832C783.74 639.528 783.875 640.385 783.875 641.403V642.114H775.466V640.665H782.17C782.17 640.049 782.047 639.5 781.801 639.017C781.56 638.534 781.214 638.153 780.764 637.874C780.319 637.594 779.794 637.455 779.188 637.455C778.52 637.455 777.942 637.62 777.455 637.952C776.972 638.278 776.6 638.705 776.339 639.23C776.079 639.756 775.949 640.319 775.949 640.92V641.886C775.949 642.71 776.091 643.409 776.375 643.982C776.664 644.55 777.064 644.983 777.575 645.281C778.087 645.575 778.681 645.722 779.358 645.722C779.798 645.722 780.196 645.66 780.551 645.537C780.911 645.409 781.221 645.22 781.482 644.969C781.742 644.713 781.943 644.396 782.085 644.017L783.705 644.472C783.534 645.021 783.248 645.504 782.845 645.92C782.443 646.332 781.946 646.654 781.354 646.886C780.762 647.114 780.097 647.227 779.358 647.227ZM787.382 636.091L789.995 640.551L792.609 636.091H794.541L791.018 641.545L794.541 647H792.609L789.995 642.767L787.382 647H785.45L788.916 641.545L785.45 636.091H787.382ZM801.677 636.091V637.511H796.023V636.091H801.677ZM797.671 633.477H799.347V643.875C799.347 644.348 799.416 644.704 799.553 644.94C799.695 645.172 799.875 645.329 800.093 645.409C800.316 645.485 800.55 645.523 800.796 645.523C800.981 645.523 801.132 645.513 801.251 645.494C801.369 645.471 801.464 645.452 801.535 645.438L801.876 646.943C801.762 646.986 801.603 647.028 801.4 647.071C801.196 647.118 800.938 647.142 800.626 647.142C800.152 647.142 799.688 647.04 799.234 646.837C798.784 646.633 798.41 646.323 798.112 645.906C797.818 645.49 797.671 644.964 797.671 644.33V633.477ZM808.655 647.227C807.604 647.227 806.697 646.995 805.935 646.531C805.177 646.062 804.592 645.409 804.18 644.571C803.773 643.728 803.57 642.748 803.57 641.631C803.57 640.513 803.773 639.528 804.18 638.676C804.592 637.819 805.165 637.152 805.899 636.673C806.638 636.19 807.5 635.949 808.484 635.949C809.053 635.949 809.614 636.044 810.168 636.233C810.722 636.422 811.226 636.73 811.68 637.156C812.135 637.578 812.497 638.136 812.767 638.832C813.037 639.528 813.172 640.385 813.172 641.403V642.114H804.763V640.665H811.467C811.467 640.049 811.344 639.5 811.098 639.017C810.857 638.534 810.511 638.153 810.061 637.874C809.616 637.594 809.09 637.455 808.484 637.455C807.817 637.455 807.239 637.62 806.751 637.952C806.268 638.278 805.897 638.705 805.636 639.23C805.376 639.756 805.246 640.319 805.246 640.92V641.886C805.246 642.71 805.388 643.409 805.672 643.982C805.961 644.55 806.361 644.983 806.872 645.281C807.384 645.575 807.978 645.722 808.655 645.722C809.095 645.722 809.493 645.66 809.848 645.537C810.208 645.409 810.518 645.22 810.778 644.969C811.039 644.713 811.24 644.396 811.382 644.017L813.001 644.472C812.831 645.021 812.545 645.504 812.142 645.92C811.74 646.332 811.242 646.654 810.651 646.886C810.059 647.114 809.393 647.227 808.655 647.227ZM824.557 647.256C823.866 647.256 823.238 647.125 822.675 646.865C822.111 646.6 821.664 646.219 821.332 645.722C821.001 645.22 820.835 644.614 820.835 643.903C820.835 643.278 820.958 642.772 821.205 642.384C821.451 641.991 821.78 641.683 822.192 641.46C822.604 641.238 823.058 641.072 823.555 640.963C824.057 640.849 824.562 640.759 825.068 640.693C825.731 640.608 826.268 640.544 826.68 640.501C827.097 640.454 827.4 640.376 827.589 640.267C827.784 640.158 827.881 639.969 827.881 639.699V639.642C827.881 638.941 827.689 638.397 827.305 638.009C826.927 637.62 826.351 637.426 825.58 637.426C824.779 637.426 824.152 637.601 823.697 637.952C823.243 638.302 822.923 638.676 822.739 639.074L821.148 638.506C821.432 637.843 821.811 637.327 822.284 636.957C822.762 636.583 823.283 636.323 823.847 636.176C824.415 636.025 824.973 635.949 825.523 635.949C825.873 635.949 826.276 635.991 826.73 636.077C827.189 636.157 827.632 636.325 828.058 636.581C828.489 636.837 828.847 637.223 829.131 637.739C829.415 638.255 829.557 638.946 829.557 639.812V647H827.881V645.523H827.795C827.682 645.759 827.492 646.013 827.227 646.283C826.962 646.553 826.609 646.782 826.169 646.972C825.729 647.161 825.191 647.256 824.557 647.256ZM824.812 645.75C825.475 645.75 826.034 645.62 826.489 645.359C826.948 645.099 827.294 644.763 827.526 644.351C827.762 643.939 827.881 643.506 827.881 643.051V641.517C827.81 641.602 827.653 641.68 827.412 641.751C827.175 641.818 826.901 641.877 826.588 641.929C826.28 641.976 825.98 642.019 825.686 642.057C825.397 642.09 825.163 642.118 824.983 642.142C824.547 642.199 824.14 642.291 823.761 642.419C823.387 642.542 823.084 642.729 822.852 642.98C822.625 643.226 822.511 643.562 822.511 643.989C822.511 644.571 822.727 645.011 823.158 645.31C823.593 645.603 824.145 645.75 824.812 645.75ZM832.616 647V636.091H834.235V637.739H834.349C834.548 637.199 834.908 636.761 835.429 636.425C835.949 636.089 836.537 635.92 837.19 635.92C837.313 635.92 837.467 635.923 837.652 635.928C837.836 635.932 837.976 635.939 838.071 635.949V637.653C838.014 637.639 837.884 637.618 837.68 637.589C837.481 637.556 837.27 637.54 837.048 637.54C836.518 637.54 836.044 637.651 835.627 637.874C835.216 638.091 834.889 638.394 834.647 638.783C834.411 639.166 834.292 639.604 834.292 640.097V647H832.616ZM845.485 636.091V637.511H839.832V636.091H845.485ZM841.48 633.477H843.156V643.875C843.156 644.348 843.225 644.704 843.362 644.94C843.504 645.172 843.684 645.329 843.902 645.409C844.124 645.485 844.359 645.523 844.605 645.523C844.789 645.523 844.941 645.513 845.059 645.494C845.178 645.471 845.272 645.452 845.343 645.438L845.684 646.943C845.571 646.986 845.412 647.028 845.208 647.071C845.005 647.118 844.747 647.142 844.434 647.142C843.961 647.142 843.497 647.04 843.042 646.837C842.592 646.633 842.218 646.323 841.92 645.906C841.627 645.49 841.48 644.964 841.48 644.33V633.477ZM848.007 647V636.091H849.683V647H848.007ZM848.859 634.273C848.532 634.273 848.251 634.161 848.014 633.939C847.782 633.716 847.666 633.449 847.666 633.136C847.666 632.824 847.782 632.556 848.014 632.334C848.251 632.111 848.532 632 848.859 632C849.186 632 849.465 632.111 849.697 632.334C849.934 632.556 850.052 632.824 850.052 633.136C850.052 633.449 849.934 633.716 849.697 633.939C849.465 634.161 849.186 634.273 848.859 634.273ZM857.185 647.227C856.162 647.227 855.281 646.986 854.543 646.503C853.804 646.02 853.236 645.355 852.838 644.507C852.44 643.66 852.241 642.691 852.241 641.602C852.241 640.494 852.445 639.517 852.852 638.669C853.264 637.817 853.837 637.152 854.571 636.673C855.31 636.19 856.171 635.949 857.156 635.949C857.923 635.949 858.615 636.091 859.23 636.375C859.846 636.659 860.35 637.057 860.743 637.568C861.136 638.08 861.38 638.676 861.474 639.358H859.798C859.67 638.861 859.386 638.42 858.946 638.037C858.51 637.649 857.923 637.455 857.185 637.455C856.531 637.455 855.958 637.625 855.466 637.966C854.978 638.302 854.597 638.778 854.322 639.393C854.053 640.004 853.918 640.722 853.918 641.545C853.918 642.388 854.05 643.122 854.315 643.747C854.585 644.372 854.964 644.857 855.452 645.203C855.944 645.549 856.522 645.722 857.185 645.722C857.62 645.722 858.016 645.646 858.371 645.494C858.726 645.343 859.027 645.125 859.273 644.841C859.519 644.557 859.694 644.216 859.798 643.818H861.474C861.38 644.462 861.145 645.042 860.771 645.558C860.402 646.07 859.912 646.477 859.301 646.78C858.695 647.078 857.99 647.227 857.185 647.227ZM865.601 632.455V647H863.925V632.455H865.601ZM873.245 647.227C872.194 647.227 871.287 646.995 870.525 646.531C869.767 646.062 869.182 645.409 868.77 644.571C868.363 643.728 868.159 642.748 868.159 641.631C868.159 640.513 868.363 639.528 868.77 638.676C869.182 637.819 869.755 637.152 870.489 636.673C871.228 636.19 872.089 635.949 873.074 635.949C873.642 635.949 874.203 636.044 874.757 636.233C875.311 636.422 875.816 636.73 876.27 637.156C876.725 637.578 877.087 638.136 877.357 638.832C877.627 639.528 877.762 640.385 877.762 641.403V642.114H869.353V640.665H876.057C876.057 640.049 875.934 639.5 875.688 639.017C875.446 638.534 875.101 638.153 874.651 637.874C874.206 637.594 873.68 637.455 873.074 637.455C872.407 637.455 871.829 637.62 871.341 637.952C870.858 638.278 870.487 638.705 870.226 639.23C869.966 639.756 869.836 640.319 869.836 640.92V641.886C869.836 642.71 869.978 643.409 870.262 643.982C870.551 644.55 870.951 644.983 871.462 645.281C871.973 645.575 872.568 645.722 873.245 645.722C873.685 645.722 874.083 645.66 874.438 645.537C874.798 645.409 875.108 645.22 875.368 644.969C875.629 644.713 875.83 644.396 875.972 644.017L877.591 644.472C877.421 645.021 877.134 645.504 876.732 645.92C876.329 646.332 875.832 646.654 875.24 646.886C874.649 647.114 873.983 647.227 873.245 647.227Z" fill="black"/>
<rect x="0.5" y="0.5" width="1279" height="1543" stroke="black"/>
<defs>
<filter id="filter0_d_3_6" x="284" y="320" width="353" height="423" filterUnits="userSpaceOnUse" color-interpolation-filters="sRGB">
<feFlood flood-opacity="0" result="BackgroundImageFix"/>
<feColorMatrix in="SourceAlpha" type="matrix" values="0 0 0 0 0 0 0 0 0 0 0 0 0 0 0 0 0 0 127 0" result="hardAlpha"/>
<feOffset dy="4"/>
<feGaussianBlur stdDeviation="2"/>
<feComposite in2="hardAlpha" operator="out"/>
<feColorMatrix type="matrix" values="0 0 0 0 0 0 0 0 0 0 0 0 0 0 0 0 0 0 0.25 0"/>
<feBlend mode="normal" in2="BackgroundImageFix" result="effect1_dropShadow_3_6"/>
<feBlend mode="normal" in="SourceGraphic" in2="effect1_dropShadow_3_6" result="shape"/>
</filter>
<filter id="filter1_d_3_6" x="644" y="320" width="353" height="423" filterUnits="userSpaceOnUse" color-interpolation-filters="sRGB">
<feFlood flood-opacity="0" result="BackgroundImageFix"/>
<feColorMatrix in="SourceAlpha" type="matrix" values="0 0 0 0 0 0 0 0 0 0 0 0 0 0 0 0 0 0 127 0" result="hardAlpha"/>
<feOffset dy="4"/>
<feGaussianBlur stdDeviation="2"/>
<feComposite in2="hardAlpha" operator="out"/>
<feColorMatrix type="matrix" values="0 0 0 0 0 0 0 0 0 0 0 0 0 0 0 0 0 0 0.25 0"/>
<feBlend mode="normal" in2="BackgroundImageFix" result="effect1_dropShadow_3_6"/>
<feBlend mode="normal" in="SourceGraphic" in2="effect1_dropShadow_3_6" result="shape"/>
</filter>
<filter id="filter2_d_3_6" x="283" y="750" width="353" height="423" filterUnits="userSpaceOnUse" color-interpolation-filters="sRGB">
<feFlood flood-opacity="0" result="BackgroundImageFix"/>
<feColorMatrix in="SourceAlpha" type="matrix" values="0 0 0 0 0 0 0 0 0 0 0 0 0 0 0 0 0 0 127 0" result="hardAlpha"/>
<feOffset dy="4"/>
<feGaussianBlur stdDeviation="2"/>
<feComposite in2="hardAlpha" operator="out"/>
<feColorMatrix type="matrix" values="0 0 0 0 0 0 0 0 0 0 0 0 0 0 0 0 0 0 0.25 0"/>
<feBlend mode="normal" in2="BackgroundImageFix" result="effect1_dropShadow_3_6"/>
<feBlend mode="normal" in="SourceGraphic" in2="effect1_dropShadow_3_6" result="shape"/>
</filter>
<filter id="filter3_d_3_6" x="643" y="750" width="353" height="423" filterUnits="userSpaceOnUse" color-interpolation-filters="sRGB">
<feFlood flood-opacity="0" result="BackgroundImageFix"/>
<feColorMatrix in="SourceAlpha" type="matrix" values="0 0 0 0 0 0 0 0 0 0 0 0 0 0 0 0 0 0 127 0" result="hardAlpha"/>
<feOffset dy="4"/>
<feGaussianBlur stdDeviation="2"/>
<feComposite in2="hardAlpha" operator="out"/>
<feColorMatrix type="matrix" values="0 0 0 0 0 0 0 0 0 0 0 0 0 0 0 0 0 0 0.25 0"/>
<feBlend mode="normal" in2="BackgroundImageFix" result="effect1_dropShadow_3_6"/>
<feBlend mode="normal" in="SourceGraphic" in2="effect1_dropShadow_3_6" result="shape"/>
</filter>
</defs>
</svg>
