<?xml version="1.0" encoding="UTF-8"?>
<svg xmlns="http://www.w3.org/2000/svg" xmlns:xlink="http://www.w3.org/1999/xlink" width="50px" height="37px" viewBox="0 0 50 37" version="1.1">
<g id="surface1">
<path style="fill-rule:nonzero;fill:rgb(0%,0%,0%);fill-opacity:1;stroke-width:1;stroke-linecap:butt;stroke-linejoin:miter;stroke:rgb(100%,100%,100%);stroke-opacity:1;stroke-miterlimit:10;" d="M 1315.62915 610.595497 C 1315.62915 876.441763 1100.095556 1092.006727 834.279682 1092.006727 C 568.463808 1092.006727 352.930214 876.441763 352.930214 610.595497 C 352.930214 344.749231 568.463808 129.184267 834.279682 129.184267 C 1100.095556 129.184267 1315.62915 344.749231 1315.62915 610.595497 Z M 1315.62915 610.595497 " transform="matrix(0.0292878,0,0,0.0302983,0.565802,0)"/>
<path style=" stroke:none;fill-rule:nonzero;fill:rgb(100%,100%,100%);fill-opacity:1;" d="M 16.316406 10.050781 L 23.054688 19.371094 L 16.273438 26.949219 L 17.800781 26.949219 L 23.738281 20.3125 L 28.53125 26.949219 L 33.726562 26.949219 L 26.605469 17.105469 L 32.921875 10.050781 L 31.394531 10.050781 L 25.929688 16.15625 L 21.511719 10.050781 Z M 18.5625 11.214844 L 20.945312 11.214844 L 31.480469 25.785156 L 29.09375 25.785156 Z M 18.5625 11.214844 "/>
</g>
</svg>
