<svg width="18" height="20" viewBox="0 0 18 20" fill="none" xmlns="http://www.w3.org/2000/svg">
<path id="ico linkedin" d="M9 0C4.0302 0 0 4.478 0 10C0 15.522 4.0302 20 9 20C13.9698 20 18 15.522 18 10C18 4.478 13.9698 0 9 0ZM6.3847 15.1172H4.19279V7.79007H6.3847V15.1172ZM5.28882 6.78955H5.27454C4.539 6.78955 4.06329 6.22696 4.06329 5.52383C4.06329 4.80484 4.55356 4.25781 5.30338 4.25781C6.05319 4.25781 6.51462 4.80484 6.5289 5.52383C6.5289 6.22696 6.05319 6.78955 5.28882 6.78955ZM14.2883 15.1172H12.0966V11.1974C12.0966 10.2122 11.7793 9.54041 10.9862 9.54041C10.3807 9.54041 10.0201 9.99359 9.8616 10.4311C9.80365 10.5876 9.78951 10.8064 9.78951 11.0254V15.1172H7.59773C7.59773 15.1172 7.62643 8.47748 7.59773 7.79007H9.78951V8.82751C10.0808 8.32825 10.6019 7.6181 11.7648 7.6181C13.2069 7.6181 14.2883 8.66531 14.2883 10.9158V15.1172Z" fill="#333333"/>
</svg>
