<svg width="18" height="20" viewBox="0 0 18 20" fill="none" xmlns="http://www.w3.org/2000/svg">
<path id="ico fb" d="M18 10C18 4.47656 13.9711 0 9 0C4.02891 0 0 4.47656 0 10C0 15.5234 4.02891 20 9 20C9.05273 20 9.10547 20 9.1582 19.9961V12.2148H7.22461V9.71094H9.1582V7.86719C9.1582 5.73047 10.3324 4.56641 12.048 4.56641C12.8707 4.56641 13.5773 4.63281 13.7812 4.66406V6.89844H12.6C11.6684 6.89844 11.4855 7.39062 11.4855 8.11328V9.70703H13.718L13.4262 12.2109H11.4855V19.6133C15.2473 18.4141 18 14.5664 18 10Z" fill="#333333"/>
</svg>
