<svg width="18" height="20" viewBox="0 0 18 20" fill="none" xmlns="http://www.w3.org/2000/svg">
<path id="ico twitter" d="M9 0C4.0302 0 0 4.478 0 10C0 15.522 4.0302 20 9 20C13.9698 20 18 15.522 18 10C18 4.478 13.9698 0 9 0ZM13.1093 7.79694C13.1133 7.89536 13.1152 7.99423 13.1152 8.09357C13.1152 11.1266 11.0374 14.624 7.23766 14.6242H7.23779H7.23766C6.07104 14.6242 4.98546 14.2442 4.07126 13.5931C4.23289 13.6143 4.39742 13.6249 4.564 13.6249C5.53189 13.6249 6.42261 13.2581 7.12971 12.6424C6.2254 12.6237 5.46295 11.9601 5.19983 11.0481C5.32576 11.075 5.45526 11.0896 5.58806 11.0896C5.77661 11.0896 5.95926 11.0614 6.13284 11.0088C5.18761 10.7985 4.47556 9.8703 4.47556 8.75885C4.47556 8.74847 4.47556 8.73917 4.47583 8.72955C4.7542 8.90152 5.07253 9.00497 5.41145 9.01657C4.85678 8.60535 4.49217 7.90237 4.49217 7.10602C4.49217 6.68549 4.59448 6.2915 4.77191 5.9523C5.79062 7.34116 7.31305 8.25455 9.02994 8.35052C8.99451 8.18237 8.97624 8.0072 8.97624 7.82715C8.97624 6.56006 9.90143 5.53207 11.0422 5.53207C11.6364 5.53207 12.1731 5.81116 12.5501 6.25732C13.0207 6.15417 13.4626 5.96313 13.8619 5.70023C13.7074 6.23596 13.38 6.68549 12.9534 6.96976C13.3713 6.91422 13.7696 6.79108 14.1397 6.60828C13.8632 7.06863 13.5126 7.47299 13.1093 7.79694Z" fill="#333333"/>
</svg>
