<svg width="200" height="94" viewBox="0 0 200 94" fill="none" xmlns="http://www.w3.org/2000/svg">
<path d="M36.0042 28.5801C34.4015 30.2022 32.8082 32.0454 31.2245 34.1096C29.6748 36.115 28.1792 38.2302 26.738 40.455C25.343 42.6674 24.0363 44.9308 22.8178 47.245C21.5992 49.5592 20.5243 51.7605 19.593 53.8486C17.7429 58.0714 16.671 61.4893 16.3773 64.1023C16.0712 66.669 16.3805 68.1018 17.3054 68.4006C18.2427 68.7457 19.7163 67.7546 21.7264 65.427C23.7489 63.1458 26.1575 59.2455 28.9522 53.7261C30.1244 51.4243 31.0987 49.1258 31.8751 46.8307C32.6979 44.5231 33.3709 42.3053 33.894 40.1774C34.4046 38.0032 34.8242 35.9527 35.1527 34.026C35.4689 32.053 35.7527 30.2377 36.0042 28.5801ZM18.4443 39.5466C17.9691 40.3697 17.2666 41.1791 16.3369 41.9748C15.3948 42.7242 14.352 43.3763 13.2086 43.9311C12.0653 44.4859 10.8615 44.9079 9.59721 45.1969C8.36688 45.4272 7.1796 45.4472 6.03535 45.2569C4.93746 45.0541 3.94594 44.5992 3.0608 43.8922C2.16323 43.1389 1.52188 42.0435 1.13676 40.6062C0.593465 38.7641 0.474879 36.5597 0.781001 33.993C1.12107 31.3675 1.80886 28.6489 2.84439 25.837C3.87992 23.0252 5.24167 20.2254 6.92963 17.4375C8.65153 14.5908 10.6227 12.0252 12.8431 9.74072C15.0974 7.39741 17.5794 5.44032 20.2892 3.86946C22.9865 2.25223 25.8686 1.23153 28.9353 0.807349C31.9556 0.395597 34.4494 0.522475 36.4167 1.18798C38.4179 1.7947 40.0069 2.81005 41.1835 4.23404C42.4065 5.64559 43.2913 7.37139 43.838 9.41143C44.4309 11.439 44.8232 13.6447 45.0146 16.0283C46.5629 15.3153 47.9554 15.0416 49.1924 15.2071C50.4294 15.3726 51.5012 15.7562 52.4079 16.3581C50.8257 17.1299 49.3504 18.0221 47.9819 19.0348C46.6009 20.0012 45.5971 20.8913 44.9704 21.7052C44.9267 23.9531 44.7303 26.4656 44.3811 29.2426C44.0783 32.0071 43.5856 34.8972 42.9027 37.9126C42.2199 40.9281 41.3579 44.0165 40.3166 47.1777C39.2629 50.2925 37.9864 53.318 36.4873 56.2541C34.9326 59.3541 33.1904 62.0322 31.2606 64.2886C29.3897 66.5789 27.4532 68.4394 25.4514 69.8703C23.4959 71.2888 21.597 72.2697 19.7549 72.8129C17.9127 73.3562 16.2895 73.4185 14.8853 72.9997C13.481 72.5808 12.3715 71.6855 11.5567 70.3136C10.7882 68.9294 10.4349 66.9618 10.4968 64.4108C10.6365 62.336 11.0913 59.9531 11.861 57.2621C12.6772 54.5588 13.9226 51.4174 15.5972 47.838C16.5748 45.7374 17.7843 43.5747 19.2256 41.3499C20.6669 39.125 22.2828 36.9031 24.0735 34.684C25.8518 32.4185 27.794 30.2086 29.9001 28.054C31.9938 25.8532 34.2175 23.7665 36.5712 21.7941C36.5985 21.3396 36.6022 20.5187 36.5822 19.3314C36.5498 18.0977 36.4632 16.7544 36.3223 15.3013C36.2153 13.7895 36.0033 12.2561 35.686 10.7013C35.3564 9.10002 34.8615 7.71696 34.2015 6.55208C33.5879 5.37478 32.7814 4.49763 31.782 3.92064C30.8166 3.28485 29.6152 3.15952 28.1779 3.54464C26.6139 4.0134 24.9486 5.0311 23.1819 6.59774C21.4027 8.11802 19.6704 9.99845 17.9849 12.239C16.3333 14.4209 14.8134 16.8158 13.4251 19.424C12.0244 21.9858 10.9206 24.5427 10.1135 27.0945C9.29408 29.5999 8.83932 31.9828 8.74927 34.2432C8.64679 36.4571 9.09115 38.301 10.0823 39.7746C10.4417 40.374 10.9323 40.8141 11.5541 41.0947C12.176 41.3753 12.8826 41.509 13.6742 41.4956C14.4657 41.4823 15.2663 41.3175 16.076 41.0011C16.9321 40.6724 17.7215 40.1875 18.4443 39.5466Z" fill="black"/>
<path d="M64.3746 24.8543C64.5104 24.6192 64.7236 24.4875 65.0142 24.4593C65.3512 24.4187 65.6836 24.4539 66.0115 24.5648C66.3393 24.6757 66.6163 24.8748 66.8424 25.1621C67.056 25.403 67.1136 25.7106 67.0151 26.0849C66.8969 28.0546 66.5236 30.0926 65.8954 32.199C65.3011 34.2466 64.5197 36.2449 63.5512 38.194C62.5826 40.1431 61.5073 41.9717 60.3251 43.6799C59.1429 45.3881 57.9218 46.8582 56.6618 48.0903C56.0657 48.6476 55.3611 48.9854 54.5481 49.1039C53.735 49.2224 52.8909 49.2249 52.0158 49.1116C51.1282 48.9519 50.2977 48.7271 49.5244 48.4374C48.7511 48.1477 48.0999 47.8501 47.5708 47.5446C46.4414 46.8534 45.6253 45.7552 45.1226 44.25C44.6075 42.6985 44.3395 40.9565 44.3187 39.024C44.2514 37.104 44.3974 35.0523 44.7565 32.869C45.1157 30.6856 45.5986 28.5933 46.2053 26.5921C46.8584 24.5785 47.6138 22.761 48.4714 21.1398C49.329 19.5186 50.2103 18.2638 51.1151 17.3753C51.6773 16.8768 52.2365 16.553 52.7929 16.404C53.3369 16.2085 53.9413 16.1459 54.6061 16.2163C55.2585 16.2402 55.942 16.3801 56.6566 16.6359C57.4051 16.8328 58.2355 17.0576 59.1479 17.31C60.447 17.7073 61.1931 18.4516 61.3861 19.5428C61.5227 20.0528 61.5564 21.0128 61.4869 22.4229C61.4639 23.8205 61.274 25.3373 60.9173 26.9733C60.5945 28.5506 60.0677 30.1081 59.3367 31.6456C58.6397 33.1244 57.698 34.2464 56.5116 35.0115C55.6464 35.4918 54.8537 35.7788 54.1334 35.8724C53.4131 35.966 52.5859 35.9392 51.652 35.7919C51.5444 36.3176 51.4758 37.0814 51.446 38.0833C51.4039 39.0387 51.4375 39.9987 51.5469 40.9633C51.6562 41.9278 51.8335 42.7748 52.0786 43.5042C52.3114 44.1873 52.6951 44.5068 53.23 44.4629C54.0091 44.4032 54.9467 43.7296 56.0428 42.442C57.1853 41.1421 58.2996 39.5515 59.3857 37.6702C60.4594 35.7427 61.4602 33.6359 62.3881 31.3498C63.3161 29.0637 63.9782 26.8986 64.3746 24.8543ZM56.041 21.5714C55.6643 22.0201 55.2293 22.8076 54.7359 23.9336C54.2765 25.0009 53.8357 26.1377 53.4136 27.3441C53.0378 28.538 52.7129 29.6438 52.4389 30.6614C52.2113 31.6665 52.1286 32.285 52.1907 32.5168C53.0625 32.4323 53.7592 31.9723 54.2808 31.1369C54.8487 30.289 55.2804 29.3037 55.5759 28.181C55.9053 26.9994 56.0832 25.8088 56.1096 24.6091C56.1823 23.397 56.1595 22.3844 56.041 21.5714Z" fill="black"/>
<path d="M74.0596 62.8835C74.2699 62.9265 74.4508 62.9526 74.6023 62.9617C74.7539 62.9708 74.9116 63.003 75.0755 63.0585C75.2519 63.1603 75.3989 63.2452 75.5164 63.3131C75.6804 63.3685 75.8211 63.4302 75.9387 63.4981C76.1399 63.6926 76.2298 63.8425 76.2083 63.9476C75.9285 65.3146 75.5933 66.8455 75.2027 68.5404C74.8584 70.2228 74.4123 72.0816 73.8644 74.1168C72.7222 78.1995 71.2756 81.1463 69.5246 82.9572C68.8822 83.5269 67.9164 83.9099 66.6273 84.1063C66.0336 84.1163 65.457 84.0968 64.8973 84.048C64.3839 83.9868 63.8288 83.8623 63.2318 83.6744C62.1678 83.4128 61.4731 82.953 61.1477 82.2948C60.5838 81.3029 60.2649 79.6491 60.191 77.3333C60.1371 76.2048 60.1125 75.0933 60.1174 73.9987C60.1562 72.8454 60.1951 71.692 60.2339 70.5387C60.3191 69.3729 60.4121 68.3293 60.513 67.4077C60.6479 66.4274 60.7675 65.5755 60.8717 64.8518C60.1929 66.0276 59.5282 67.3486 58.8775 68.815C58.2608 70.2226 57.7 71.8388 57.1951 73.6637C56.6314 75.4546 56.1559 77.2964 55.7686 79.1891C55.4277 81.0695 55.1687 82.9775 54.9917 84.9133C54.9644 85.3678 54.5674 85.6481 53.8007 85.7542C53.1516 85.9281 52.3709 85.8888 51.4584 85.6364C50.6975 85.393 50.1775 84.936 49.8984 84.2654C49.65 83.3381 49.4921 81.9145 49.4249 79.9945C49.3958 78.9587 49.3498 77.9523 49.2868 76.9753C49.2701 75.9859 49.2597 75.0197 49.2555 74.0767C49.2388 73.0873 49.2487 72.2895 49.2851 71.6834C49.3215 71.0774 49.3487 70.6228 49.3669 70.3198C48.429 72.0122 47.3674 75.005 46.1821 79.298C45.486 81.522 44.8532 83.7041 44.2838 85.8444C43.7483 87.9259 43.2422 90.0244 42.7655 92.1399C42.6115 92.6781 42.0879 93.042 41.1945 93.2317C40.706 93.2632 40.2639 93.2823 39.8681 93.2889C39.4136 93.2617 38.9698 93.1818 38.5367 93.0494C37.6955 92.8772 37.1478 92.5022 36.8936 91.9243C36.3021 88.6042 36.1639 84.1937 36.4789 78.6928C36.6765 75.9067 36.921 73.4808 37.2122 71.415C37.5499 69.3368 37.9744 67.5831 38.486 66.1541C38.6184 65.721 39.0448 65.4577 39.7651 65.3641C40.0682 65.3823 40.3944 65.3942 40.7438 65.4C41.0932 65.4058 41.455 65.4579 41.8292 65.5564C42.2159 65.7012 42.55 65.8353 42.8315 65.9587C43.1594 66.0696 43.4471 66.2161 43.6947 66.3983C44.2362 66.7501 44.4809 67.1069 44.4288 67.4687C44.1821 68.0318 43.9602 68.6875 43.7633 69.436C43.5663 70.1845 43.337 71.0907 43.0755 72.1547C42.5954 74.0723 42.2255 76.3082 41.9658 78.8625C42.2091 78.1015 42.4909 77.2061 42.8113 76.1761C43.1655 75.0873 43.5645 73.8871 44.0082 72.5756C44.4519 71.2641 44.9017 69.9758 45.3578 68.7106C45.8015 67.3991 46.287 66.1509 46.8143 64.966C47.6462 62.507 48.4496 60.776 49.2245 59.7733C49.669 59.207 50.3227 58.9573 51.1854 59.0243C51.6275 59.0052 52.0651 59.0619 52.4981 59.1943C52.9651 59.2679 53.3812 59.4298 53.7463 59.6798C54.696 60.0713 55.1821 60.5871 55.2045 61.2271C55.183 61.3323 55.1739 61.4838 55.1772 61.6817C55.2269 61.8671 55.2426 62.1114 55.2245 62.4144C55.1938 62.6711 55.1525 62.9803 55.1003 63.3421C55.0822 63.6452 55.047 63.9776 54.9949 64.3394C54.9924 64.8867 54.9606 65.417 54.8994 65.9303C54.8845 66.4313 54.8866 66.9028 54.9057 67.3449C54.8048 68.2664 54.8023 68.8137 54.8984 68.9867C54.9663 68.8692 55.0217 68.7052 55.0648 68.4949C55.1542 68.2722 55.2775 67.9907 55.4348 67.6504C55.7336 66.7255 56.1127 65.7295 56.5721 64.6622C57.0655 63.5361 57.6143 62.2461 58.2186 60.7922C59.4645 58.0234 60.6354 55.9952 61.7315 54.7076C62.8185 53.5716 64.1449 53.5143 65.7107 54.5359C66.181 54.8074 66.5817 55.0976 66.9129 55.4064C67.2781 55.6564 67.5505 55.9313 67.7302 56.231C68.1823 56.8055 68.2838 57.648 68.0347 58.7583C67.8501 59.5531 67.6859 60.5165 67.5419 61.6483C67.3855 62.7338 67.2093 64.0233 67.0132 65.517C66.8634 66.9982 66.7075 68.4562 66.5453 69.8911C66.4171 71.2672 66.3183 72.6602 66.2489 74.0702C66.0636 76.9027 66.0969 78.8815 66.3487 80.0067C68.0442 78.3597 69.377 75.9155 70.3471 72.6739C70.9017 71.0345 71.376 69.4664 71.77 67.9694C72.2103 66.46 72.6105 64.9862 72.9705 63.548L72.9332 63.4089L74.0596 62.8835Z" fill="black"/>
<path d="M73.6045 34.5312C73.5597 33.2512 74.1259 32.3044 75.3032 31.6907C76.3878 31.102 77.5904 30.9537 78.911 31.2458C80.2531 31.4328 81.0331 32.1183 81.251 33.3023C81.4597 34.6377 81.3258 36.3632 80.849 38.4787C80.6339 39.5302 80.3955 40.5879 80.134 41.6519C79.8724 42.7158 79.5877 43.786 79.2798 44.8623C78.9595 45.8923 78.6606 46.8172 78.3833 47.6369C78.0936 48.4102 77.8424 49.049 77.6297 49.5533C77.3366 50.1287 76.9396 50.409 76.4387 50.3942C75.7987 50.4166 75.2605 50.2626 74.8242 49.9323C74.363 49.5092 74.1924 49.058 74.3124 48.5786C74.5739 47.5147 74.7704 46.3936 74.902 45.2154C75.0211 43.9909 75.1171 42.7725 75.1898 41.5604C75.1838 39.127 74.6554 36.784 73.6045 34.5312Z" fill="black"/>
<path d="M100.804 54.3755C100.94 54.1404 101.153 54.0087 101.444 53.9805C101.781 53.9399 102.113 53.9751 102.441 54.086C102.769 54.1969 103.046 54.396 103.272 54.6833C103.486 54.9242 103.543 55.2318 103.445 55.606C103.327 57.5757 102.953 59.6138 102.325 61.7202C101.731 63.7677 100.95 65.7661 99.981 67.7152C99.0124 69.6643 97.9371 71.4929 96.7549 73.2011C95.5727 74.9092 94.3516 76.3794 93.0916 77.6115C92.4955 78.1688 91.7909 78.5066 90.9779 78.6251C90.1648 78.7436 89.3207 78.7461 88.4456 78.6328C87.558 78.473 86.7275 78.2483 85.9542 77.9586C85.1809 77.6689 84.5297 77.3713 84.0006 77.0658C82.8712 76.3746 82.0551 75.2764 81.5524 73.7712C81.0373 72.2196 80.7693 70.4776 80.7485 68.5452C80.6812 66.6252 80.8272 64.5735 81.1863 62.3901C81.5455 60.2068 82.0284 58.1145 82.6351 56.1133C83.2882 54.0996 84.0436 52.2822 84.9012 50.661C85.7588 49.0398 86.6401 47.7849 87.5449 46.8965C88.1071 46.398 88.6663 46.0742 89.2227 45.9251C89.7667 45.7297 90.3711 45.6671 91.0359 45.7374C91.6883 45.7614 92.3718 45.9013 93.0864 46.157C93.8349 46.354 94.6653 46.5788 95.5778 46.8312C96.8769 47.2285 97.6229 47.9728 97.8159 49.064C97.9526 49.574 97.9862 50.534 97.9168 51.944C97.8937 53.3416 97.7038 54.8585 97.3471 56.4945C97.0243 58.0718 96.4975 59.6292 95.7665 61.1668C95.0695 62.6456 94.1278 63.7676 92.9414 64.5327C92.0762 65.013 91.2835 65.2999 90.5632 65.3936C89.8429 65.4872 89.0157 65.4604 88.0818 65.3131C87.9742 65.8388 87.9056 66.6026 87.8758 67.6044C87.8337 68.5599 87.8673 69.5199 87.9767 70.4845C88.0861 71.449 88.2633 72.296 88.5084 73.0254C88.7412 73.7085 89.1249 74.028 89.6598 73.9841C90.4389 73.9244 91.3765 73.2508 92.4726 71.9632C93.6151 70.6632 94.7294 69.0726 95.8155 67.1914C96.8892 65.2639 97.89 63.1571 98.8179 60.871C99.7459 58.5849 100.408 56.4198 100.804 54.3755ZM92.4708 51.0925C92.0941 51.5413 91.6591 52.3288 91.1657 53.4548C90.7063 54.5221 90.2655 55.6589 89.8434 56.8653C89.4676 58.0592 89.1427 59.165 88.8687 60.1826C88.6411 61.1877 88.5584 61.8062 88.6205 62.038C89.4923 61.9535 90.189 61.4935 90.7106 60.6581C91.2785 59.8102 91.7102 58.8249 92.0056 57.7022C92.3351 56.5206 92.513 55.33 92.5394 54.1303C92.6121 52.9182 92.5893 51.9056 92.4708 51.0925Z" fill="black"/>
<path d="M125.222 48.8764C125.274 48.5146 125.469 48.3134 125.806 48.2728C126.189 48.2198 126.568 48.2425 126.942 48.341C127.363 48.4271 127.726 48.5781 128.032 48.7942C128.326 48.9639 128.469 49.1245 128.46 49.276C128.171 50.7945 127.757 52.4956 127.218 54.3792C126.726 56.2505 126.128 58.1002 125.425 59.9284C124.756 61.6978 124.004 63.3405 123.168 64.8565C122.378 66.3602 121.565 67.4975 120.728 68.2684C120.166 68.7668 119.461 69.1047 118.614 69.2819C117.755 69.4128 116.894 69.4448 116.031 69.3778C115.168 69.3108 114.373 69.1262 113.646 68.8241C112.919 68.522 112.447 68.1515 112.23 67.7127C111.834 66.9742 111.548 65.9078 111.373 64.5135C111.198 63.1193 111.093 61.7064 111.057 60.2748C111.068 58.8309 111.093 57.5322 111.132 56.3789C111.204 55.1668 111.267 54.3798 111.319 54.018C110.603 55.0546 109.864 56.4701 109.102 58.2643C108.341 60.0586 107.604 61.9456 106.892 63.9253C106.227 65.8925 105.625 67.818 105.086 69.7016C104.593 71.5729 104.235 73.11 104.011 74.313C103.891 74.7924 103.489 75.1485 102.806 75.3812C102.111 75.5675 101.384 75.638 100.627 75.5925C99.8689 75.547 99.1792 75.384 98.5574 75.1034C97.8892 74.8352 97.5688 74.4738 97.5961 74.0192C97.5761 72.832 97.602 71.2597 97.6739 69.3024C97.7333 67.2987 97.8482 65.1311 98.0186 62.7996C98.1765 60.4217 98.4148 57.9726 98.7333 55.4522C99.0519 52.9319 99.5066 50.549 100.098 48.3036C100.248 47.5675 100.671 47.1063 101.367 46.9199C102.109 46.7212 102.871 46.6909 103.653 46.8291C104.436 46.9673 105.104 47.2355 105.658 47.6337C106.258 48.0194 106.538 48.4164 106.499 48.8246C106.296 49.9225 106.053 51.056 105.77 52.2251C105.521 53.3354 105.259 54.3993 104.985 55.4169C104.745 56.3757 104.527 57.2294 104.33 57.9779C104.179 58.7139 104.112 59.2041 104.127 59.4483C104.583 58.1832 105.086 56.9056 105.635 55.6156C106.23 54.3132 106.821 53.0865 107.407 51.9356C108.039 50.7723 108.696 49.7016 109.379 48.7238C110.061 47.7459 110.751 46.8901 111.449 46.1565C111.918 45.6829 112.566 45.41 113.391 45.3379C114.263 45.2534 115.102 45.3266 115.91 45.5575C116.717 45.7885 117.387 46.1556 117.919 46.6589C118.486 47.1035 118.727 47.635 118.645 48.2535C118.522 49.2802 118.346 50.5698 118.116 52.1222C117.873 53.6283 117.679 55.2209 117.533 56.9C117.374 58.5327 117.272 60.1004 117.227 61.6032C117.183 63.1059 117.291 64.3441 117.552 65.3178C118.296 64.5717 119.054 63.5984 119.826 62.3978C120.597 61.1972 121.308 59.8637 121.959 58.3974C122.656 56.9186 123.282 55.3595 123.836 53.7201C124.391 52.0807 124.853 50.4661 125.222 48.8764Z" fill="black"/>
<path d="M130.473 35.0959C131.208 34.5014 132.147 34.2992 133.292 34.4896C134.47 34.6211 135.59 35.0913 136.651 35.9001C137.713 36.7089 138.628 37.8055 139.396 39.1898C140.152 40.5277 140.51 42.0469 140.468 43.7476C140.406 45.5534 140.167 47.6299 139.752 49.9772C139.325 52.2781 138.776 54.5869 138.105 56.9036C137.468 59.1615 136.74 61.2695 135.923 63.2277C135.153 65.1735 134.357 66.6539 133.535 67.6691C133.091 68.2354 132.417 68.6892 131.515 69.0304C130.6 69.3252 129.654 69.5042 128.677 69.5672C127.734 69.5714 126.847 69.4117 126.014 69.088C125.182 68.7643 124.597 68.2502 124.259 67.5457C123.897 66.7484 123.588 65.6882 123.333 64.3652C123.078 63.0421 122.89 61.6015 122.771 60.0433C122.593 58.4511 122.507 56.8341 122.515 55.1923C122.476 53.5629 122.491 52.0432 122.56 50.6332C122.571 49.1892 122.644 47.9771 122.779 46.9968C122.901 45.9701 123.064 45.2804 123.268 44.9277C123.505 44.5161 123.961 44.2698 124.635 44.1886C125.296 44.061 125.966 44.0556 126.643 44.1723C127.32 44.289 127.924 44.5 128.453 44.8055C128.969 45.0646 129.202 45.3751 129.15 45.7369C128.999 46.473 128.886 47.7207 128.811 49.4801C128.723 51.1932 128.667 53.0221 128.641 54.967C128.662 56.8994 128.711 58.7499 128.787 60.5184C128.91 62.2745 129.1 63.5404 129.357 64.3162C129.577 64.2077 129.984 63.5023 130.579 62.1998C131.174 60.8974 131.788 59.292 132.419 57.3835C133.038 55.4286 133.585 53.2945 134.058 50.9812C134.578 48.6554 134.826 46.4273 134.802 44.297C134.824 42.1542 134.512 40.25 133.867 38.5842C133.222 36.9184 132.09 35.7556 130.473 35.0959Z" fill="black"/>
<path d="M163.65 47.4499C164.009 47.3041 164.301 47.3749 164.527 47.6622C164.787 47.8907 164.973 48.2136 165.085 48.6308C165.184 49.0018 165.184 49.3743 165.086 49.7486C165.034 50.1104 164.892 50.3224 164.66 50.3845C163.631 50.8093 162.646 51.1228 161.707 51.3249C160.767 51.527 159.615 51.5871 158.252 51.5053C158.144 52.031 158.017 52.7609 157.869 53.6948C157.71 54.5824 157.47 55.5412 157.149 56.5712C156.863 57.5424 156.461 58.5447 155.942 59.578C155.458 60.5526 154.838 61.3897 154.081 62.0894C153.451 62.7054 152.538 63.0992 151.341 63.2707C150.179 63.3834 148.95 63.34 147.654 63.1406C146.405 62.9287 145.234 62.5468 144.142 61.9946C143.05 61.4424 142.263 60.7338 141.783 59.8686C141.077 58.7162 140.641 57.367 140.475 55.8213C140.309 54.2755 140.295 52.7388 140.432 51.2112C140.557 49.6373 140.835 48.1713 141.267 46.8134C141.639 45.4216 142.069 44.3374 142.557 43.5607C142.726 43.2668 142.926 42.9898 143.154 42.7298C143.383 42.4698 143.582 42.1928 143.751 41.8989C143.305 40.9749 142.928 40.0323 142.621 39.0711C142.301 38.0635 142.272 37.0277 142.534 35.9638C142.752 35.1102 143.486 34.4167 144.734 33.8834C146.017 33.2913 147.432 33.0113 148.982 33.0435C150.577 33.0632 152.127 33.4679 153.63 34.2577C155.134 35.0474 156.25 36.3385 156.979 38.131C157.67 39.7844 158.088 41.4365 158.232 43.0874C158.423 44.7259 158.556 46.4295 158.633 48.198C159.125 48.3643 159.853 48.3928 160.817 48.2835C161.828 48.1617 162.772 47.8838 163.65 47.4499ZM148.128 60.181C149.651 58.6301 150.637 57.0242 151.086 55.3633C151.582 53.69 151.937 51.955 152.151 50.1583C150.23 49.4804 148.6 48.4017 147.259 46.9222C147.089 47.2162 146.956 47.9228 146.858 49.0422C146.76 50.1616 146.706 51.4433 146.696 52.8873C146.719 54.2725 146.841 55.656 147.062 57.0378C147.271 58.3733 147.626 59.421 148.128 60.181ZM152.132 45.9146C152.236 45.191 152.217 44.3763 152.074 43.4705C151.918 42.5183 151.676 41.6142 151.347 40.7582C151.052 39.8433 150.719 39.063 150.347 38.4172C150.009 37.7126 149.704 37.2229 149.432 36.9481C148.938 38.0741 148.932 39.4423 149.413 41.0527C149.941 42.6506 150.847 44.2712 152.132 45.9146Z" fill="black"/>
<path d="M173.494 65.087C173.321 65.1831 173.066 65.2514 172.729 65.292C172.451 65.3665 172.074 65.4427 171.598 65.5206C170.717 65.7567 169.402 65.4877 167.655 64.7137C165.919 63.9861 164.427 62.4975 163.178 60.2481C163.07 60.0287 162.978 59.7799 162.904 59.5017C162.783 59.236 162.685 58.964 162.611 58.6858C162.058 56.9952 161.68 54.9348 161.476 52.5048C161.226 50.0872 161.173 47.2937 161.318 44.1242C161.416 40.9672 161.676 37.7667 162.099 34.5228C162.51 31.2324 163.059 27.9048 163.748 24.54C164.449 21.2215 165.204 18.3852 166.015 16.0313C166.859 13.6186 167.735 11.6943 168.642 10.2586C168.951 9.92736 169.268 9.71827 169.592 9.63131C169.963 9.53192 170.428 9.50663 170.988 9.55543C171.594 9.59181 172.29 9.77804 173.076 10.1141L173.549 10.211C175 10.6173 175.871 11.179 176.162 11.896C176.271 12.1154 176.206 12.4309 175.969 12.8424C174.108 15.7263 172.54 19.4262 171.265 23.942C170.049 28.4917 169.224 33.1105 168.791 37.7984C168.265 42.5112 168.188 46.9544 168.561 51.1281C168.763 54.1054 169.202 56.6712 169.878 58.8255C170.024 59.184 170.201 59.6584 170.409 60.2487C170.651 60.7802 170.947 61.4215 171.297 62.1724C172.09 63.6494 173.513 64.1378 175.566 63.6375C175.066 64.3678 174.375 64.851 173.494 65.087Z" fill="black"/>
<path d="M189.395 30.6377C189.531 30.4026 189.744 30.2709 190.035 30.2427C190.372 30.2021 190.704 30.2373 191.032 30.3482C191.36 30.4591 191.637 30.6582 191.863 30.9455C192.076 31.1864 192.134 31.494 192.036 31.8683C191.917 33.838 191.544 35.876 190.916 37.9824C190.322 40.03 189.54 42.0283 188.572 43.9774C187.603 45.9265 186.528 47.7551 185.345 49.4633C184.163 51.1715 182.942 52.6416 181.682 53.8737C181.086 54.431 180.382 54.7688 179.568 54.8873C178.755 55.0058 177.911 55.0083 177.036 54.895C176.149 54.7353 175.318 54.5106 174.545 54.2208C173.771 53.9311 173.12 53.6335 172.591 53.3281C171.462 52.6368 170.646 51.5386 170.143 50.0334C169.628 48.4819 169.36 46.7399 169.339 44.8074C169.272 42.8874 169.418 40.8357 169.777 38.6524C170.136 36.469 170.619 34.3767 171.226 32.3755C171.879 30.3619 172.634 28.5444 173.492 26.9232C174.349 25.302 175.231 24.0472 176.136 23.1587C176.698 22.6602 177.257 22.3364 177.813 22.1874C178.357 21.9919 178.962 21.9294 179.626 21.9997C180.279 22.0236 180.962 22.1635 181.677 22.4193C182.425 22.6163 183.256 22.841 184.168 23.0934C185.467 23.4907 186.213 24.235 186.406 25.3262C186.543 25.8362 186.577 26.7962 186.507 28.2063C186.484 29.6039 186.294 31.1207 185.938 32.7568C185.615 34.3341 185.088 35.8915 184.357 37.429C183.66 38.9078 182.718 40.0298 181.532 40.7949C180.667 41.2752 179.874 41.5622 179.154 41.6558C178.433 41.7494 177.606 41.7226 176.672 41.5753C176.565 42.1011 176.496 42.8648 176.466 43.8667C176.424 44.8221 176.458 45.7821 176.567 46.7467C176.677 47.7113 176.854 48.5582 177.099 49.2877C177.332 49.9707 177.716 50.2903 178.25 50.2463C179.029 50.1866 179.967 49.513 181.063 48.2255C182.206 46.9255 183.32 45.3349 184.406 43.4537C185.48 41.5261 186.481 39.4193 187.409 37.1332C188.336 34.8471 188.999 32.682 189.395 30.6377ZM181.061 27.3548C180.685 27.8036 180.25 28.591 179.756 29.717C179.297 30.7843 178.856 31.9211 178.434 33.1275C178.058 34.3214 177.733 35.4272 177.459 36.4448C177.232 37.4499 177.149 38.0684 177.211 38.3003C178.083 38.2157 178.78 37.7557 179.301 36.9203C179.869 36.0724 180.301 35.0871 180.596 33.9644C180.926 32.7829 181.104 31.5922 181.13 30.3925C181.203 29.1804 181.18 28.1678 181.061 27.3548Z" fill="black"/>
<path d="M191.792 45.0524C192.495 43.2243 193.401 42.0621 194.511 41.5661C195.574 41.0825 196.594 41.1818 197.572 41.8639C198.525 42.4533 199.097 43.5673 199.287 45.2058C199.366 46.427 199.208 47.4136 198.813 48.1654C198.452 48.8584 197.92 49.3738 197.215 49.7117C195.722 50.2608 194.317 50.1156 192.999 49.2762C191.609 48.3564 191.207 46.9485 191.792 45.0524Z" fill="black"/>
</svg>
