<svg width="105" height="50" viewBox="0 0 105 50" fill="none" xmlns="http://www.w3.org/2000/svg">
<g id="Logo">
<path d="M19.4346 15.3233C18.6008 16.173 17.7723 17.1388 16.949 18.2206C16.1434 19.2716 15.3661 20.3802 14.6172 21.5464C13.8924 22.7062 13.2137 23.8928 12.581 25.1063C11.9483 26.3197 11.3903 27.4739 10.9071 28.569C9.94721 30.7835 9.3921 32.5764 9.24176 33.9476C9.08491 35.2945 9.24767 36.0468 9.73005 36.2047C10.2189 36.3868 10.986 35.8681 12.0313 34.6485C13.0831 33.4533 14.3344 31.4086 15.7853 28.5146C16.3939 27.3076 16.8993 26.1022 17.3016 24.8983C17.728 23.688 18.0764 22.5246 18.3468 21.4083C18.6107 20.2676 18.8272 19.1918 18.9965 18.1809C19.1592 17.1456 19.3052 16.193 19.4346 15.3233ZM10.2933 21.0609C10.0464 21.4924 9.68116 21.9165 9.19739 22.3332C8.7071 22.7255 8.16427 23.0667 7.5689 23.3567C6.97353 23.6467 6.3465 23.8669 5.68783 24.0173C5.04679 24.1369 4.42796 24.1461 3.83134 24.045C3.25887 23.9375 2.74158 23.6977 2.27947 23.3256C1.81083 22.9293 1.47539 22.3537 1.27313 21.5988C0.988007 20.6314 0.923872 19.4742 1.08073 18.1273C1.25522 16.7496 1.61085 15.3233 2.14764 13.8485C2.68444 12.3737 3.39127 10.9056 4.26816 9.44406C5.16267 7.95171 6.18739 6.60715 7.34232 5.41038C8.51488 4.1828 9.80654 3.15817 11.2173 2.33651C12.6215 1.49049 14.1227 0.957777 15.7207 0.738364C17.2946 0.525425 18.5946 0.594648 19.6207 0.946034C20.6644 1.2666 21.4937 1.80121 22.1085 2.54988C22.7475 3.29207 23.2105 4.19885 23.4975 5.2702C23.8088 6.33509 24.0155 7.4932 24.1178 8.74455C24.9241 8.37194 25.6497 8.22972 26.2946 8.31788C26.9395 8.40604 27.4986 8.60855 27.9718 8.92541C27.1479 9.32884 26.3799 9.79561 25.6676 10.3257C24.9489 10.8315 24.4266 11.2976 24.1008 11.7242C24.0804 12.904 23.9806 14.2226 23.8016 15.6798C23.6467 17.1306 23.3928 18.647 23.0401 20.229C22.6874 21.8111 22.2413 23.4312 21.7019 25.0894C21.1559 26.7232 20.4938 28.3099 19.7155 29.8494C18.9084 31.4749 18.0031 32.8788 16.9997 34.061C16.0268 35.2612 15.0195 36.2358 13.9775 36.9847C12.9598 37.7271 11.9711 38.24 11.0114 38.5232C10.0518 38.8064 9.20582 38.8374 8.47344 38.6161C7.74105 38.3948 7.16179 37.9237 6.73562 37.2027C6.33362 36.4753 6.1474 35.4422 6.17696 34.1033C6.24762 33.0144 6.48214 31.7642 6.88053 30.3525C7.30308 28.9345 7.94891 27.2869 8.81802 25.4099C9.32538 24.3084 9.95351 23.1745 10.7024 22.0082C11.4513 20.8419 12.2913 19.6774 13.2223 18.5145C14.1468 17.3273 15.1568 16.1694 16.2523 15.0407C17.3413 13.8877 18.4982 12.7948 19.7229 11.762C19.7367 11.5235 19.7377 11.0926 19.7261 10.4694C19.7079 9.82181 19.6613 9.11662 19.5863 8.35379C19.529 7.56014 19.4168 6.75508 19.2498 5.93862C19.0763 5.09781 18.8169 4.37135 18.4717 3.75923C18.1506 3.14064 17.7293 2.67938 17.2078 2.37548C16.7039 2.04074 16.0776 1.97369 15.3288 2.17432C14.5141 2.41872 13.6472 2.95114 12.7279 3.77158C11.8022 4.56767 10.9012 5.55286 10.025 6.72713C9.16648 7.87058 8.37677 9.12607 7.65591 10.4936C6.92853 11.8368 6.35585 13.1776 5.93789 14.5162C5.5134 15.8304 5.27887 17.0807 5.23432 18.267C5.18324 19.429 5.41679 20.3972 5.93499 21.1718C6.12294 21.4868 6.37912 21.7182 6.70353 21.8662C7.02794 22.0141 7.39642 22.085 7.80897 22.0789C8.22153 22.0727 8.63866 21.9871 9.06038 21.8219C9.50625 21.6502 9.91721 21.3965 10.2933 21.0609Z" fill="#6066FA"/>
<path d="M34.2182 13.3976C34.2887 13.2743 34.3997 13.2054 34.5512 13.1909C34.7268 13.17 34.9001 13.1888 35.0711 13.2473C35.2421 13.3059 35.3867 13.4107 35.5048 13.5617C35.6164 13.6884 35.6467 13.8499 35.5958 14.0462C35.5363 15.08 35.3439 16.1493 35.0186 17.2542C34.711 18.3284 34.3058 19.3764 33.8031 20.3985C33.3003 21.4205 32.7417 22.3792 32.1273 23.2745C31.5129 24.1699 30.878 24.9402 30.2225 25.5856C29.9124 25.8775 29.5455 26.0541 29.1218 26.1154C28.6982 26.1767 28.2582 26.1772 27.8019 26.1168C27.3391 26.032 26.906 25.9132 26.5026 25.7603C26.0992 25.6074 25.7595 25.4505 25.4834 25.2896C24.894 24.9256 24.4675 24.3483 24.2039 23.5577C23.9337 22.7428 23.7922 21.8282 23.7793 20.8139C23.7422 19.806 23.8162 18.7293 24.0011 17.5836C24.186 16.438 24.4355 15.3403 24.7496 14.2905C25.0879 13.2343 25.4797 12.2812 25.925 11.4311C26.3703 10.5811 26.8283 9.92336 27.299 9.45797C27.5915 9.19692 27.8827 9.02756 28.1725 8.9499C28.4559 8.84788 28.7708 8.81568 29.1174 8.85329C29.4575 8.86655 29.8139 8.94069 30.1867 9.07569C30.577 9.17988 31.0101 9.2987 31.4859 9.43217C32.1635 9.64208 32.5531 10.0335 32.6549 10.6065C32.7266 10.8743 32.7452 11.3783 32.7105 12.1183C32.6999 12.8518 32.6026 13.6478 32.4184 14.5062C32.2518 15.3337 31.9788 16.1506 31.5994 16.9569C31.2377 17.7324 30.748 18.3203 30.1305 18.7206C29.68 18.9718 29.2671 19.1216 28.8917 19.17C28.5164 19.2183 28.0852 19.2034 27.5983 19.1251C27.5428 19.4009 27.5078 19.8018 27.4933 20.3276C27.4724 20.829 27.4909 21.333 27.5489 21.8394C27.607 22.3458 27.7002 22.7905 27.8288 23.1736C27.9508 23.5324 28.1512 23.7005 28.4299 23.678C28.836 23.6475 29.3239 23.2949 29.8939 22.6203C30.488 21.9391 31.0672 21.1054 31.6313 20.1192C32.1889 19.1085 32.7084 18.0038 33.1896 16.8048C33.6709 15.6059 34.0137 14.4701 34.2182 13.3976ZM29.871 11.6656C29.6751 11.9008 29.4492 12.3136 29.1932 12.9041C28.9549 13.4639 28.7263 14.0601 28.5076 14.6928C28.313 15.3191 28.1448 15.8992 28.0031 16.433C27.8855 16.9604 27.843 17.2849 27.8756 17.4066C28.33 17.3632 28.6926 17.1225 28.9636 16.6845C29.2587 16.2401 29.4827 15.7234 29.6355 15.1344C29.806 14.5146 29.8974 13.8898 29.9099 13.2601C29.9466 12.624 29.9336 12.0925 29.871 11.6656Z" fill="#6066FA"/>
<path d="M39.3064 33.3686C39.4161 33.3914 39.5104 33.4053 39.5894 33.4102C39.6684 33.4152 39.7506 33.4323 39.8361 33.4616C39.9282 33.5152 40.0049 33.5599 40.0662 33.5956C40.1517 33.6249 40.2252 33.6574 40.2865 33.6932C40.3916 33.7955 40.4386 33.8743 40.4275 33.9294C40.2831 34.6467 40.11 35.4499 39.9082 36.339C39.7305 37.2218 39.5 38.1969 39.2165 39.2646C38.6254 41.4063 37.8745 42.9516 36.9638 43.9002C36.6295 44.1986 36.1265 44.3986 35.4548 44.5003C35.1454 44.5049 34.8448 44.4941 34.553 44.4679C34.2854 44.4352 33.9959 44.3693 33.6845 44.27C33.1297 44.1316 32.7671 43.8895 32.5968 43.5437C32.3018 43.0225 32.1338 42.1541 32.0929 40.9385C32.0636 40.3461 32.0496 39.7627 32.051 39.1881C32.07 38.5828 32.089 37.9775 32.108 37.3721C32.1512 36.7603 32.1986 36.2127 32.2503 35.7291C32.3195 35.2147 32.3809 34.7676 32.4345 34.3879C32.0819 35.0043 31.7369 35.697 31.3993 36.466C31.0793 37.2042 30.7887 38.0519 30.5274 39.0092C30.2355 39.9486 29.9896 40.9149 29.7897 41.9079C29.614 42.8945 29.481 43.8957 29.3908 44.9116C29.377 45.1502 29.1704 45.2969 28.7709 45.3517C28.4328 45.4423 28.0258 45.4209 27.5499 45.2874C27.153 45.1589 26.8815 44.9185 26.7353 44.5662C26.6049 44.0792 26.5211 43.3318 26.484 42.3239C26.4678 41.7802 26.4427 41.252 26.4088 40.7391C26.3991 40.2198 26.3927 39.7126 26.3895 39.2176C26.3798 38.6983 26.3841 38.2796 26.4024 37.9615C26.4207 37.6434 26.4344 37.4048 26.4436 37.2458C25.9565 38.1331 25.4063 39.7029 24.7931 41.955C24.4326 43.1215 24.105 44.2662 23.8105 45.3891C23.5335 46.481 23.2719 47.582 23.0257 48.6919C22.946 48.9742 22.6734 49.1646 22.208 49.2633C21.9534 49.2793 21.723 49.2888 21.5167 49.2919C21.2798 49.2771 21.0484 49.2347 20.8225 49.1648C20.3839 49.0735 20.098 48.8761 19.9648 48.5725C19.6531 46.8292 19.5764 44.5141 19.7347 41.6271C19.8348 40.1649 19.9597 38.8918 20.1093 37.8078C20.2831 36.7174 20.5026 35.7974 20.7677 35.0478C20.8363 34.8207 21.0583 34.6829 21.4336 34.6345C21.5916 34.6444 21.7616 34.651 21.9437 34.6544C22.1259 34.6578 22.3145 34.6855 22.5097 34.7376C22.7114 34.8141 22.8857 34.8848 23.0325 34.9498C23.2036 35.0084 23.3537 35.0856 23.4829 35.1815C23.7655 35.3667 23.8935 35.5543 23.8667 35.7441C23.7387 36.0394 23.6237 36.3834 23.5219 36.776C23.42 37.1687 23.3014 37.6441 23.1662 38.2023C22.918 39.2083 22.7276 40.3815 22.5949 41.7219C22.7209 41.3228 22.8669 40.8531 23.0328 40.3128C23.2163 39.7416 23.423 39.1121 23.6528 38.4242C23.8827 37.7363 24.1158 37.0605 24.3522 36.3969C24.5821 35.709 24.8338 35.0544 25.1074 34.433C25.5385 33.1432 25.9554 32.2355 26.3582 31.71C26.5894 31.4132 26.9298 31.2828 27.3795 31.3189C27.61 31.3093 27.8381 31.3395 28.064 31.4095C28.3075 31.4487 28.5245 31.534 28.7151 31.6657C29.2105 31.8722 29.4644 32.1434 29.4768 32.4794C29.4656 32.5345 29.4611 32.614 29.463 32.7179C29.4891 32.8153 29.4976 32.9435 29.4884 33.1026C29.4727 33.2373 29.4515 33.3995 29.4247 33.5894C29.4155 33.7484 29.3976 33.9229 29.3708 34.1127C29.3701 34.4 29.354 34.6783 29.3227 34.9477C29.3155 35.2106 29.3171 35.4581 29.3275 35.6902C29.2758 36.1738 29.2751 36.461 29.3254 36.5519C29.3606 36.4903 29.3894 36.4043 29.4116 36.294C29.458 36.1772 29.5219 36.0295 29.6036 35.8511C29.7583 35.3659 29.9549 34.8435 30.1932 34.2838C30.4492 33.6933 30.7339 33.0168 31.0474 32.2542C31.6938 30.8023 32.302 29.7389 32.872 29.0643C33.4374 28.4691 34.1287 28.4405 34.9459 28.9783C35.1913 29.1213 35.4005 29.2741 35.5734 29.4365C35.764 29.5681 35.9063 29.7127 36.0003 29.8702C36.2366 30.1722 36.2904 30.6145 36.1617 31.197C36.0663 31.614 35.9817 32.1195 35.9079 32.7134C35.8275 33.283 35.737 33.9597 35.6363 34.7435C35.5599 35.5208 35.4801 36.2859 35.3971 37.0389C35.3317 37.761 35.2817 38.4921 35.247 39.2321C35.1534 40.7186 35.1729 41.7573 35.3053 42.3482C36.1873 41.4855 36.8794 40.204 37.3817 38.5036C37.669 37.6437 37.9146 36.821 38.1183 36.0357C38.3463 35.2439 38.5533 34.4708 38.7394 33.7163L38.7199 33.6432L39.3064 33.3686Z" fill="#6066FA"/>
<path d="M39.0393 18.4865C39.0146 17.8146 39.3088 17.3182 39.9218 16.9974C40.4865 16.6895 41.1131 16.6129 41.8018 16.7677C42.5015 16.8672 42.9088 17.2279 43.0236 17.8495C43.1338 18.5507 43.0658 19.4562 42.8196 20.5661C42.7085 21.1178 42.5854 21.6727 42.4502 22.2309C42.315 22.7891 42.1677 23.3505 42.0084 23.9151C41.8425 24.4554 41.6877 24.9406 41.544 25.3705C41.3938 25.7761 41.2636 26.1111 41.1532 26.3756C41.0011 26.6773 40.7944 26.824 40.5333 26.8157C40.1998 26.8268 39.9191 26.7454 39.6913 26.5716C39.4504 26.349 39.361 26.112 39.4231 25.8605C39.5583 25.3023 39.6596 24.7141 39.7269 24.0958C39.7877 23.4532 39.8364 22.8138 39.8731 22.1777C39.8674 20.9005 39.5894 19.6701 39.0393 18.4865Z" fill="#6066FA"/>
<path d="M53.2378 28.9311C53.3083 28.8078 53.4193 28.7389 53.5707 28.7245C53.7463 28.7035 53.9196 28.7223 54.0906 28.7809C54.2616 28.8394 54.4062 28.9442 54.5244 29.0953C54.636 29.2219 54.6663 29.3834 54.6154 29.5798C54.5558 30.6135 54.3634 31.6829 54.0382 32.7878C53.7306 33.8619 53.3254 34.91 52.8226 35.932C52.3198 36.954 51.7612 37.9127 51.1468 38.8081C50.5324 39.7034 49.8975 40.4738 49.242 41.1192C48.9319 41.411 48.565 41.5876 48.1414 41.649C47.7177 41.7103 47.2777 41.7107 46.8215 41.6503C46.3587 41.5655 45.9256 41.4467 45.5222 41.2938C45.1188 41.141 44.779 40.9841 44.5029 40.8232C43.9135 40.4592 43.487 39.8819 43.2234 39.0913C42.9533 38.2764 42.8117 37.3617 42.7988 36.3474C42.7618 35.3396 42.8357 34.2628 43.0206 33.1172C43.2055 31.9716 43.455 30.8739 43.7691 29.8241C44.1074 28.7679 44.4992 27.8147 44.9445 26.9647C45.3898 26.1146 45.8479 25.4569 46.3186 24.9915C46.6111 24.7305 46.9022 24.5611 47.1921 24.4835C47.4754 24.3814 47.7903 24.3492 48.137 24.3869C48.4771 24.4001 48.8335 24.4742 49.2062 24.6092C49.5965 24.7134 50.0296 24.8323 50.5055 24.9657C51.183 25.1756 51.5727 25.5671 51.6744 26.14C51.7462 26.4079 51.7647 26.9118 51.73 27.6518C51.7195 28.3854 51.6221 29.1813 51.4379 30.0397C51.2713 30.8673 50.9984 31.6842 50.619 32.4905C50.2572 33.2659 49.7676 33.8538 49.15 34.2542C48.6995 34.5054 48.2866 34.6551 47.9113 34.7035C47.5359 34.7519 47.1048 34.7369 46.6178 34.6586C46.5623 34.9345 46.5273 35.3353 46.5129 35.8611C46.4919 36.3626 46.5104 36.8665 46.5685 37.3729C46.6265 37.8793 46.7198 38.3241 46.8483 38.7072C46.9703 39.066 47.1707 39.2341 47.4494 39.2116C47.8555 39.1811 48.3435 38.8285 48.9135 38.1538C49.5076 37.4727 50.0867 36.639 50.6508 35.6527C51.2084 34.6421 51.7279 33.5373 52.2092 32.3384C52.6904 31.1394 53.0333 30.0037 53.2378 28.9311ZM48.8905 27.1992C48.6947 27.4343 48.4687 27.8472 48.2128 28.4377C47.9744 28.9974 47.7459 29.5936 47.5271 30.2264C47.3325 30.8527 47.1643 31.4327 47.0226 31.9666C46.905 32.4939 46.8625 32.8185 46.8952 32.9402C47.3495 32.8968 47.7121 32.6561 47.9831 32.2181C48.2782 31.7737 48.5022 31.2569 48.655 30.6679C48.8255 30.0481 48.917 29.4234 48.9295 28.7937C48.9661 28.1576 48.9531 27.626 48.8905 27.1992Z" fill="#6066FA"/>
<path d="M65.9592 26.0705C65.986 25.8806 66.0871 25.7752 66.2627 25.7542C66.4625 25.7268 66.66 25.7391 66.8551 25.7912C67.0745 25.8369 67.2641 25.9165 67.424 26.0303C67.5774 26.1197 67.6518 26.2041 67.6472 26.2836C67.4983 27.0804 67.2844 27.9728 67.0055 28.9609C66.7508 29.9426 66.4412 30.9128 66.0768 31.8717C65.7301 32.7997 65.3396 33.6611 64.9054 34.456C64.4953 35.2444 64.0726 35.8405 63.6371 36.2442C63.3446 36.5053 62.9777 36.6819 62.5365 36.774C62.0886 36.8418 61.6399 36.8577 61.1901 36.8216C60.7403 36.7855 60.3258 36.6878 59.9466 36.5285C59.5674 36.3691 59.321 36.1742 59.2074 35.9436C58.9999 35.5556 58.8498 34.9955 58.7572 34.2635C58.6646 33.5315 58.6083 32.7898 58.5882 32.0384C58.5922 31.2805 58.6037 30.5989 58.6227 29.9935C58.6594 29.3574 58.6911 28.9444 58.7179 28.7545C58.3457 29.2979 57.9621 30.0401 57.567 30.981C57.172 31.922 56.79 32.9117 56.421 33.95C56.0762 34.9819 55.7644 35.9919 55.4855 36.9801C55.2308 37.9617 55.0456 38.7681 54.9299 39.3994C54.8679 39.6509 54.659 39.8373 54.3032 39.9588C53.9409 40.0558 53.5623 40.092 53.1674 40.0674C52.7724 40.0427 52.4128 39.9564 52.0884 39.8085C51.7398 39.667 51.5724 39.477 51.5861 39.2384C51.5745 38.6152 51.5863 37.7899 51.6217 36.7627C51.6506 35.7111 51.7082 34.5734 51.7945 33.3498C51.8744 32.1019 51.996 30.8166 52.1593 29.4941C52.3227 28.1716 52.5572 26.9213 52.8629 25.7433C52.9406 25.3571 53.1607 25.1155 53.523 25.0184C53.9094 24.9149 54.3066 24.8998 54.7146 24.9731C55.1226 25.0465 55.4712 25.188 55.7603 25.3975C56.0736 25.6007 56.2201 25.8093 56.1999 26.0235C56.0953 26.5996 55.9699 27.1943 55.8236 27.8076C55.6949 28.3902 55.5597 28.9483 55.418 29.4821C55.2939 29.9851 55.1809 30.433 55.079 30.8256C55.0013 31.2118 54.9666 31.469 54.9751 31.5973C55.2115 30.9337 55.4721 30.2636 55.7568 29.5871C56.0656 28.9041 56.3722 28.2609 56.6765 27.6574C57.0049 27.0474 57.3464 26.4862 57.7009 25.9736C58.0555 25.4611 58.4142 25.0127 58.7772 24.6283C59.0214 24.3802 59.3586 24.2377 59.7887 24.2007C60.2431 24.1573 60.6808 24.1966 61.1018 24.3186C61.5228 24.4407 61.8723 24.6341 62.1504 24.8989C62.4461 25.1328 62.5727 25.412 62.5302 25.7366C62.4674 26.2753 62.3769 26.952 62.2587 27.7666C62.1339 28.5569 62.0342 29.3926 61.9597 30.2738C61.8786 31.1306 61.8272 31.9534 61.8056 32.7421C61.7839 33.5308 61.8416 34.1808 61.9786 34.6922C62.3658 34.3014 62.7598 33.7913 63.1607 33.1619C63.5616 32.5326 63.9308 31.8334 64.2684 31.0644C64.6302 30.2889 64.9547 29.4713 65.2421 28.6114C65.5294 27.7514 65.7684 26.9045 65.9592 26.0705Z" fill="#6066FA"/>
<path d="M68.6814 18.8428C69.064 18.5315 69.5536 18.4264 70.1502 18.5276C70.7645 18.5978 71.3487 18.8458 71.9029 19.2715C72.457 19.6971 72.9351 20.2736 73.3371 21.001C73.7326 21.7041 73.9204 22.5019 73.9007 23.3945C73.8699 24.3422 73.7477 25.4319 73.5341 26.6635C73.3139 27.8708 73.0301 29.0821 72.6827 30.2974C72.3528 31.4818 71.976 32.5875 71.5522 33.6145C71.1525 34.635 70.7392 35.4112 70.3122 35.9432C70.0811 36.24 69.7305 36.4774 69.2605 36.6556C68.784 36.8094 68.2911 36.9023 67.7819 36.9343C67.2904 36.9355 66.8276 36.8508 66.3935 36.68C65.9595 36.5093 65.654 36.2388 65.4771 35.8686C65.2872 35.4498 65.1251 34.893 64.9907 34.1983C64.8564 33.5035 64.7573 32.7472 64.6934 31.9292C64.5989 31.0933 64.5526 30.2445 64.5547 29.3827C64.5326 28.5274 64.539 27.7298 64.5737 26.9897C64.5777 26.2319 64.6143 25.5957 64.6836 25.0813C64.7463 24.5425 64.8306 24.1807 64.9364 23.9958C65.0598 23.78 65.2971 23.6512 65.6483 23.6093C65.993 23.543 66.3419 23.5409 66.695 23.6028C67.0481 23.6648 67.3628 23.7762 67.6389 23.9371C67.9084 24.0737 68.0298 24.2369 68.003 24.4267C67.9253 24.8129 67.8678 25.4677 67.8304 26.3911C67.7866 27.2902 67.759 28.2501 67.7478 29.2709C67.7607 30.2852 67.788 31.2566 67.8296 32.1849C67.8954 33.1068 67.9959 33.7714 68.1309 34.1789C68.2452 34.1222 68.4567 33.7523 68.7656 33.0694C69.0744 32.3864 69.3924 31.5443 69.7196 30.5433C70.0403 29.5178 70.3228 28.3983 70.5671 27.1845C70.8355 25.9643 70.9624 24.7951 70.9475 23.6769C70.9568 22.5522 70.7925 21.5524 70.4545 20.6774C70.1165 19.8023 69.5254 19.1908 68.6814 18.8428Z" fill="#6066FA"/>
<path d="M85.9877 25.3622C86.1744 25.2861 86.3268 25.3235 86.4449 25.4745C86.5807 25.5947 86.6779 25.7644 86.7366 25.9836C86.7888 26.1784 86.7895 26.3739 86.7385 26.5702C86.7117 26.7601 86.6379 26.8712 86.5172 26.9036C85.9812 27.1255 85.4684 27.289 84.9788 27.3941C84.4892 27.4992 83.889 27.5295 83.1782 27.4851C83.1226 27.7609 83.057 28.1439 82.9812 28.634C82.8989 29.0997 82.7748 29.6027 82.6089 30.143C82.4606 30.6524 82.252 31.1781 81.983 31.7199C81.7316 32.2309 81.409 32.6697 81.0154 33.0361C80.6876 33.3588 80.2121 33.5645 79.5886 33.6533C78.9829 33.7112 78.3422 33.6872 77.6666 33.5811C77.0151 33.4686 76.4045 33.2669 75.8346 32.9759C75.2648 32.6849 74.8543 32.3121 74.603 31.8575C74.2336 31.2519 74.0049 30.5433 73.9169 29.7318C73.8289 28.9202 73.8199 28.1136 73.8898 27.312C73.9533 26.486 74.0967 25.7168 74.32 25.0046C74.5127 24.2744 74.7357 23.7058 74.989 23.2986C75.0772 23.1445 75.1807 22.9993 75.2995 22.8631C75.4183 22.7269 75.5218 22.5817 75.6099 22.4276C75.3763 21.9422 75.1789 21.447 75.0178 20.9422C74.8501 20.413 74.8338 19.8693 74.969 19.3111C75.082 18.8633 75.4636 18.5 76.1138 18.2214C76.7817 17.912 77.5193 17.7665 78.3268 17.785C79.1584 17.7971 79.9665 18.0112 80.7511 18.4273C81.5357 18.8434 82.1188 19.5222 82.5006 20.4638C82.8628 21.3324 83.0823 22.2 83.1592 23.0667C83.2602 23.9269 83.3316 24.8212 83.3733 25.7496C83.6298 25.8374 84.0094 25.8531 84.512 25.7967C85.0388 25.7339 85.5307 25.589 85.9877 25.3622ZM77.9106 32.0282C78.7025 31.2158 79.2147 30.3739 79.4473 29.5026C79.7039 28.6248 79.8871 27.7145 79.9969 26.7717C78.995 26.4138 78.1439 25.8459 77.4435 25.068C77.3554 25.2221 77.2865 25.5928 77.2368 26.1803C77.1871 26.7677 77.1602 27.4404 77.1562 28.1983C77.1698 28.9254 77.235 29.6517 77.3517 30.3772C77.4619 31.0784 77.6482 31.6287 77.9106 32.0282ZM79.9826 24.5442C80.0362 24.1645 80.0251 23.7368 79.9495 23.2613C79.8673 22.7613 79.7401 22.2865 79.5678 21.8369C79.4132 21.3563 79.2386 20.9464 79.0441 20.6071C78.8673 20.2369 78.7077 19.9795 78.5654 19.835C78.3094 20.4255 78.3077 21.1436 78.5602 21.9894C78.8369 22.8287 79.311 23.6803 79.9826 24.5442Z" fill="#6066FA"/>
<path d="M91.1373 34.63C91.0472 34.6802 90.9144 34.7158 90.7388 34.7368C90.5938 34.7756 90.3974 34.8152 90.1493 34.8556C89.6904 34.9785 89.005 34.836 88.0931 34.4279C87.1878 34.0441 86.4085 33.2613 85.7552 32.0793C85.6984 31.964 85.6505 31.8333 85.6113 31.6872C85.548 31.5476 85.4968 31.4047 85.4577 31.2586C85.168 30.3707 84.9687 29.2888 84.8599 28.0131C84.7269 26.7439 84.6964 25.2776 84.7684 23.6142C84.8163 21.9572 84.9487 20.2776 85.1657 18.5753C85.3761 16.8487 85.659 15.1027 86.0144 13.3373C86.3763 11.5962 86.7672 10.1083 87.1871 8.87359C87.6246 7.60808 88.0791 6.59899 88.5505 5.84635C88.7111 5.67283 88.876 5.56342 89.0451 5.51811C89.2383 5.46634 89.4808 5.45355 89.7726 5.47976C90.0885 5.49949 90.4514 5.59797 90.8614 5.7752L91.1081 5.82653C91.8646 6.04137 92.3193 6.33711 92.4719 6.71375C92.5287 6.82903 92.4954 6.99453 92.372 7.21028C91.405 8.72205 90.5917 10.6624 89.9321 13.0313C89.3031 15.4181 88.8781 17.8416 88.6572 20.3017C88.3879 22.7748 88.3526 25.1069 88.5514 27.298C88.6595 28.861 88.8911 30.2082 89.246 31.3396C89.3224 31.5279 89.415 31.7771 89.524 32.0872C89.6506 32.3664 89.8056 32.7033 89.989 33.0978C90.404 33.8739 91.1462 34.1318 92.2155 33.8714C91.9556 34.2541 91.5962 34.507 91.1373 34.63Z" fill="#6066FA"/>
<path d="M99.3891 16.5649C99.4596 16.4416 99.5706 16.3727 99.722 16.3582C99.8976 16.3373 100.071 16.3561 100.242 16.4147C100.413 16.4732 100.558 16.578 100.676 16.729C100.787 16.8557 100.818 17.0172 100.767 17.2136C100.707 18.2473 100.515 19.3167 100.19 20.4216C99.8819 21.4957 99.4767 22.5438 98.9739 23.5658C98.4711 24.5878 97.9126 25.5465 97.2982 26.4419C96.6838 27.3372 96.0488 28.1076 95.3934 28.7529C95.0833 29.0448 94.7164 29.2214 94.2927 29.2827C93.8691 29.3441 93.4291 29.3445 92.9728 29.2841C92.51 29.1993 92.0769 29.0805 91.6735 28.9276C91.2701 28.7747 90.9304 28.6179 90.6543 28.457C90.0649 28.0929 89.6384 27.5157 89.3747 26.7251C89.1046 25.9102 88.9631 24.9955 88.9502 23.9812C88.9131 22.9733 88.987 21.8966 89.1719 20.751C89.3568 19.6054 89.6063 18.5077 89.9205 17.4579C90.2588 16.4016 90.6506 15.4485 91.0959 14.5985C91.5412 13.7484 91.9992 13.0907 92.4699 12.6253C92.7624 12.3643 93.0536 12.1949 93.3434 12.1172C93.6267 12.0152 93.9417 11.983 94.2883 12.0206C94.6284 12.0339 94.9848 12.108 95.3575 12.243C95.7479 12.3472 96.181 12.466 96.6568 12.5995C97.3344 12.8094 97.724 13.2009 97.8258 13.7738C97.8975 14.0417 97.9161 14.5456 97.8814 15.2856C97.8708 16.0192 97.7734 16.8151 97.5892 17.6735C97.4227 18.501 97.1497 19.318 96.7703 20.1242C96.4086 20.8997 95.9189 21.4876 95.3013 21.888C94.8509 22.1391 94.438 22.2889 94.0626 22.3373C93.6873 22.3857 93.2561 22.3707 92.7691 22.2924C92.7136 22.5683 92.6786 22.9691 92.6642 23.4949C92.6432 23.9964 92.6618 24.5003 92.7198 25.0067C92.7778 25.5131 92.8711 25.9579 92.9997 26.341C93.1217 26.6997 93.3221 26.8679 93.6008 26.8454C94.0068 26.8149 94.4948 26.4623 95.0648 25.7876C95.6589 25.1065 96.238 24.2728 96.8022 23.2865C97.3598 22.2759 97.8792 21.1711 98.3605 19.9722C98.8418 18.7732 99.1846 17.6375 99.3891 16.5649ZM95.0419 14.8329C94.846 15.0681 94.6201 15.481 94.3641 16.0715C94.1258 16.6312 93.8972 17.2274 93.6784 17.8602C93.4838 18.4865 93.3157 19.0665 93.1739 19.6003C93.0564 20.1277 93.0139 20.4522 93.0465 20.574C93.5008 20.5305 93.8635 20.2898 94.1345 19.8519C94.4296 19.4074 94.6535 18.8907 94.8064 18.3017C94.9768 17.6819 95.0683 17.0572 95.0808 16.4275C95.1174 15.7913 95.1045 15.2598 95.0419 14.8329Z" fill="#6066FA"/>
<path d="M100.654 24.1335C101.018 23.1746 101.489 22.5656 102.067 22.3064C102.621 22.0537 103.153 22.1069 103.663 22.4659C104.16 22.7763 104.46 23.3616 104.561 24.2219C104.603 24.8629 104.522 25.3806 104.317 25.7748C104.129 26.1382 103.852 26.4081 103.485 26.5847C102.708 26.8714 101.975 26.7937 101.287 26.3517C100.562 25.8675 100.351 25.1281 100.654 24.1335Z" fill="#6066FA"/>
</g>
</svg>
