<svg width="400" height="353" viewBox="0 0 400 353" fill="none" xmlns="http://www.w3.org/2000/svg">
<rect width="400" height="352.4" transform="translate(0 0.465179)" fill="white"/>
<path fill-rule="evenodd" clip-rule="evenodd" d="M160.359 268.607C216.228 282.449 243.413 229.331 291.282 233.372C317.486 235.584 369.717 246.797 369.6 165.122C369.308 112.393 314.142 99.1886 257.254 126.23C240.514 131.998 227.298 130.21 212.949 124.48C198.599 118.749 180.144 93.1666 145.362 87.9037C40.6904 72.0656 -48.8696 216.771 160.359 268.607Z" fill="#F0F1FF"/>
<path fill-rule="evenodd" clip-rule="evenodd" d="M293.125 135.949C294.173 135.5 296.054 136.371 294.963 137.772C292.547 140.875 301.889 147.073 298.891 141.611C298.57 141.027 296.925 136.989 299.252 139.074C301.579 141.159 304.823 150.372 302.725 153.547C300.883 156.333 296.011 157.658 289.359 157.815L289.06 157.821L288.918 157.829C284.997 157.989 282.024 155.851 280.105 151.688L280.013 151.485C278.07 147.127 278.603 143.633 281.744 141.278C281.801 141.235 281.862 141.196 281.927 141.163L282.026 141.116L293.125 135.949Z" fill="white"/>
<path fill-rule="evenodd" clip-rule="evenodd" d="M81.2936 54.3893C80.8362 53.8175 80.0951 53.4882 79.3036 53.5736C78.493 53.6602 77.8152 54.1568 77.5686 54.8419L77.5028 55.0251C77.4529 55.1603 77.3935 55.3152 77.3238 55.4894C77.1249 55.9867 76.8838 56.5386 76.599 57.1322C75.7893 58.8199 74.7925 60.5042 73.6028 62.0711C71.0358 65.452 67.9429 67.8054 64.3172 68.7119C63.7505 68.8535 63.4215 69.3731 63.5823 69.8724C63.6639 70.1259 68.9591 72.4574 74.3647 71.8696C79.608 71.2994 84.9672 67.817 85.0104 67.5799L85.0765 67.0865L85.0951 66.9211C85.4706 63.3331 84.7578 59.2801 82.0154 55.3539C81.7875 55.0278 81.547 54.7061 81.2936 54.3893Z" fill="#6066FA"/>
<path fill-rule="evenodd" clip-rule="evenodd" d="M92.2049 55.433L92.177 55.6228C91.7972 58.0519 90.7328 61.4346 88.8079 63.9863C86.4379 67.1279 83.0933 69.5304 79.7323 71.0788C74.8837 73.3122 69.6059 73.7211 64.4093 70.8195L64.1801 70.6895C61.4492 69.1159 59.3769 68.3583 56.5335 68.9835C53.69 69.6088 52.309 71.4332 51.0816 73.126L51.0253 73.1976C50.8285 73.4292 50.5407 73.5895 50.2163 73.646L44.8252 74.3983L46.7885 76.547C47.3794 77.1983 47.7994 77.6679 48.0485 77.9556L50.2064 80.4601C56.6376 87.8911 63.5586 94.9863 77.0551 92.5301L77.5125 92.4436C81.0883 91.7434 84.0862 93.6241 87.8471 96.396L88.6507 96.9921C89.6456 97.7339 92.6533 100.07 93.8844 101.194L94.2867 101.566L94.6579 101.918C94.7352 101.992 94.8089 102.064 94.8788 102.132L95.2625 102.513L95.4981 102.268C98.0441 99.5679 99.6385 95.4554 100.464 92.0628C100.776 90.781 100.955 89.5536 101.029 88.4212L101.038 88.2737C101.058 87.9427 101.066 87.6537 101.068 87.4123V87.2332L100.683 87.3325C96.2319 88.4447 91.2237 88.5552 86.3368 88.0585C85.1563 87.9385 98.1063 78.698 95.4481 66.731C94.8423 64.0035 94.4578 60.3569 93.3997 57.8817C93.066 57.1011 92.7201 56.3872 92.3774 55.7489L92.2049 55.433Z" fill="white"/>
<path fill-rule="evenodd" clip-rule="evenodd" d="M293.688 137.427L282.608 142.172C279.953 144.163 279.501 147.124 281.254 151.055C281.868 152.435 283.407 155.72 283.407 154.43C283.407 154.026 293.688 148.106 295.661 148.685C297.484 149.221 294.208 144.392 293.289 142.172L293.688 137.306L293.993 136.821" fill="#6066FA"/>
<path fill-rule="evenodd" clip-rule="evenodd" d="M278.905 140.988C279.642 140.988 275.469 142.717 275.684 145.906C275.899 149.094 278.727 154.971 278.04 155.202C277.352 155.434 276.048 153.721 275.785 153.115C274.149 149.344 273.84 147.805 273.898 145.606C273.975 142.727 275.693 140.988 278.905 140.988Z" fill="#6066FA"/>
<ellipse cx="297.473" cy="144.147" rx="2.88007" ry="5.732" fill="#6066FA"/>
<path fill-rule="evenodd" clip-rule="evenodd" d="M96.3022 204.583C96.3022 194.637 97.5565 190.313 111.026 184.885C138.631 175.055 138.631 174.676 191.516 156.662C205.502 151.923 234.988 163.276 247.81 158.518C256.358 155.346 264.351 152.991 271.413 149.845C272.097 153.779 276.518 160.44 278.075 161.585C269.805 163.114 261.805 165.478 254.076 168.678C237.367 175.596 247.269 173.711 220.803 195.699C218.56 197.562 210.318 201.811 198.401 206.236C198.401 206.236 174.401 203.397 164.775 199.87C154.979 196.28 140.136 184.885 140.136 184.885C140.136 184.885 122.823 194.835 112.871 199.308C108.212 201.401 96.3022 204.583 96.3022 204.583Z" fill="white"/>
<path fill-rule="evenodd" clip-rule="evenodd" d="M96.3021 199.414C96.3021 197.08 96.0222 195.45 96.3021 193.648C97.2148 187.773 100.792 184.767 111.099 180.613C138.705 170.783 138.631 169.507 191.516 151.493C205.502 146.754 234.988 158.107 247.81 153.349C256.358 150.177 264.351 147.822 271.413 144.676C271.433 144.789 270.698 150.165 270.698 150.165C270.698 150.165 253.264 158.276 241.732 159.996C229.479 161.823 212.649 153.349 195.844 157.517C170.252 163.864 111.278 183.813 104.301 188.812C98.8194 192.74 96.3021 199.414 96.3021 199.414Z" fill="#6066FA"/>
<path fill-rule="evenodd" clip-rule="evenodd" d="M81.2936 54.3893C80.8362 53.8175 80.0951 53.4882 79.3036 53.5736C78.493 53.6602 77.8152 54.1568 77.5686 54.8419L77.5028 55.0251C77.4529 55.1603 77.3935 55.3152 77.3238 55.4894C77.1249 55.9867 76.8838 56.5386 76.599 57.1322C75.7893 58.8199 74.7925 60.5042 73.6028 62.0711C71.0358 65.452 67.9429 67.8054 64.3172 68.7119C63.7505 68.8535 63.4215 69.3732 63.5823 69.8724C63.7431 70.3717 72.5523 66.8351 75.376 63.1161C76.6471 61.442 77.705 59.6544 78.564 57.864C78.8232 57.3239 79.0487 56.8151 79.242 56.3455L79.3359 56.114C79.4115 55.9249 79.4766 55.7553 79.5318 55.6056C79.5457 55.4988 79.5587 55.463 79.5707 55.4984C85.6814 59.1814 83.2792 68.3218 83.8661 68.3662C84.4264 68.4086 84.9226 68.0613 85.0104 67.58L85.0765 67.0865L85.0951 66.9211C85.4706 63.3331 84.7578 59.2801 82.0154 55.3539C81.7875 55.0278 81.547 54.7061 81.2936 54.3893Z" fill="#6066FA"/>
<path fill-rule="evenodd" clip-rule="evenodd" d="M94.0172 54.3617L94.1519 54.5734L94.3162 54.8452C94.415 55.0125 94.5262 55.2066 94.6471 55.4258C95.0663 56.1855 95.4896 57.0453 95.895 57.9935C97.0359 60.6624 97.8336 63.5428 98.1059 66.5437C98.4755 70.616 97.8082 74.4593 96.1184 77.9556L95.9737 78.2491C94.6009 80.9804 92.6007 83.4829 90.0044 85.7281L89.747 85.9476L89.9658 85.9569C93.7047 86.0953 97.4022 85.8005 100.653 84.8874C101.35 84.6916 102.11 84.7927 102.71 85.1606C103.309 85.5279 103.682 86.119 103.719 86.7612L103.728 86.9606L103.733 87.2241V87.3254C103.733 87.6931 103.721 88.1053 103.691 88.557C103.609 89.8046 103.413 91.1504 103.071 92.5552C102.105 96.5241 100.175 100.241 97.0188 103.373C96.6 103.789 96.0108 104.038 95.3844 104.068L95.2396 104.071C94.5707 104.06 93.96 103.816 93.5258 103.4L93.2079 103.075L93.0521 102.919L92.7207 102.595L92.3579 102.25C92.2318 102.131 92.1007 102.01 91.9647 101.886C90.8059 100.827 89.5272 99.7778 88.169 98.8122C84.4044 96.136 80.7731 94.6249 77.672 94.7887C72.599 95.0573 68.398 94.8485 64.5006 93.8851C59.4619 92.6396 55.5055 90.1959 52.8872 86.3056L52.7405 86.0839C51.3849 84.0012 49.3829 81.6021 47.0214 79.105C46.2916 78.3333 45.5717 77.5995 44.8856 76.9209L44.5936 76.6334C44.1262 76.1753 43.7432 75.8103 43.5827 75.6616C42.9901 75.1114 42.7841 74.322 43.043 73.6002L43.081 73.5026C43.3655 72.8281 44.027 72.3283 44.8332 72.1881L49.1566 71.4353L49.2069 71.3711C50.7539 69.4339 52.9626 67.793 55.8966 67.1321C58.957 66.4427 62.1773 67.0421 65.4205 68.8551L65.6468 68.9835C70.0269 71.5074 74.3686 71.3681 78.4964 69.4667C81.4448 68.1084 84.255 65.8021 86.3845 62.9793C88.3644 60.3549 89.5412 57.5493 89.6251 55.3349C89.6602 54.4095 90.3847 53.6149 91.4036 53.3883C92.4235 53.1612 93.49 53.5591 94.0172 54.3617ZM92.2046 55.433L92.1767 55.6228C91.7969 58.0519 90.7325 61.4346 88.8075 63.9863C86.4375 67.1279 83.0929 69.5304 79.732 71.0788C74.8833 73.3122 69.6055 73.7211 64.4089 70.8195L64.1797 70.6895C61.4488 69.1159 59.3765 68.3583 56.5331 68.9835C53.6897 69.6088 52.3086 71.4332 51.0812 73.126L51.025 73.1976C50.8282 73.4292 50.5404 73.5895 50.216 73.646L44.8248 74.3983L46.7881 76.547C47.379 77.1983 47.799 77.6679 48.0482 77.9556L50.206 80.4601C56.6372 87.8911 63.5583 94.9863 77.0548 92.5301L77.5122 92.4436C81.0879 91.7434 84.0858 93.6241 87.8468 96.396L88.6503 96.9921C89.6452 97.7339 92.653 100.07 93.884 101.194L94.2863 101.566L94.6575 101.918C94.7348 101.992 94.8085 102.064 94.8785 102.132L95.2622 102.513L95.4977 102.268C98.0437 99.5679 99.6382 95.4554 100.464 92.0628C100.776 90.781 100.955 89.5536 101.029 88.4212L101.038 88.2737C101.057 87.9427 101.066 87.6537 101.068 87.4123V87.2332L100.683 87.3325C96.2316 88.4447 91.2233 88.5552 86.3364 88.0585C85.1559 87.9385 98.1059 78.698 95.4478 66.731C94.8419 64.0035 94.4575 60.3569 93.3994 57.8817C93.0657 57.1011 92.7198 56.3872 92.3771 55.7489L92.2046 55.433Z" fill="#6066FA"/>
<path fill-rule="evenodd" clip-rule="evenodd" d="M58.3999 76.5836C59.4292 76.5836 60.2666 75.8459 60.2666 74.9391C60.2666 74.0323 59.4292 73.2946 58.3999 73.2946C57.3706 73.2946 56.5333 74.0323 56.5333 74.9391C56.5333 75.8458 57.3706 76.5836 58.3999 76.5836Z" fill="#00160A"/>
<ellipse cx="60.0002" cy="81.0474" rx="2.93333" ry="2.1144" fill="#FFB61D"/>
<ellipse cx="60.0002" cy="81.0474" rx="2.93333" ry="2.1144" fill="#FFB61D"/>
<path fill-rule="evenodd" clip-rule="evenodd" d="M94.0174 54.3617L94.1521 54.5734L94.3164 54.8452C94.4153 55.0125 94.5264 55.2066 94.6473 55.4258C95.0665 56.1855 95.4899 57.0453 95.8952 57.9935C97.0361 60.6624 97.8338 63.5428 98.1062 66.5437C98.4757 70.616 97.8084 74.4593 96.1186 77.9556L95.974 78.2491C94.6011 80.9804 92.6009 83.4829 90.0046 85.7281L89.7472 85.9476L89.966 85.9569C93.7049 86.0953 97.4024 85.8005 100.653 84.8874C101.35 84.6916 102.11 84.7927 102.71 85.1606C103.31 85.5279 103.682 86.119 103.72 86.7612L103.728 86.9606L103.733 87.2241V87.3254C103.733 87.6931 103.721 88.1053 103.691 88.557C103.609 89.8046 103.413 91.1504 103.071 92.5552C102.106 96.5241 100.175 100.241 97.019 103.373C96.6003 103.789 96.011 104.038 95.3846 104.068L95.2398 104.071C94.571 104.06 93.9602 103.816 93.5261 103.4L93.2082 103.075L93.0523 102.919L92.721 102.595L92.3581 102.25C92.2321 102.131 92.1009 102.01 91.9649 101.886C90.8062 100.827 89.5275 99.7778 88.1692 98.8122C84.4046 96.136 80.7734 94.6249 77.6722 94.7887C72.5992 95.0573 68.3982 94.8485 64.5008 93.8851C59.4622 92.6396 55.5057 90.1959 52.8875 86.3056L52.7407 86.0839C51.3852 84.0012 49.3831 81.6021 47.0216 79.105C46.2918 78.3333 45.5719 77.5995 44.8858 76.9209L44.5939 76.6334C44.1264 76.1753 43.7434 75.8103 43.5829 75.6616C42.9903 75.1114 42.7843 74.322 43.0432 73.6002L43.0813 73.5026C43.3657 72.8281 44.0272 72.3283 44.8335 72.1881L49.1568 71.4353L49.2072 71.3711C50.7541 69.4339 52.9629 67.793 55.8968 67.1321C58.7849 66.4815 61.8154 66.9787 64.8731 68.5604C68.2601 67.5603 71.168 65.2779 73.6028 62.0711C74.7925 60.5042 75.7893 58.8199 76.599 57.1322C76.8838 56.5386 77.1249 55.9867 77.3238 55.4894C77.3935 55.3152 77.4529 55.1603 77.5028 55.0251L77.5686 54.8419C77.8152 54.1568 78.493 53.6602 79.3036 53.5736C80.095 53.4882 80.8362 53.8175 81.2936 54.3893C81.547 54.7061 81.7875 55.0278 82.0153 55.3539C84.1442 58.4016 85.05 61.5257 85.1732 64.4494C85.5969 63.9777 86.0018 63.4869 86.3847 62.9793C88.3646 60.3549 89.5414 57.5493 89.6253 55.3349C89.6604 54.4095 90.3849 53.6149 91.4039 53.3883C92.4237 53.1612 93.4902 53.5591 94.0174 54.3617ZM78.4966 69.4667C74.487 71.3136 70.2757 71.4979 66.0234 69.1939C68.8865 68.0276 73.4802 65.613 75.376 63.1161C76.6471 61.442 77.7049 59.6544 78.564 57.864C78.8231 57.3239 79.0487 56.8151 79.2419 56.3455L79.3359 56.114C79.4115 55.9249 79.4766 55.7553 79.5318 55.6056C79.5457 55.4988 79.5587 55.463 79.5707 55.4984C83.6326 57.9465 83.933 62.806 83.8503 65.8025C82.2175 67.3373 80.3854 68.5966 78.4966 69.4667ZM79.7322 71.0788C81.3593 70.3292 82.9825 69.3794 84.4932 68.2426C84.6094 68.183 84.7121 68.1045 84.7955 68.0114C86.2885 66.8511 87.662 65.505 88.8077 63.9863C90.7327 61.4346 91.7971 58.0519 92.1769 55.6228L92.2048 55.433L92.3773 55.7489C92.72 56.3872 93.0659 57.1011 93.3996 57.8817C94.136 59.6043 94.5461 61.8941 94.9316 64.0467L94.9316 64.0469C95.1 64.9874 95.2638 65.9017 95.448 66.731C97.4854 75.9032 90.3536 83.4737 87.4429 86.5635C86.556 87.505 86.0609 88.0305 86.3366 88.0585C91.2235 88.5552 96.2318 88.4447 100.683 87.3325L101.068 87.2332V87.4123C101.066 87.6537 101.058 87.9427 101.038 88.2737L101.029 88.4212C100.955 89.5536 100.776 90.781 100.464 92.0628C99.6384 95.4554 98.044 99.5679 95.498 102.268L95.2624 102.513L94.8787 102.132C94.8088 102.064 94.735 101.992 94.6577 101.918L94.2866 101.566L93.8843 101.194C92.6532 100.07 89.6455 97.7339 88.6505 96.9921L87.847 96.396C84.086 93.6241 81.0882 91.7434 77.5124 92.4436L77.055 92.5301C63.5585 94.9863 56.6375 87.8911 50.2063 80.4601L48.0484 77.9556C47.7992 77.6679 47.3792 77.1983 46.7883 76.547L44.8251 74.3983L50.2162 73.646C50.5406 73.5895 50.8284 73.4292 51.0252 73.1976L51.0814 73.126C52.3089 71.4332 53.6899 69.6088 56.5333 68.9835C59.3768 68.3583 61.4491 69.1159 64.1799 70.6895L64.4091 70.8195C69.6058 73.7211 74.8835 73.3122 79.7322 71.0788ZM293.125 135.949C294.173 135.5 296.053 136.371 294.962 137.772C293.311 139.894 295.146 144.82 296.263 147.82C296.78 149.208 297.144 150.184 296.938 150.279C296.285 150.58 295.479 150.357 295.138 149.782C293.291 146.669 292.231 144.196 291.966 142.317C291.835 141.382 291.805 140.477 291.88 139.604L291.889 139.504L283.351 143.16L283.243 143.248C281.316 144.841 280.467 146.69 281.878 149.966L281.961 150.156C283.492 153.591 286.085 156.055 288.782 155.952L288.992 155.942C294.985 155.837 298.567 154.248 299.845 152.313C301.453 149.881 301.889 147.073 298.89 141.611C298.57 141.027 296.925 136.989 299.252 139.074C301.579 141.159 304.823 150.372 302.724 153.547C300.973 156.197 296.478 157.525 290.319 157.784C290.355 157.922 290.363 158.068 290.338 158.217C289.755 161.705 287.948 163.899 284.925 164.534C282.614 165.02 280.13 164.377 277.856 162.827C269.862 164.339 262.125 166.644 254.643 169.742L253.535 170.204C249.718 171.811 247.528 172.887 245.93 173.934C244.992 174.548 244.218 175.177 243.386 175.986L243.251 176.121C242.847 176.534 241.966 177.482 240.964 178.56C239.63 179.996 238.081 181.663 237.157 182.605L236.711 183.057C232.956 186.848 228.223 191.149 221.718 196.554L221.536 196.701C219.096 198.621 212.615 201.867 204.533 205.141C226.838 204.442 242.922 196.942 252.937 182.627C253.378 181.997 254.362 181.879 254.979 182.382C272.202 196.435 292.157 202.938 314.923 201.922C337.75 200.904 354.5 195.677 365.227 186.293C365.75 185.836 366.594 185.839 367.113 186.299C367.632 186.759 367.629 187.503 367.106 187.96C355.853 197.804 331.963 205.191 308.534 206.236C285.749 207.253 272.154 198.982 254.772 185.388L254.347 185.053L254.194 185.259C243.185 199.958 219.267 210.679 195.397 210.83L194.649 210.833C170.235 210.833 156.154 200.418 139.683 186.183L139.554 186.071L139.495 186.116C139.014 186.472 138.537 186.826 138.064 187.177L138.057 187.182C122.623 198.625 111.106 207.163 93.7827 209.344L93.2302 209.412C73.6975 212.894 44.074 203.62 39.5217 199.074C35.3506 194.909 40.2157 197.498 41.5514 198.209L41.5518 198.209C41.6737 198.274 41.7661 198.323 41.8195 198.35C54.7475 204.871 69.6531 207.354 87.5364 205.205C90.0046 204.909 92.457 204.516 94.8937 204.027L94.8656 203.796C94.0848 197.262 94.0802 194.406 95.2053 191.129C96.7358 186.67 100.451 183.283 107.135 180.589L108.975 179.872C117.231 176.667 123.788 174.26 130.589 171.922L131.087 171.751C131.85 171.49 132.623 171.227 133.412 170.96L134.184 170.7C134.463 170.613 138.099 169.344 143.626 167.413L143.641 167.408L143.645 167.406C156.42 162.945 179.277 154.961 194.188 149.882C197.413 148.79 201.319 148.426 206.109 148.644L206.522 148.664C210.111 148.85 213.64 149.279 219.427 150.161L224.511 150.946C230.188 151.812 232.939 152.153 236.15 152.355C237.16 152.418 238.12 152.497 239.032 152.571C242.409 152.848 245.127 153.07 247.292 152.267C249.219 151.552 251.107 150.862 252.957 150.186L252.958 150.185L252.959 150.185L252.959 150.185C259.01 147.974 264.655 145.911 269.892 143.617C270.252 141.565 271.169 140.049 272.608 139.051C274.827 137.512 277.968 137.486 280.692 138.42C281.378 138.655 281.718 139.335 281.451 139.94C281.365 140.136 280.81 140.046 280.025 139.918C278.384 139.651 275.736 139.221 274.258 140.897C272.614 142.762 272.068 145.618 273.524 151.242C274.579 155.318 281.418 162.249 284.307 162.249C287.527 162.249 288.281 159.494 288.708 157.932L288.735 157.834C284.904 157.922 281.994 155.786 280.105 151.688L280.013 151.485C278.07 147.127 278.602 143.633 281.744 141.278C281.801 141.235 281.862 141.197 281.927 141.163L282.025 141.116L293.125 135.949ZM275.395 160.703C275.26 160.56 275.127 160.412 274.995 160.262C274.963 160.232 274.933 160.202 274.904 160.172C274.887 160.155 274.871 160.139 274.856 160.122C274.744 160.003 274.629 159.881 274.512 159.757L274.505 159.75L274.502 159.746L274.492 159.736L274.484 159.728L274.482 159.726C273.449 158.632 272.252 157.365 271.314 155.538L271.178 155.272C269.674 152.304 269.495 148.97 269.587 146.221L269.601 145.901L269.522 145.937C263.308 148.646 256.548 151.364 249.243 154.091L248.327 154.432C245.2 155.592 241.293 156.412 236.344 156.13L235.961 156.108C232.579 155.895 229.735 155.539 223.771 154.627L219.318 153.939C206.765 152.024 200.483 151.726 195.307 153.431C195.307 153.431 118.116 179.012 108.23 182.731C102.218 185.154 100.178 187.434 97.6912 191.129C96.4051 193.04 96.5351 198.311 96.6254 201.972L96.6255 201.973L96.6255 201.976C96.6407 202.589 96.6546 203.156 96.6607 203.655C111.256 200.439 125.286 193.754 138.76 183.584C139.291 183.184 140.083 183.212 140.575 183.65C141.665 184.621 142.773 185.559 143.9 186.464L199.486 166.005C199.638 165.949 199.796 165.919 199.952 165.914C200.37 165.74 200.822 165.596 201.306 165.483C206.153 164.348 210.024 166.195 212.698 170.741L217.544 167.627C218.258 167.168 219.273 167.438 219.58 168.169C224.001 178.696 222.713 185.909 215.432 189.39C208.09 192.9 201.705 190.006 196.727 181.233C196.475 180.788 196.574 180.273 196.923 179.927C195.737 175.68 195.516 172.296 196.324 169.845L147.623 189.289C154.905 194.497 162.902 198.426 171.618 201.076C171.817 200.907 172.033 200.763 172.245 200.661C179.586 197.118 197.671 192.98 202.142 191.957L202.143 191.957L202.143 191.957L202.143 191.957L202.144 191.957L202.144 191.956C202.531 191.868 202.815 191.803 202.982 191.764C205.078 191.269 202.931 192.994 202.298 193.252L202.217 193.282L175.816 202.239C183.67 204.209 192.08 205.194 201.049 205.194C201.559 205.194 202.066 205.191 202.57 205.184L203.161 204.846C208.807 201.613 218.249 196.206 219.888 194.844L220.653 194.207C226.089 189.56 230.134 185.102 233.665 181.211C237.54 176.942 240.795 173.354 244.589 170.948C247.538 169.077 248.607 168.649 251.119 167.645L251.12 167.644C251.792 167.376 252.567 167.066 253.509 166.676C260.172 163.917 267.74 162.319 274.843 160.82L275.395 160.703ZM201.992 167.753C205.832 166.854 208.709 168.443 210.901 172.88L210.97 173.183C211.781 176.867 211.433 178.929 210.322 179.477C209.274 179.996 208.241 179.491 206.905 177.372C206.823 177.237 206.714 177.121 206.586 177.027C206.396 176.887 206.165 176.797 205.922 176.765C205.812 176.751 205.7 176.749 205.588 176.76C205.471 176.771 205.355 176.796 205.241 176.835L205.24 176.836L205.231 176.839L199.377 178.873L199.231 178.307C197.628 171.906 198.672 168.531 201.992 167.753ZM137.461 221.112C138.08 220.761 142.354 218.924 138.548 222.377C134.741 225.83 105.097 240.481 89.0943 241.292C73.6709 242.074 59.9769 236.399 48.0627 228.972L47.6678 228.724L47.5891 228.813C47.0617 229.402 46.5197 229.937 45.9628 230.417L45.7232 230.619C44.714 231.454 42.9674 232.399 40.4439 233.497C39.7837 233.784 37.4508 234.048 38.658 232.964C39.8651 231.879 42.5073 230.318 44.046 229.422C45.0516 228.837 45.3692 228.153 45.6843 227.474C45.8513 227.114 46.0177 226.756 46.2855 226.414C46.7156 225.866 47.5766 225.743 48.1819 226.142C59.9273 233.898 73.6479 238.032 89.0943 237.249C104.605 236.462 120.623 230.656 137.461 221.112ZM228.686 228.601C229.227 228.162 229.227 225.023 228.686 225.463C222.695 230.333 210.153 234.616 194.676 235.401C179.18 236.187 166.996 234.04 158.102 229.002C157.483 228.651 154.417 227.723 156.259 229.354C158.102 230.986 178.813 239.498 194.829 238.686L195.309 238.661C211.09 237.813 222.216 233.861 228.686 228.601ZM217.747 170.666L217.667 170.455L213.652 173.036L213.726 173.401C214.533 177.56 213.983 180.279 211.744 181.467L211.626 181.527C209.293 182.68 207.096 181.865 205.259 179.496L205.179 179.391L199.781 181.311L199.906 181.511C204.032 188.071 208.605 189.895 213.987 187.407L214.161 187.325C219.566 184.741 220.897 179.468 217.934 171.178L217.747 170.666ZM60.2667 74.9391C60.2667 75.8459 59.4293 76.5836 58.4 76.5836C57.3707 76.5836 56.5333 75.8458 56.5333 74.9391C56.5333 74.0323 57.3707 73.2946 58.4 73.2946C59.4293 73.2946 60.2667 74.0323 60.2667 74.9391Z" fill="#00160A"/>
</svg>
