<svg width="705" height="90" viewBox="0 0 705 90" fill="none" xmlns="http://www.w3.org/2000/svg">
<line y1="74.5" x2="45" y2="74.5" stroke="#FECDCF"/>
<line x1="205" y1="74.5" x2="705" y2="74.5" stroke="#FECDCF"/>
<path d="M84.2 79L82.74 76.35H82.33V79H80.62V71.98H83.49C84.0433 71.98 84.5133 72.0767 84.9 72.27C85.2933 72.4633 85.5867 72.73 85.78 73.07C85.9733 73.4033 86.07 73.7767 86.07 74.19C86.07 74.6567 85.9367 75.0733 85.67 75.44C85.41 75.8067 85.0233 76.0667 84.51 76.22L86.13 79H84.2ZM82.33 75.14H83.39C83.7033 75.14 83.9367 75.0633 84.09 74.91C84.25 74.7567 84.33 74.54 84.33 74.26C84.33 73.9933 84.25 73.7833 84.09 73.63C83.9367 73.4767 83.7033 73.4 83.39 73.4H82.33V75.14ZM90.8534 73.35V74.77H93.1434V76.09H90.8534V77.63H93.4434V79H89.1434V71.98H93.4434V73.35H90.8534ZM101.604 71.98V73.35H99.7436V79H98.0336V73.35H96.1736V71.98H101.604ZM107.782 79.07C107.122 79.07 106.515 78.9167 105.962 78.61C105.415 78.3033 104.978 77.8767 104.652 77.33C104.332 76.7767 104.172 76.1567 104.172 75.47C104.172 74.7833 104.332 74.1667 104.652 73.62C104.978 73.0733 105.415 72.6467 105.962 72.34C106.515 72.0333 107.122 71.88 107.782 71.88C108.442 71.88 109.045 72.0333 109.592 72.34C110.145 72.6467 110.578 73.0733 110.892 73.62C111.212 74.1667 111.372 74.7833 111.372 75.47C111.372 76.1567 111.212 76.7767 110.892 77.33C110.572 77.8767 110.138 78.3033 109.592 78.61C109.045 78.9167 108.442 79.07 107.782 79.07ZM107.782 77.51C108.342 77.51 108.788 77.3233 109.122 76.95C109.462 76.5767 109.632 76.0833 109.632 75.47C109.632 74.85 109.462 74.3567 109.122 73.99C108.788 73.6167 108.342 73.43 107.782 73.43C107.215 73.43 106.762 73.6133 106.422 73.98C106.088 74.3467 105.922 74.8433 105.922 75.47C105.922 76.09 106.088 76.5867 106.422 76.96C106.762 77.3267 107.215 77.51 107.782 77.51ZM116.003 71.98V76.18C116.003 76.6 116.106 76.9233 116.313 77.15C116.52 77.3767 116.823 77.49 117.223 77.49C117.623 77.49 117.93 77.3767 118.143 77.15C118.356 76.9233 118.463 76.6 118.463 76.18V71.98H120.173V76.17C120.173 76.7967 120.04 77.3267 119.773 77.76C119.506 78.1933 119.146 78.52 118.693 78.74C118.246 78.96 117.746 79.07 117.193 79.07C116.64 79.07 116.143 78.9633 115.703 78.75C115.27 78.53 114.926 78.2033 114.673 77.77C114.42 77.33 114.293 76.7967 114.293 76.17V71.98H116.003ZM126.954 79L125.494 76.35H125.084V79H123.374V71.98H126.244C126.797 71.98 127.267 72.0767 127.654 72.27C128.047 72.4633 128.341 72.73 128.534 73.07C128.727 73.4033 128.824 73.7767 128.824 74.19C128.824 74.6567 128.691 75.0733 128.424 75.44C128.164 75.8067 127.777 76.0667 127.264 76.22L128.884 79H126.954ZM125.084 75.14H126.144C126.457 75.14 126.691 75.0633 126.844 74.91C127.004 74.7567 127.084 74.54 127.084 74.26C127.084 73.9933 127.004 73.7833 126.844 73.63C126.691 73.4767 126.457 73.4 126.144 73.4H125.084V75.14ZM140.386 77.76H137.766L137.346 79H135.556L138.096 71.98H140.076L142.616 79H140.806L140.386 77.76ZM139.946 76.44L139.076 73.87L138.216 76.44H139.946ZM147.07 71.98V76.18C147.07 76.6 147.173 76.9233 147.38 77.15C147.586 77.3767 147.89 77.49 148.29 77.49C148.69 77.49 148.996 77.3767 149.21 77.15C149.423 76.9233 149.53 76.6 149.53 76.18V71.98H151.24V76.17C151.24 76.7967 151.106 77.3267 150.84 77.76C150.573 78.1933 150.213 78.52 149.76 78.74C149.313 78.96 148.813 79.07 148.26 79.07C147.706 79.07 147.21 78.9633 146.77 78.75C146.336 78.53 145.993 78.2033 145.74 77.77C145.486 77.33 145.36 76.7967 145.36 76.17V71.98H147.07ZM162.809 75.4C163.216 75.4867 163.543 75.69 163.789 76.01C164.036 76.3233 164.159 76.6833 164.159 77.09C164.159 77.6767 163.953 78.1433 163.539 78.49C163.133 78.83 162.563 79 161.829 79H158.559V71.98H161.719C162.433 71.98 162.989 72.1433 163.389 72.47C163.796 72.7967 163.999 73.24 163.999 73.8C163.999 74.2133 163.889 74.5567 163.669 74.83C163.456 75.1033 163.169 75.2933 162.809 75.4ZM160.269 74.82H161.389C161.669 74.82 161.883 74.76 162.029 74.64C162.183 74.5133 162.259 74.33 162.259 74.09C162.259 73.85 162.183 73.6667 162.029 73.54C161.883 73.4133 161.669 73.35 161.389 73.35H160.269V74.82ZM161.529 77.62C161.816 77.62 162.036 77.5567 162.189 77.43C162.349 77.2967 162.429 77.1067 162.429 76.86C162.429 76.6133 162.346 76.42 162.179 76.28C162.019 76.14 161.796 76.07 161.509 76.07H160.269V77.62H161.529ZM168.861 77.68H171.101V79H167.151V71.98H168.861V77.68ZM177.237 79.07C176.577 79.07 175.97 78.9167 175.417 78.61C174.87 78.3033 174.434 77.8767 174.107 77.33C173.787 76.7767 173.627 76.1567 173.627 75.47C173.627 74.7833 173.787 74.1667 174.107 73.62C174.434 73.0733 174.87 72.6467 175.417 72.34C175.97 72.0333 176.577 71.88 177.237 71.88C177.897 71.88 178.5 72.0333 179.047 72.34C179.6 72.6467 180.034 73.0733 180.347 73.62C180.667 74.1667 180.827 74.7833 180.827 75.47C180.827 76.1567 180.667 76.7767 180.347 77.33C180.027 77.8767 179.594 78.3033 179.047 78.61C178.5 78.9167 177.897 79.07 177.237 79.07ZM177.237 77.51C177.797 77.51 178.244 77.3233 178.577 76.95C178.917 76.5767 179.087 76.0833 179.087 75.47C179.087 74.85 178.917 74.3567 178.577 73.99C178.244 73.6167 177.797 73.43 177.237 73.43C176.67 73.43 176.217 73.6133 175.877 73.98C175.544 74.3467 175.377 74.8433 175.377 75.47C175.377 76.09 175.544 76.5867 175.877 76.96C176.217 77.3267 176.67 77.51 177.237 77.51ZM188.438 74.2C188.312 73.9667 188.128 73.79 187.888 73.67C187.655 73.5433 187.378 73.48 187.058 73.48C186.505 73.48 186.062 73.6633 185.728 74.03C185.395 74.39 185.228 74.8733 185.228 75.48C185.228 76.1267 185.402 76.6333 185.748 77C186.102 77.36 186.585 77.54 187.198 77.54C187.618 77.54 187.972 77.4333 188.258 77.22C188.552 77.0067 188.765 76.7 188.898 76.3H186.728V75.04H190.448V76.63C190.322 77.0567 190.105 77.4533 189.798 77.82C189.498 78.1867 189.115 78.4833 188.648 78.71C188.182 78.9367 187.655 79.05 187.068 79.05C186.375 79.05 185.755 78.9 185.208 78.6C184.668 78.2933 184.245 77.87 183.938 77.33C183.638 76.79 183.488 76.1733 183.488 75.48C183.488 74.7867 183.638 74.17 183.938 73.63C184.245 73.0833 184.668 72.66 185.208 72.36C185.748 72.0533 186.365 71.9 187.058 71.9C187.898 71.9 188.605 72.1033 189.178 72.51C189.758 72.9167 190.142 73.48 190.328 74.2H188.438Z" fill="#FA5158"/>
<path d="M60.1439 3.41354L63.3941 0.921696C63.4869 0.850566 63.6105 0.811523 63.7424 0.811523C63.8744 0.811523 63.9979 0.850622 64.0907 0.921696L64.3858 1.14799C64.4785 1.21901 64.5296 1.31386 64.5296 1.41501C64.5296 1.51609 64.4785 1.61415 64.3858 1.68516L62.4897 3.14204H68.5138C68.7854 3.14204 69 3.30505 69 3.51334V3.83325C69 4.04154 68.7854 4.22099 68.5138 4.22099H62.4682L64.3857 5.686C64.4785 5.75713 64.5295 5.8494 64.5295 5.95055C64.5295 6.05157 64.4785 6.1452 64.3857 6.21627L64.0907 6.44183C63.9979 6.51296 63.8743 6.55173 63.7423 6.55173C63.6104 6.55173 63.4868 6.51246 63.394 6.44133L60.1438 3.94954C60.0508 3.87819 59.9996 3.78294 60 3.68168C59.9997 3.58009 60.0508 3.48478 60.1439 3.41354Z" fill="#FA5158"/>
</svg>
